<?xml version="1.0" encoding="utf-8"?>
<!-- Generator: Adobe Illustrator 23.0.1, SVG Export Plug-In . SVG Version: 6.00 Build 0)  -->
<svg version="1.1" id="Warstwa_1" xmlns="http://www.w3.org/2000/svg" xmlns:xlink="http://www.w3.org/1999/xlink" x="0px" y="0px"
	 viewBox="0 0 698 126" style="enable-background:new 0 0 698 126;" xml:space="preserve">
<style type="text/css">
	.st0{fill:url(#SVGID_1_);}
	.st1{fill:url(#SVGID_2_);}
	.st2{fill:#FFFFFF;}
</style>
<g>
	
		<linearGradient id="SVGID_1_" gradientUnits="userSpaceOnUse" x1="161.95" y1="330.65" x2="537.05" y2="-44.45" gradientTransform="matrix(1 0 0 1 0 -80)">
		<stop  offset="0" style="stop-color:#B12FA0"/>
		<stop  offset="1" style="stop-color:#F73F7F"/>
	</linearGradient>
	<path class="st0" d="M635.5,126.1c0,0-429,0-572,0c-34.8,0-63-28.2-63-63l0,0c0-34.8,28.2-63,63-63c143,0,572,0,572,0
		c34.8,0,63,28.2,63,63l0,0C698.5,97.9,670.3,126.1,635.5,126.1z"/>
</g>
<linearGradient id="SVGID_2_" gradientUnits="userSpaceOnUse" x1="860.7945" y1="155.2594" x2="630.9833" y2="526.0731" gradientTransform="matrix(-1 0 0 1 967.1 -215.5001)">
	<stop  offset="0" style="stop-color:#B12FA0"/>
	<stop  offset="1" style="stop-color:#FF6197"/>
</linearGradient>
<path class="st1" d="M349.5,67.1c-35-20.4-41.7-43.9-34.2-66.7H57.4C25.5,3.5,0.5,30.4,0.5,63.1c0,34.8,28.2,63,63,63h349.9
	C409.5,111.7,392.8,92.3,349.5,67.1z"/>
<g>
	<path class="st2" d="M259.9,59c0,7.8-5.7,12.6-15,12.6h-8.9v10.9h-5.2V46.4h14.1C254.2,46.4,259.9,51.1,259.9,59z M254.7,59
		c0-5.2-3.5-8.1-10-8.1h-8.8V67h8.8C251.3,67,254.7,64.1,254.7,59z"/>
	<path class="st2" d="M266.7,68.8c0-8.1,6-13.9,14.2-13.9c8.2,0,14.2,5.8,14.2,13.9s-6,14-14.2,14C272.7,82.8,266.7,76.9,266.7,68.8
		z M290,68.8c0-5.8-3.9-9.6-9.2-9.6c-5.3,0-9.2,3.8-9.2,9.6s4,9.6,9.2,9.6C286.1,78.4,290,74.6,290,68.8z"/>
	<path class="st2" d="M319.2,54.9v4.8c-0.4-0.1-0.8-0.1-1.1-0.1c-5.3,0-8.6,3.2-8.6,9.2v13.6h-4.9V55.1h4.7v4.6
		C311,56.5,314.4,54.9,319.2,54.9z"/>
	<path class="st2" d="M344.3,80.8c-1.5,1.3-3.8,1.9-6,1.9c-5.5,0-8.7-3-8.7-8.6v-15H325v-4.1h4.6v-6h4.9v6h7.8v4.1h-7.8V74
		c0,2.9,1.5,4.6,4.3,4.6c1.4,0,2.8-0.5,3.9-1.3L344.3,80.8z"/>
	<path class="st2" d="M358.4,52.8v2.4h7.9v4.1h-7.8v23.2h-4.9V59.2h-4.6v-4.1h4.6v-2.4c0-5.3,3.2-8.8,9-8.8c2.1,0,4.2,0.5,5.6,1.6
		l-1.5,3.8c-1-0.8-2.4-1.3-3.8-1.3C359.9,48,358.4,49.6,358.4,52.8z"/>
	<path class="st2" d="M370.7,68.8c0-8.1,6-13.9,14.2-13.9c8.2,0,14.2,5.8,14.2,13.9s-6,14-14.2,14C376.7,82.8,370.7,76.9,370.7,68.8
		z M394.1,68.8c0-5.8-3.9-9.6-9.2-9.6c-5.3,0-9.2,3.8-9.2,9.6s4,9.6,9.2,9.6C390.1,78.4,394.1,74.6,394.1,68.8z"/>
	<path class="st2" d="M408.5,44.2h4.9v38.2h-4.9V44.2z"/>
	<path class="st2" d="M424.6,46.7c0-1.8,1.4-3.2,3.3-3.2c1.9,0,3.3,1.4,3.3,3.1c0,1.9-1.4,3.3-3.3,3.3
		C426,49.9,424.6,48.5,424.6,46.7z M425.4,55.1h4.9v27.3h-4.9V55.1z"/>
	<path class="st2" d="M439.9,68.8c0-8.1,6-13.9,14.2-13.9c8.2,0,14.2,5.8,14.2,13.9s-6,14-14.2,14C445.9,82.8,439.9,76.9,439.9,68.8
		z M463.3,68.8c0-5.8-3.9-9.6-9.2-9.6c-5.3,0-9.2,3.8-9.2,9.6s4,9.6,9.2,9.6C459.3,78.4,463.3,74.6,463.3,68.8z"/>
</g>
</svg>
