<?xml version="1.0" encoding="utf-8"?>
<!-- Generator: Adobe Illustrator 23.0.1, SVG Export Plug-In . SVG Version: 6.00 Build 0)  -->
<svg version="1.1" id="Warstwa_1" xmlns="http://www.w3.org/2000/svg" xmlns:xlink="http://www.w3.org/1999/xlink" x="0px" y="0px"
	 viewBox="0 0 200 200" style="enable-background:new 0 0 200 200;" xml:space="preserve">
<style type="text/css">
	.st0{fill:url(#Union_4_1_);}
</style>
<linearGradient id="Union_4_1_" gradientUnits="userSpaceOnUse" x1="-858.2136" y1="1118.3175" x2="-855.2422" y2="1114.9266" gradientTransform="matrix(63.4061 0 0 -63.3994 54426.4492 70896.4141)">
	<stop  offset="0" style="stop-color:#71456E"/>
	<stop  offset="1" style="stop-color:#F73F7F"/>
</linearGradient>
<path id="Union_4" class="st0" d="M61.1,191.7c-50.9-21.5-74.7-80.1-53.2-131c5-11.9,12.3-22.7,21.4-31.8
	c26-25.9,64.1-35.6,99.3-25.1c0,0.1-0.1,0.2-0.1,0.3c-0.7,1.3-1.2,2.7-1.5,4.1C76.4-6.9,23.1,22,8.1,72.6S22,176.4,72.6,191.5
	s103.8-13.8,118.9-64.5c11.2-37.8-2-78.7-33.2-102.8c1-1.1,1.8-2.3,2.5-3.6c0-0.1,0.1-0.2,0.1-0.3c3.5,2.7,6.8,5.6,9.9,8.7
	c9.1,9.1,16.4,19.9,21.4,31.8c10.4,24.9,10.4,52.9,0,77.8C170.6,189.3,112,213.1,61.1,191.7L61.1,191.7z M84.8,137.4
	c-12.4,0-22.5-10.1-22.5-22.5c0,0,0,0,0,0V84.3c0-12.4,10.1-22.5,22.5-22.5c0,0,0,0,0,0h30.6c12.4,0,22.5,10.1,22.5,22.5
	c0,0,0,0,0,0v30.6c0,12.4-10.1,22.5-22.5,22.5L84.8,137.4z M69.8,84.3v30.6c0,8.2,6.7,14.9,14.9,14.9c0,0,0,0,0,0h30.6
	c8.2,0,14.9-6.7,14.9-14.9c0,0,0,0,0,0V84.3c0-8.2-6.7-14.9-14.9-14.9c0,0,0,0,0,0H84.7C76.5,69.3,69.8,76,69.8,84.3
	C69.8,84.3,69.8,84.3,69.8,84.3z M80.5,99.5C80.5,88.7,89.2,80,100,80s19.6,8.8,19.6,19.6c0,10.8-8.8,19.6-19.6,19.6
	C89.2,119.1,80.5,110.3,80.5,99.5C80.5,99.5,80.5,99.5,80.5,99.5L80.5,99.5z M88.1,99.6c0,6.6,5.3,11.9,11.9,11.9
	s11.9-5.3,11.9-11.9s-5.3-11.9-11.9-11.9l0,0C93.4,87.6,88.1,93,88.1,99.6L88.1,99.6z M115,80.2c0-2.6,2.1-4.7,4.7-4.7
	c2.6,0,4.7,2.1,4.7,4.7c0,2.6-2.1,4.7-4.7,4.7C117.1,84.9,115,82.8,115,80.2C115,80.2,115,80.2,115,80.2L115,80.2z M133.5,13.6
	c-0.7-6.1,3.7-11.7,9.8-12.4c6.1-0.7,11.7,3.7,12.4,9.8c0.7,6.1-3.7,11.6-9.8,12.4c-0.4,0.1-0.9,0.1-1.3,0.1
	C139,23.4,134.2,19.2,133.5,13.6z"/>
</svg>
