<?xml version="1.0" encoding="utf-8"?>
<!-- Generator: Adobe Illustrator 23.0.1, SVG Export Plug-In . SVG Version: 6.00 Build 0)  -->
<svg version="1.1" id="Warstwa_1" xmlns="http://www.w3.org/2000/svg" xmlns:xlink="http://www.w3.org/1999/xlink" x="0px" y="0px"
	 viewBox="0 0 500 500" style="enable-background:new 0 0 500 500;" xml:space="preserve">
<style type="text/css">
	.st0{clip-path:url(#SVGID_2_);}
	.st1{fill:#0E0E0E;}
	.st2{opacity:0.2;fill:#71456E;enable-background:new    ;}
	.st3{fill:#F5F5F5;}
	.st4{fill:#71456E;}
	.st5{fill:none;stroke:#535461;stroke-width:2;stroke-miterlimit:10;}
	.st6{opacity:0.2;fill:#F5F5F5;enable-background:new    ;}
	.st7{fill:url(#Path_927_1_);}
	.st8{fill:#535461;}
	.st9{fill:#FFFFFF;}
	.st10{fill:url(#Path_929_1_);}
	.st11{fill:url(#Path_930_1_);}
	.st12{fill:url(#Path_939_1_);}
	.st13{fill:#F7C4A7;}
	.st14{opacity:5.000000e-02;enable-background:new    ;}
	.st15{fill:#575988;}
	.st16{opacity:0.1;enable-background:new    ;}
	.st17{fill:#F3B5B7;}
	.st18{fill:#DDDBE2;}
	.st19{fill:#464353;}
</style>
<g>
	<defs>
		<path id="SVGID_1_" d="M405.4,368.2c-0.3-0.3-0.7-0.6-1.1-0.8l4,2.2c0.4,0.2,0.8,0.5,1.1,0.8l-2-1.1l-0.3-0.1l-1-0.6l-0.2-0.1
			C405.7,368.3,405.5,368.3,405.4,368.2z"/>
	</defs>
	<clipPath id="SVGID_2_">
		<use xlink:href="#SVGID_1_"  style="overflow:visible;"/>
	</clipPath>
	<g id="Group_6" transform="translate(461.298 1283.734)" class="st0">
		<g id="Group_5">
			<path id="Path_26" class="st1" d="M-50.5-905.8l-4-2.2c0.3-0.9,0.5-1.8,0.5-2.8c0.1-2.3-1.1-4.4-3.1-5.6l4,2.2
				c2,1.2,3.2,3.3,3.1,5.6C-50-907.7-50.2-906.7-50.5-905.8"/>
		</g>
	</g>
</g>
<g id="undraw_web_devices_ad58" transform="translate(248.001 1143.037)">
	<path id="Path_921" class="st2" d="M-169.4-1037.2c-3.8-0.2-7.5,0.1-11.2,1.1c-8.9,2.8-14.3,11.8-12.7,21
		c1.5,8.4,7.6,15.6,13.9,22.3c6.3,6.7,13.2,13.2,16.7,21.2c2,3.8,2.3,8.3,0.8,12.4c-2.7,6.1-10.9,9.5-18.7,10.2
		c-7.9,0.7-15.7-0.7-23.6-1.1c-3.3-0.3-6.6-0.1-9.8,0.7c-3.3,1.1-6.3,2.8-8.9,5c-10.2,8.1-18.4,19.2-17.1,30.9
		c1.5,13.2,14.8,23.6,29.5,29.2c4.8,1.9,10,3.4,14.2,6c11.2,7,13.7,20.1,12.6,31.6c-1.1,11.6-4.9,23.1-2.8,34.6
		c2.5,13.3,13.5,25.4,28.4,31c13.3,5,29.8,4.7,41.6-2.4c5.4-3.5,10.1-8,13.9-13.2c5.6-7.3,10.2-15.3,13.8-23.8c1.6-4,3.2-8.2,7-11
		c2.6-1.6,5.4-2.8,8.4-3.4c9-2.2,18.6-2.8,27.7-4.8c9.1-2,18.3-5.7,23.3-12.3c7-9.4,3.7-21.3,3.8-32.3c0.1-25.1,18.3-47.6,25-72
		c2.2-8,3-16.8-1.9-24c-3.3-4.8-9-8.3-14.9-11c-13-5.9-27.8-8.6-42.3-11.2c-20.2-3.6-44.7-4-60.4-15.6
		C-129.6-1030.2-149.2-1036.8-169.4-1037.2z"/>
	<ellipse id="Ellipse_34" class="st3" cx="26.8" cy="-809.3" rx="217.4" ry="58.2"/>
	<path id="Path_922" class="st4" d="M207.4-949.8c-10.2,11.4-13,27.5-7.3,41.6c9.5,24.9-16.2,66.2-16.2,66.2s0.3,0,0.8-0.1
		c26.5-4.7,44.2-30,39.5-56.5c-1.1-6.5-3.6-12.6-7.2-18.1C209.9-927.7,204.1-940.4,207.4-949.8z"/>
	<path id="Path_923" class="st5" d="M207.4-949.8c0,0-9.5,20.5,0,37.3c9.5,16.8,1.6,63.8-23.5,70.5"/>
	<path id="Path_924" class="st4" d="M237.2-882.1c0,0-19.1-3-20.9,14.1c-1.7,17.1-36.8,19.5-36.8,19.5l0.7,0.4
		c28.9,19,56.6,12.1,52.4-13.1C231.1-870.5,231.2-879.9,237.2-882.1z"/>
	<path id="Path_925" class="st6" d="M237.2-882.1c0,0-19.1-3-20.9,14.1c-1.7,17.1-36.8,19.5-36.8,19.5l0.7,0.4
		c28.9,19,56.6,12.1,52.4-13.1C231.1-870.5,231.2-879.9,237.2-882.1z"/>
	<path id="Path_926" class="st5" d="M237.2-882.1c0,0-14.8,3.3-13.6,16.7s-22,29.7-44,16.8"/>
	
		<linearGradient id="Path_927_1_" gradientUnits="userSpaceOnUse" x1="-247.1641" y1="-632.8375" x2="-247.1641" y2="-630.9786" gradientTransform="matrix(170.572 0 0 -92.005 42196.3633 -59045.3945)">
		<stop  offset="0" style="stop-color:#808080;stop-opacity:0.251"/>
		<stop  offset="0.54" style="stop-color:#808080;stop-opacity:0.122"/>
		<stop  offset="1" style="stop-color:#808080;stop-opacity:0.102"/>
	</linearGradient>
	<path id="Path_927" class="st7" d="M193-840.9h-30c0.7-1.4,1-2.9,1-4.5v-136.8c0-5.6-4.5-10.1-10.1-10.1l0,0H-78.7
		c-5.6,0-10.1,4.5-10.1,10.1c0,0,0,0,0,0v136.8c0,1.6,0.4,3.1,1,4.5h-31.1c-1.5,0-2.7,1.2-2.7,2.7v2.1c0,8.2,6.7,14.9,14.9,14.9
		h287.3c8.2,0,14.9-6.7,14.9-14.9l0,0v-2.1C195.6-839.7,194.4-840.9,193-840.9z M7.8-832.3l-2.6-2.9h63.9l-2.9,2.9L7.8-832.3z"/>
	<path id="Rectangle_56" class="st8" d="M-42.6-990.3h160.5c23.9,0,43.2,19.4,43.2,43.2v66.9c0,23.9-19.4,43.2-43.2,43.2H-42.6
		c-23.9,0-43.2-19.4-43.2-43.2V-947C-85.9-970.9-66.5-990.3-42.6-990.3z"/>
	<rect id="Rectangle_57" x="-80.7" y="-967.9" class="st9" width="236" height="125.3"/>
	<circle id="Ellipse_35" class="st9" cx="37.4" cy="-978.8" r="2.1"/>
	<path id="Path_928" class="st8" d="M73.8-842.4l-8.1,8.3H8.5l-7.3-8.3h-116.4c-1.4,0-2.6,1.2-2.6,2.6l0,0v2.1
		c0,8,6.5,14.5,14.5,14.5h280.8c8,0,14.5-6.5,14.5-14.5v-2.1c0-1.4-1.2-2.6-2.6-2.6c0,0,0,0,0,0H73.8z"/>
	
		<linearGradient id="Path_929_1_" gradientUnits="userSpaceOnUse" x1="-248.9706" y1="-631.9435" x2="-248.9706" y2="-630.0847" gradientTransform="matrix(63.394 0 0 -84.014 15726.2822 -53899.4375)">
		<stop  offset="0" style="stop-color:#808080;stop-opacity:0.251"/>
		<stop  offset="0.54" style="stop-color:#808080;stop-opacity:0.122"/>
		<stop  offset="1" style="stop-color:#808080;stop-opacity:0.102"/>
	</linearGradient>
	<path id="Path_929" class="st10" d="M-7.2-963.5h-99.6c-5,0-9.1,4.1-9.1,9.1v138c0,5,4.1,9.1,9.1,9.1h99.6c5,0,9.1-4.1,9.1-9.1
		v-137.9C2-959.4-2.1-963.5-7.2-963.5L-7.2-963.5z"/>
	<path id="Rectangle_58" class="st8" d="M-77.3-961.6h40.7c20.5,0,37.2,16.6,37.2,37.2v78.6c0,20.5-16.6,37.2-37.2,37.2h-40.7
		c-20.5,0-37.2-16.6-37.2-37.2v-78.6C-114.5-945-97.8-961.6-77.3-961.6z"/>
	<rect id="Rectangle_59" x="-108.6" y="-947.2" class="st9" width="103.3" height="124"/>
	<circle id="Ellipse_36" class="st9" cx="-57.4" cy="-954.6" r="1.4"/>
	<circle id="Ellipse_37" class="st9" cx="-57.4" cy="-816.2" r="4.2"/>
	
		<linearGradient id="Path_930_1_" gradientUnits="userSpaceOnUse" x1="-251.9775" y1="-628.9326" x2="-251.9775" y2="-627.0738" gradientTransform="matrix(32.946 0 0 -65.665 8193.0283 -42093.5664)">
		<stop  offset="0" style="stop-color:#808080;stop-opacity:0.251"/>
		<stop  offset="0.54" style="stop-color:#808080;stop-opacity:0.122"/>
		<stop  offset="1" style="stop-color:#808080;stop-opacity:0.102"/>
	</linearGradient>
	<path id="Path_930" class="st11" d="M-83.1-916.7h-51.1c-2.8,0-5.1,2.3-5.1,5v112c0,2.8,2.3,5.1,5.1,5l0,0h51.1
		c2.8,0,5.1-2.3,5.1-5v-112C-78-914.5-80.3-916.7-83.1-916.7C-83.1-916.7-83.1-916.7-83.1-916.7L-83.1-916.7z"/>
	<path id="Rectangle_60" class="st8" d="M-118.3-915.8h19.4c11.3,0,20.4,9.2,20.4,20.4v79.8c0,11.3-9.2,20.4-20.4,20.4h-19.4
		c-11.3,0-20.4-9.2-20.4-20.4v-79.8C-138.8-906.7-129.6-915.8-118.3-915.8z"/>
	<rect id="Rectangle_61" x="-134.3" y="-904.6" class="st9" width="51.4" height="98.2"/>
	<circle id="Ellipse_38" class="st9" cx="-114.7" cy="-910.2" r="0.5"/>
	<path id="Rectangle_62" class="st9" d="M-111.9-910.7h9.4c0.3,0,0.5,0.2,0.5,0.5l0,0c0,0.3-0.2,0.5-0.5,0.5h-9.4
		c-0.3,0-0.5-0.2-0.5-0.5l0,0C-112.4-910.5-112.2-910.7-111.9-910.7z"/>
	<circle id="Ellipse_39" class="st9" cx="-108.9" cy="-801.7" r="3.3"/>
	<path id="Path_931" class="st5" d="M-145-786.5c0,0-6.2-21,1.2-36.5c3.1-6.5,4.1-13.8,2.7-20.9c-0.7-3.3-1.7-6.6-2.9-9.8"/>
	<path id="Path_932" class="st4" d="M-139.5-863.4c0,2.6-4.7,10.1-4.7,10.1s-4.7-7.5-4.7-10.1c0.1-2.6,2.2-4.6,4.8-4.6
		C-141.6-868-139.5-865.9-139.5-863.4L-139.5-863.4z"/>
	<path id="Path_933" class="st4" d="M-131.7-849.1c-1.4,2.2-9.4,5.9-9.4,5.9s0.1-8.8,1.5-11c1.3-2.2,4.2-3,6.4-1.7
		c2.2,1.3,3,4.2,1.7,6.4C-131.6-849.4-131.7-849.3-131.7-849.1L-131.7-849.1z"/>
	<path id="Path_934" class="st4" d="M-132.1-824.7c-2.3,1.2-11.1,0.4-11.1,0.4s4.6-7.5,6.9-8.7c2.4-1.1,5.1,0,6.2,2.4
		C-129.1-828.5-130-825.9-132.1-824.7L-132.1-824.7z"/>
	<path id="Path_935" class="st4" d="M-136.5-806.3c-2.1,1.5-10.9,2.2-10.9,2.2s3.2-8.2,5.3-9.7c2.2-1.4,5.1-0.8,6.5,1.3
		C-134.3-810.5-134.7-807.8-136.5-806.3L-136.5-806.3z"/>
	<path id="Path_936" class="st4" d="M-151-842.7c1.9,1.8,10.5,3.7,10.5,3.7s-2.1-8.6-4-10.4c-1.7-1.9-4.7-2.1-6.6-0.3
		c-1.9,1.7-2.1,4.7-0.3,6.6C-151.3-843-151.1-842.9-151-842.7L-151-842.7z"/>
	<path id="Path_937" class="st4" d="M-155.9-821.1c2.3,1.2,11.1,0.4,11.1,0.4s-4.6-7.5-6.9-8.7c-2.3-1.3-5.1-0.5-6.4,1.8
		c-1.3,2.3-0.5,5.1,1.8,6.4C-156.1-821.3-156-821.2-155.9-821.1L-155.9-821.1z"/>
	<path id="Path_938" class="st4" d="M-157.7-799.5c2.1,1.5,10.9,2.2,10.9,2.2s-3.2-8.2-5.3-9.7c-2.2-1.4-5.1-0.8-6.5,1.3
		C-160-803.7-159.6-801-157.7-799.5L-157.7-799.5z"/>
	
		<linearGradient id="Path_939_1_" gradientUnits="userSpaceOnUse" x1="-247.16" y1="-631.5721" x2="-247.16" y2="-629.7134" gradientTransform="matrix(114.3799 0 0 -80.0127 28388.8965 -51309.3516)">
		<stop  offset="0" style="stop-color:#808080;stop-opacity:0.251"/>
		<stop  offset="0.54" style="stop-color:#808080;stop-opacity:0.122"/>
		<stop  offset="1" style="stop-color:#808080;stop-opacity:0.102"/>
	</linearGradient>
	<path id="Path_939" class="st12" d="M225.1-853.4c-5.2-6.3-11.4-13.5-10.6-21.9c0.7-6.8-1-13-0.7-19.8c0.5-9.6-1.5-17.2-8.4-23.4
		c-4.1-3.6-10.8-6.5-12.9-5.7c-4,1.4-8.4,0.9-12.5,1.9c-2.4,0.4-4.7,1.6-6.5,3.3c-2.6,2.3-2.6,5.6-1.5,9.1
		c-4.1,7.4-1.3,16.8,6.1,20.8c0.5,0.3,1,0.5,1.5,0.7c-2.9,1.2-5.4,4-6.3,9.6c-0.7,3.9-1.7,7.7-3.1,11.4c-0.6,0.3-1.2,0.5-1.9,0.8
		c0.1,0.1,0.3,0.1,0.4,0.1c-0.3,0.1-0.6,0.2-0.9,0.3c0.6,0.2,1.1,0.4,1.7,0.5c-2.1,5.5-4.9,10.6-8.4,15.3c0,0-8.7,1.9-12.1-1.4
		c0,0,0.6,0.6,1.3,1.6c-3.3-1.4-8.8-3.6-13.4-5.5c-3.4-1.3-4.2,0-4.2,1.9c-0.8,0.1-1.6,0.4-2.3,0.8c-1-0.6-2-1.2-3.1-1.7
		c-1.9-0.5-8.2-3.9-14.5,7.7c-3.7,6.7-13.1,19-20.3,28.1c-14.1,6.5-32.3,14.6-39.1,16.7H49c-0.6-0.9-1-1.5-1-1.5l-0.3,0.2l-0.1-0.2
		c0,0-8.6,5.9-17.2,6c-1.2,0-2.5-0.2-3.7-0.5c-2.9-0.8-5.8-1.3-8.8-1.4c-1.7-0.3-3.4,0.3-4.6,1.6l0,0c-0.1,0.1-0.2,0.3-0.3,0.4l0,0
		c-0.1,0.2-0.2,0.3-0.3,0.5l0,0c-0.1,0.2-0.2,0.3-0.2,0.5c-0.1,0.3,0,0.7,0.3,0.9c0.1,0.2,0.2,0.3,0.4,0.5l0.2,0.3
		c1.7,1.6,3.6,3,5.6,4.3c0.7,0.5,1.5,1,2.3,1.5l1.5,0.9l1.3,0.8l0.5,0.3l0.6,0.4l1.1,0.7l0.6,0.4l1.2,0.7l1,0.6
		c2.5,1.5,5.1,3,7.4,4.2l1.6,1l0.2,0.1l1,0.6l1.8,1l1.2,0.7l0.6,0.3l0.6,0.3l0.1,0.1l1.1,0.6c0.4,0.1,0.9,0,1.2-0.3
		c0.3-1.3,1.1-4.1,1.9-4.3c0.8-0.2,4.3-6.3,5.3-10.4h9.5c1.9-0.2,3.7-0.4,5.5-0.9c-2.4,1.7-4.9,2.8-6.7,2.4c-4-1-7.7,1.4-8.1,3.8
		c0,0.1,0,0.1,0,0.2c0,0.1,0,0.1,0,0.1c0,0,0,0.1,0,0.2c0,0.1,0,0.1,0,0.2v0.6c0,0.1,0,0.1,0,0.2c0,0.1,0,0.1,0,0.1
		c0,0.1,0.1,0.2,0.1,0.2l0,0.1c0.1,0.1,0.1,0.2,0.2,0.3l0.1,0.1c0,0.1,0.1,0.1,0.2,0.2l0.1,0.1c0.1,0.1,0.1,0.1,0.2,0.2l0.1,0.1
		l0.2,0.2l0.2,0.1l0.3,0.2l0.2,0.1l0.3,0.2l0.2,0.1c0.2,0.1,0.3,0.1,0.5,0.2c0.3,0.1,0.7,0.2,1.1,0.3l0.4,0.1l0.6,0.1l0.3,0.1
		c0.4,0.1,0.8,0.2,1.3,0.3l0.6,0.1l0.5,0.1l1.2,0.2c0.7,0.1,1.5,0.3,2.3,0.4l2,0.3l2.7,0.4l0.6,0.1l0.9,0.1l1.4,0.2l0.9,0.1l0,0
		l2.4,0.3l0.8,0.1l1.5,0.2c2,0.2,4,0.5,5.7,0.7l2.1,0.2l1,0.1l0.5,0l1.3,0.1l0.7,0.1l0.9,0.1l1.2,0.1h0.1l0.8,0.1l0,0
		c0.4,0,0.7-0.2,0.8-0.6c0,0,0,0,0-0.1l0,0v-0.1c0.1-0.1,0.1-0.2,0.1-0.4c0-1.2,0.2-2.3,0.4-3.4c0.1-0.2,0.1-0.4,0.2-0.6l0.1-0.2
		c0.1-0.2,0.2-0.5,0.3-0.7c0.1-0.2,0.1-0.4,0.2-0.5c0-0.1,0-0.1,0.1-0.2c0-0.1,0-0.2,0.1-0.3c1-3.3-0.2-9.5-0.5-12
		c-0.1-0.8-0.3-1.5-0.5-2.3c0.1,0,0.1,0,0.2,0c0.5-0.2,1-0.4,1.4-0.8c7.1-2.5,13.2-5.5,15.1-8.4c3.1-0.8,6.4-0.5,9.2,1
		c3.7,1.8,31.7,11,44.7,15.2c2.3,2,4.2,3.2,5.2,3.1c0,0,16.6,2.7,23.3-2.6c0.6,0.4,1,0.6,1,0.6s9.7-4.8,11.1-11.1
		c0.5-2,0.9-5,1.3-8.3c2.2-2.3,3.5-5.3,3.5-8.5c0.3-10.5,4.4-22.5,7.4-33.2c3.7,0.3,5.1-0.4,8.4-2.1l-0.2-0.2
		C224.6-853.2,224.8-853.3,225.1-853.4z M169.5-837.7l-1.9-0.6c0.6-0.8,1.2-1.7,1.6-2.7L169.5-837.7z M159.1-833.2l11.2,6.7l0.1,1.4
		c-0.1,1-0.1,2.1,0.1,3.1C165.5-826.4,159.8-831.7,159.1-833.2L159.1-833.2z M154.5-843.1c-1.2-0.5-2.2-1-2.9-1.3
		c0.9,0.1,1.8,0.1,2.6,0.2C154.3-843.8,154.4-843.5,154.5-843.1L154.5-843.1z M124.4-832.1c0,0,1.9-4.3,6.3,2.9
		c0.7,1.1,1.9,2.9,3.6,5.1l-12.7-1.7C123-827.7,123.9-829.8,124.4-832.1L124.4-832.1z"/>
	<path id="Path_940" class="st13" d="M152.3-849.5c0,0-8.9-3.7-15.9-6.5s-2.8,6.5-2.8,6.5s11.7,3.3,11.7,3.7s9.8,0.9,9.8,0.9
		L152.3-849.5z"/>
	<path id="Path_941" class="st14" d="M152.3-849.5c0,0-8.9-3.7-15.9-6.5s-2.8,6.5-2.8,6.5s11.7,3.3,11.7,3.7s9.8,0.9,9.8,0.9
		L152.3-849.5z"/>
	<path id="Path_942" class="st15" d="M190.2-886.4c0,0-15.9-8.4-18.7,8c-1.8,10-5.8,19.4-11.7,27.6c0,0-8.4,1.9-11.7-1.4
		c0,0,8,9.4,4.2,10.3c0,0,8.4,6.1,12.2,4.2c3.7-1.9,6.5-14.5,8-17.8S179-887.4,190.2-886.4z"/>
	<path id="Path_943" class="st16" d="M190.2-886.4c0,0-15.9-8.4-18.7,8c-1.8,10-5.8,19.4-11.7,27.6c0,0-8.4,1.9-11.7-1.4
		c0,0,8,9.4,4.2,10.3c0,0,8.4,6.1,12.2,4.2c3.7-1.9,6.5-14.5,8-17.8S179-887.4,190.2-886.4z"/>
	<path id="Path_944" class="st13" d="M181.3-892c0,0,9.8,11.2,10.3,20.6c0.5,9.4,11.2-9.8,12.2-10.3s-9.4-16.4-10.3-21.5
		C192.6-908.4,181.3-892,181.3-892z"/>
	<path id="Path_945" class="st13" d="M188.1-887.2l-6.2,5.6l2.9,11.8l8-7.5l-0.9-7.5L188.1-887.2z"/>
	<path id="Path_946" class="st13" d="M58.8-804.1H48.1l4.2,10.3l10.3-2.8L58.8-804.1z"/>
	<path id="Path_947" class="st16" d="M50.5-805.6c0,0-11.1,7.8-20.7,5.3s-12.1-1.5-13.2,1.6c-1,2.9,26.6,18,31,20.4
		c0.2,0.1,0.6,0.1,0.7-0.2c0,0,0-0.1,0.1-0.1c0.3-1.3,1-4,1.8-4.2c1-0.3,5.6-8.9,5.4-12.3S50.5-805.6,50.5-805.6z"/>
	<path id="Path_948" class="st17" d="M50.1-805.6c0,0-11.1,7.8-20.7,5.3s-12.1-1.5-13.2,1.6c-1,2.9,26.6,18,31,20.4
		c0.2,0.1,0.6,0,0.7-0.2c0,0,0-0.1,0-0.1c0.3-1.3,1-4,1.8-4.2c1-0.3,5.6-8.9,5.4-12.3S50.1-805.6,50.1-805.6z"/>
	<path id="Path_949" class="st15" d="M142-824.2l-31.3-4.2c0,0-51,24.3-57.1,24.8l1.4,10.8h9.4c3.7,0,40.2-8,45.4-15.9
		c3-0.8,6.1-0.5,8.9,0.9c4.7,2.3,49.6,16.8,49.6,16.8L142-824.2z"/>
	<path id="Path_950" class="st16" d="M142-824.2l-31.3-4.2c0,0-51,24.3-57.1,24.8l1.4,10.8h9.4c3.7,0,40.2-8,45.4-15.9
		c3-0.8,6.1-0.5,8.9,0.9c4.7,2.3,49.6,16.8,49.6,16.8L142-824.2z"/>
	<path id="Path_951" class="st13" d="M86.4-809.7l-5.1,6.5l5.1,2.8l7.5-5.6L86.4-809.7z"/>
	<path id="Path_952" class="st15" d="M175.7-817.2c0,0-16.8-14.4-18-17c-1.2-2.6-28.8-20.4-30.6-20.9s-8-3.7-14,7.5
		c-6.1,11.2-28.5,38.3-28.5,38.3s7,9.8,9.4,9.4c2.3-0.5,28.5-22.4,30.4-33.2c0,0,1.9-4.2,6.1,2.8s31.3,40.7,36.5,40.2
		c0,0,20.1,3.3,24.3-4.7C195.4-802.7,175.7-817.2,175.7-817.2z"/>
	<path id="Path_953" class="st18" d="M185.3-885.7c0,0-5.8,2.6-6.3,13.3c-0.5,10.8-10.8,29-10.8,29l0.9,21.5
		c0,0,11.2,11.2,12.2,18.2c0.9,7,8.9,11.7,8.9,11.7s9.4-4.7,10.8-10.8s2.3-21,4.7-26.7c2.3-5.6,0.9-40.7,0.9-40.7l-7-12.2l-3.7-4.2
		l-9.8,11.2C186-875.2,180.6-882.4,185.3-885.7z"/>
	<path id="Path_954" class="st16" d="M171.5-828.9c0,0-1.4-16.8,2.8-20.6l8.4-23.8c0,0,3-11.5,2.6-12.4c-0.5-0.9-11,9.1-11,9.1
		l-7,24.8l1.9,26.2L171.5-828.9z"/>
	<path id="Path_955" class="st15" d="M171-828.9c0,0-1.4-16.8,2.8-20.6l8.4-23.9c0,0,3.3-11.7,2.8-12.6c-0.5-0.9-11.2,9.4-11.2,9.4
		l-7,24.8l1.9,26.2L171-828.9z"/>
	<path id="Path_956" class="st13" d="M174.3-836.4c0,0-23.4-7.5-24.8-9.4c-1.4-1.9-16.4-14-21.5-5.6c-5.1,8.4,19.2,10.8,19.2,10.8
		l24.8,15L174.3-836.4z"/>
	<path id="Path_957" class="st16" d="M87.4-803.2l-6.9-1.2c0,0-11.3,14.5-17.2,13c-5.9-1.5-11.3,4.9-5.1,6.9
		c5.6,1.8,30,4.4,34.6,4.9c0.4,0,0.7-0.2,0.7-0.6c0,0,0,0,0,0c0-1.8,0.4-3.6,1.1-5.3c1.2-3.1,0-9.6-0.3-12.2
		c-0.2-1.5-0.7-2.9-1.4-4.2L87.4-803.2z"/>
	<path id="Path_958" class="st17" d="M87.3-802.8l-6.9-1.2c0,0-11.3,14.5-17.2,13.1c-5.9-1.5-11.3,4.9-5.1,6.9
		c5.6,1.8,30,4.4,34.6,4.9c0.4,0,0.7-0.2,0.7-0.6c0,0,0,0,0-0.1c0-1.8,0.4-3.6,1-5.3c1.2-3.1,0-9.6-0.3-12.2
		c-0.2-1.5-0.7-2.9-1.4-4.2L87.3-802.8z"/>
	<circle id="Ellipse_40" class="st16" cx="184.8" cy="-901.6" r="15"/>
	<circle id="Ellipse_41" class="st13" cx="183.4" cy="-901.6" r="15"/>
	<path id="Path_959" class="st15" d="M198.2-886.9c0,0,17.8,6.1,17.8,18.7s-9.8,32.7-10.3,49.1c-0.5,16.4-26.2,14-26.2,14
		s-3.7-55.2,0-59.4S200-885,198.2-886.9z"/>
	<path id="Path_960" class="st16" d="M194.9-860.7c0,0-6.5,29-22,23.8c0,0-8,11.7-2.3,16.8c0,0,13.6,3.3,22.4-5.6
		c8.9-8.9,15.4-12.2,16.8-22.9c1.4-10.8,2.3-25.7-2.3-24.3S194.9-860.7,194.9-860.7z"/>
	<path id="Path_961" class="st15" d="M195.4-861.2c0,0-6.5,29-22,23.8c0,0-8,11.7-2.3,16.8c0,0,13.6,3.3,22.4-5.6
		c8.9-8.9,15.4-12.2,16.8-22.9c1.4-10.8,2.3-25.7-2.3-24.3C203.3-871.9,195.4-861.2,195.4-861.2z"/>
	<path id="Path_962" class="st18" d="M94.8-786.6c0,0,0,0.1,0,0.1c-0.3,0.8-0.6,1.6-0.7,2.5c0.1-0.4,0.2-0.7,0.4-1.1
		C94.6-785.6,94.8-786.1,94.8-786.6z"/>
	<path id="Path_963" class="st18" d="M58.4-785.4c-1.9-0.6-2.7-1.7-2.8-2.8c-0.8,1.5-0.3,3.2,2.4,4.1c5.6,1.8,30,4.4,34.6,4.9
		c0.4,0,0.7-0.2,0.7-0.6c0,0,0,0,0-0.1l0,0c0-0.4-0.3-0.7-0.6-0.7C87.7-781.1,63.9-783.6,58.4-785.4z"/>
	<path id="Path_964" class="st18" d="M16.9-799.5c0.1-0.3,0.3-0.7,0.5-1c-0.5,0.5-0.9,1.1-1.1,1.8c-1,2.9,26.6,18,31,20.4
		c0.2,0.1,0.6,0.1,0.7-0.2c0,0,0-0.1,0.1-0.1l0,0c0.1-0.2,0-0.4-0.2-0.6C42.8-781.8,15.8-796.6,16.9-799.5z"/>
	<path id="Path_965" class="st18" d="M50.4-783.6c-0.2,0.1-0.5,0.4-0.7,0.9l0.1,0c0.2-0.1,0.6-0.5,1-1.1
		C50.6-783.7,50.5-783.6,50.4-783.6z"/>
	<path id="Path_966" class="st16" d="M181.4-888.4c-1,3-1.9,6.1-2.6,9.2c-1.9,6-6.5,10.8-12.5,13c4.9,1.9,10.6-0.4,14.3-4.4
		c3.8-3.9,6-9.2,8.1-14.2c5.5,3.7,4.8,12.1,6.6,18.7c1.6,5.8,5.6,10.6,11,13.2c5.4,2.4,11.6,2.3,16.9-0.3
		c-5-6.1-12.1-14.5-11.3-22.6c0.7-6.6-4-11.6-3.7-18.2c0.5-9.4-3.1-14.1-9.8-20.1c-3.9-3.5,2.2-8.5-2.8-7c-2,0.6-4.1-1.6-6-0.9
		c-3.9,1.4-8.1,0.9-12.1,1.8C156.8-915.5,183.3-892.7,181.4-888.4z"/>
	<path id="Path_967" class="st19" d="M181.8-888.9c-1,3-1.9,6.1-2.6,9.2c-1.9,6-6.5,10.8-12.5,13c4.9,1.9,10.6-0.4,14.3-4.4
		c3.8-3.9,6-9.2,8.1-14.2c5.5,3.7,4.8,12.1,6.6,18.7c1.6,5.8,5.6,10.6,11,13.2c5.4,2.4,11.6,2.3,16.9-0.3
		c-5-6.1-11.6-13.1-10.8-21.2c0.7-6.6-0.3-13.3,0-19.9c0.2-9.3-3.8-18.3-10.8-24.4c-3.3-2.8-7.7-4-12-3.3c-3.9,1.4-8.1,0.9-12.1,1.8
		C157.3-915.9,183.8-893.2,181.8-888.9z"/>
</g>
</svg>
