<svg xmlns="http://www.w3.org/2000/svg" viewBox="0 0 200 200" width="200" height="200">
	<defs>
		<linearGradient id="grd1" gradientUnits="userSpaceOnUse"  x1="0.46" y1="-9.649" x2="208.403" y2="210.222">
			<stop offset="0" stop-color="#71456e"  />
			<stop offset="1" stop-color="#f73f7f"  />
		</linearGradient>
	</defs>
	<style>
		tspan { white-space:pre }
		.shp0 { fill: url(#grd1) } 
	</style>
	<path id="Union_2" class="shp0" d="M16.14,139.1c-2.11,-5.1 -3.74,-10.5 -4.99,-15.9h0.38c1.34,-0.1 2.69,-0.3 4.03,-0.7c11.7,51.2 61.02,82.8 110.14,70.6c49.12,-12.2 79.44,-63.6 67.73,-114.8c-11.8,-51.2 -61.11,-82.8 -110.23,-70.6c-36.65,9.1 -64.18,40.8 -69.36,79.7c-1.34,-0.3 -2.69,-0.4 -4.13,-0.3c-0.1,0 -0.19,0 -0.29,0c6.33,-49.6 46.91,-86.7 94.88,-86.6c38.47,0 73.2,24 88.17,60.9c15.16,37.4 7,80.7 -20.53,109.4c-27.53,28.7 -68.98,37.1 -104.86,21.4c-22.93,-10.1 -41.25,-29.2 -50.94,-53.1zM114.38,119.1c-1.92,-2.3 -3.17,-5.1 -3.65,-8.1c-0.29,-1.5 -0.38,-2.9 -0.29,-4.4c0.1,-3.1 0.77,-6.2 2.01,-9c1.06,-2.5 2.69,-4.6 4.7,-6.2c2.69,-2 5.85,-3 9.11,-2.9h0.29c3.65,-0.2 7.2,1.1 9.79,3.8c2.01,2.3 3.36,5.3 3.74,8.4c0.38,2.3 0.48,4.6 0.38,7c0,0.3 0,0.6 0,0.9c-0.1,0 -19,0 -21.11,0c-0.29,2.7 0.86,5.3 2.97,6.9c1.15,0.8 2.49,1.1 3.84,1.1h0.29c6.72,0 7,-5 7,-5h7c0.1,11.2 -10.27,12 -13.43,12c-0.48,0 -0.77,0 -0.86,0c-0.29,0 -0.67,0 -0.96,0c-4.22,0.1 -8.06,-1.5 -10.84,-4.5zM117.83,104.1h14.97c0,-2.2 -0.77,-4.2 -2.11,-5.9c-1.34,-1.3 -3.07,-2 -4.89,-1.9h-0.29c-2.59,0 -4.99,1.5 -6.33,3.9c-0.67,1.2 -1.15,2.5 -1.34,3.9zM69.1,123.7v-46.9l23.31,0c3.17,-0.2 6.33,0.9 8.83,3c2.4,2.4 3.74,5.8 3.45,9.3c0.19,3 -0.96,5.9 -3.26,7.7c-0.96,0.7 -2.11,1.2 -3.26,1.4c2.11,-0.1 4.13,0.7 5.56,2.3c1.92,2.7 2.97,6 2.78,9.3c0.38,5 -2.21,9.7 -6.43,12c-2.3,1.2 -4.89,1.9 -7.58,1.9zM80.32,115.9h13.53c2.59,0.3 4.99,-1.6 5.28,-4.3c0.1,-0.4 0.1,-0.8 0,-1.2c0.1,-3.2 -2.21,-5.9 -5.28,-6.2h-13.53zM80.32,96.3h10.94c2.11,0 4.03,-0.5 4.03,-5.9c0,-5.6 -3.17,-5.8 -3.17,-5.8h-11.8zM3.09,113c-4.13,-4.3 -4.13,-11.4 0,-15.7c4.13,-4.3 10.94,-4.3 15.06,0c4.13,4.3 4.13,11.4 0,15.7c-2.01,2.1 -4.7,3.3 -7.58,3.3c-2.78,-0.1 -5.47,-1.2 -7.48,-3.3zM117.93,84.6v-3.9h18.8v3.9z" />
</svg>