<?xml version="1.0" encoding="utf-8"?>
<!-- Generator: Adobe Illustrator 23.0.1, SVG Export Plug-In . SVG Version: 6.00 Build 0)  -->
<svg version="1.1" id="Warstwa_1" xmlns="http://www.w3.org/2000/svg" xmlns:xlink="http://www.w3.org/1999/xlink" x="0px" y="0px"
	 viewBox="0 0 500 500" style="enable-background:new 0 0 500 500;" xml:space="preserve">
<style type="text/css">
	.st0{clip-path:url(#SVGID_2_);}
	.st1{fill:#0E0E0E;}
	.st2{clip-path:url(#SVGID_4_);}
	.st3{fill:#141414;}
	.st4{clip-path:url(#SVGID_6_);}
	.st5{fill:#D9D9D9;}
	.st6{clip-path:url(#SVGID_8_);}
	.st7{opacity:0.1;fill:#71456E;enable-background:new    ;}
	.st8{fill:#71456E;}
	.st9{fill:#444053;}
	.st10{fill:none;stroke:#444053;stroke-miterlimit:10;}
	.st11{fill:none;stroke:#444053;stroke-width:0.75;stroke-miterlimit:10;}
	.st12{fill:#33323D;}
	.st13{fill:#FFFFFF;}
	.st14{fill:#504F60;}
	.st15{opacity:0.1;fill:#33323D;enable-background:new    ;}
	.st16{opacity:0.8;fill:#8CCF4D;enable-background:new    ;}
	.st17{opacity:0.8;fill:#FA5959;enable-background:new    ;}
	.st18{fill:#FBBEBE;}
	.st19{opacity:5.000000e-02;enable-background:new    ;}
	.st20{fill:#3F3D56;}
	.st21{fill:#464353;}
	.st22{fill:url(#Path_810_1_);}
	.st23{fill:#65617D;}
	.st24{opacity:0.1;enable-background:new    ;}
	.st25{fill:#EE8E9E;}
	.st26{fill:#E3E8F4;}
	.st27{fill:#E6E8EC;}
	.st28{fill:#565387;}
	.st29{opacity:0.1;}
	.st30{fill:#A1616A;}
	.st31{fill:#514E7F;}
</style>
<g>
	<defs>
		<path id="SVGID_1_" d="M405.4,368.2c-0.3-0.3-0.7-0.6-1.1-0.8l4,2.2c0.4,0.2,0.8,0.5,1.1,0.8l-2-1.1l-0.3-0.1l-1-0.6l-0.2-0.1
			C405.7,368.3,405.5,368.3,405.4,368.2z"/>
	</defs>
	<clipPath id="SVGID_2_">
		<use xlink:href="#SVGID_1_"  style="overflow:visible;"/>
	</clipPath>
	<g id="Group_6" transform="translate(461.298 1283.734)" class="st0">
		<g id="Group_5">
			<path id="Path_26" class="st1" d="M-50.5-905.8l-4-2.2c0.3-0.9,0.5-1.8,0.5-2.8c0.1-2.3-1.1-4.4-3.1-5.6l4,2.2
				c2,1.2,3.2,3.3,3.1,5.6C-50-907.7-50.2-906.7-50.5-905.8"/>
		</g>
	</g>
</g>
<g id="Group_241" transform="matrix(0.629, -0.777, 0.777, 0.629, 1601.51, 1235.169)">
	<g>
		<defs>
			<path id="SVGID_3_" d="M-39.8-1544.8l-1.7-0.9c-1.4-0.8-2.7-1.7-3.9-2.8l1.7,0.9C-42.5-1546.5-41.2-1545.5-39.8-1544.8z"/>
		</defs>
		<clipPath id="SVGID_4_">
			<use xlink:href="#SVGID_3_"  style="overflow:visible;"/>
		</clipPath>
		<g id="Group_240" class="st2">
			<g id="Group_239">
				<path id="Path_405" class="st3" d="M-39.8-1544.8l-1.7-0.9c-1.4-0.8-2.7-1.7-3.9-2.8l1.7,0.9
					C-42.5-1546.5-41.2-1545.5-39.8-1544.8"/>
			</g>
		</g>
	</g>
</g>
<g id="Group_249" transform="matrix(0.629, -0.777, 0.777, 0.629, 1587.712, 1270.417)">
	<g>
		<defs>
			<path id="SVGID_5_" d="M-75.7-1534.9l-1.7-0.9c-0.9-0.5-1.7-1.1-2.5-1.8l1.7,0.9C-77.4-1536-76.6-1535.3-75.7-1534.9z"/>
		</defs>
		<clipPath id="SVGID_6_">
			<use xlink:href="#SVGID_5_"  style="overflow:visible;"/>
		</clipPath>
		<g id="Group_248" class="st4">
			<g id="Group_247">
				<path id="Path_417" class="st5" d="M-75.7-1534.9l-1.7-0.9c-0.9-0.5-1.7-1.1-2.5-1.8l1.7,0.9
					C-77.4-1536-76.6-1535.3-75.7-1534.9"/>
			</g>
		</g>
	</g>
</g>
<g id="Group_320" transform="matrix(0.629, -0.777, 0.777, 0.629, 1513.259, 1273.716)">
	<g>
		<defs>
			<path id="SVGID_7_" d="M-121.1-1567.8l-1.7-0.9c-5.6-5.3-5.6-15.2,0-22.1l1.7,0.9C-126.7-1583-126.8-1573.1-121.1-1567.8z"/>
		</defs>
		<clipPath id="SVGID_8_">
			<use xlink:href="#SVGID_7_"  style="overflow:visible;"/>
		</clipPath>
		<g id="Group_319" class="st6">
			<g id="Group_318" transform="translate(0)">
				<path id="Path_520" class="st5" d="M-121.1-1567.8l-1.7-0.9c-4.2-4.4-5.5-11-3.1-16.7l1.7,0.9
					C-126.6-1578.8-125.4-1572.2-121.1-1567.8"/>
				<path id="Path_521" class="st5" d="M-124.2-1584.5l-1.7-0.9c0.3-0.8,0.7-1.6,1.1-2.4l1.7,0.9
					C-123.5-1586.1-123.9-1585.3-124.2-1584.5"/>
				<path id="Path_522" class="st5" d="M-123.1-1586.9l-1.7-0.9c0.4-0.7,0.7-1.3,1.2-1.9l1.7,0.9
					C-122.4-1588.2-122.8-1587.5-123.1-1586.9"/>
				<path id="Path_523" class="st5" d="M-121.9-1588.8l-1.7-0.9c0.3-0.4,0.6-0.8,0.9-1.1l1.7,0.9
					C-121.4-1589.6-121.7-1589.2-121.9-1588.8"/>
			</g>
		</g>
	</g>
</g>
<g id="undraw_printing_invoices_5r4r_1_" transform="translate(1418.222 1136.555)">
	<path id="Path_766" class="st7" d="M-928.7-844c0,8-1,15.9-2.9,23.6c-0.6,2.6-1.4,5.2-2.2,7.7c-1,3.1-2.3,6.1-3.6,9.1
		c-0.7,1.5-1.4,3-2.2,4.4c0,8.2-1.7,16.3-4.9,23.7c-5.9,13.4-16.5,24.3-29.7,30.6c-8.3,4-17.4,6-26.5,6.1H-1316
		c-14,0-27.8-3.6-39.9-10.7c-1.8-1-3.5-2.2-5.2-3.3c-3.7-2.6-7.2-5.4-10.4-8.6c-4.3-4.3-8.2-9-11.4-14.2
		c-7.6-12.1-11.6-26-11.6-40.3c-8.1-14.4-12.3-30.6-12.2-47c-0.2-20.6,6.4-40.6,18.8-57c2.4-3.2,5.1-6.1,8-8.9
		c2.8-2.7,5.9-5.2,9.1-7.5c2.6-1.8,5.3-3.4,8.1-4.9c1.2-0.6,2.3-1.2,3.5-1.7c1.1-0.5,2.1-0.9,3.2-1.3c1.3-0.5,2.6-0.9,3.9-1.4
		c1.3-0.4,2.6-0.8,3.9-1.1c1.9-0.5,3.8-0.8,5.8-1.1c1.6-0.2,3.2-0.4,4.9-0.5c1.3-0.1,2.6-0.1,3.9-0.2h0.7c1.4,0,2.9,0.1,4.3,0.2
		c0.2-0.3,0.3-0.6,0.5-0.9c0.6-1.1,1.2-2.2,1.7-3.2v0c0.1-0.2,0.2-0.4,0.3-0.5c0.5-0.9,1-1.7,1.5-2.6c0.2-0.4,0.5-0.8,0.7-1.2
		c0.1-0.1,0.1-0.2,0.2-0.3c0.2-0.4,0.5-0.8,0.7-1.2c1.3-2,2.6-4,3.9-5.9c0.1-0.2,0.2-0.3,0.3-0.5c0.2-0.3,0.4-0.6,0.6-0.9
		c0.6-0.8,1.1-1.6,1.7-2.3c0.4-0.5,0.8-1.1,1.3-1.6c1.1-1.4,2.1-2.7,3.2-4.1c1.1-1.3,2.3-2.7,3.5-4c0.2-0.2,0.3-0.4,0.5-0.5l1.7-1.9
		l0,0c0.1-0.1,0.2-0.2,0.2-0.3l0,0c0.2-0.2,0.4-0.4,0.6-0.7c0.9-1,1.9-2,2.8-2.9c4.9-4.9,10.1-9.4,15.6-13.6
		c0.2-0.2,0.4-0.3,0.6-0.5c1-0.8,2.1-1.5,3.1-2.3c5.8-4.1,11.8-7.9,18-11.2c0.4-0.2,0.9-0.5,1.3-0.7c5.6-3,11.4-5.6,17.2-7.9
		c3.2-1.3,6.5-2.5,9.8-3.6c2.2-0.7,4.4-1.4,6.6-2c3.5-1,7-1.9,10.5-2.7c10.4-2.3,21.1-3.8,31.8-4.3c3.2-0.2,6.5-0.3,9.8-0.3
		c16,0,32,2,47.5,6c0.3,0.5,0.9,0.8,1.5,0.8h1.4c0.6,0.2,1.2,0.3,1.8,0.5c3.3,1,6.6,2,9.8,3.1l0.8,0.3c7.9,2.8,15.7,6.2,23.1,10.1
		c6.7,3.5,13.2,7.5,19.3,11.9c0.9,0.7,1.9,1.4,2.8,2.1c1.1-0.7,2.3-1.4,3.4-2.1c4.5-2.5,9.2-4.6,14.2-6c10.3-3.1,21.2-3.5,31.8-1.2
		c13.6,3,26,10,35.6,20.1c4,4.1,7.6,8.6,10.7,13.5c0.2,0.3,0.4,0.7,0.7,1.1c2.6,4.3,4.9,8.8,6.8,13.6c0.1,0.2,0.1,0.3,0.2,0.5
		c1.7,4.4,3.1,8.9,4.2,13.5c0,0.2,0.1,0.5,0.2,0.7c1,4.5,1.7,9,2,13.5c0,0.2,0,0.3,0,0.5c0.2,2.4,0.3,4.7,0.3,7.1
		c0,2.2-0.1,4.3-0.2,6.4c0,0.2,0,0.5-0.1,0.7c0,0.6-0.1,1.2-0.1,1.8c3.1,2.5,6,5.2,8.7,8.2c1.2,1.3,2.3,2.6,3.4,4
		c3.4,4.2,6.3,8.8,8.8,13.5C-932.4-874.8-928.7-859.5-928.7-844z"/>
	<path id="Path_767" class="st7" d="M-974.6-764.1c0,9.2-9.6,17.9-26.2,25.3H-1316c-14.6-0.2-28.7-5.3-39.9-14.5
		c-2.7-3-4.3-6.8-4.5-10.8c0-9.8,10.8-19,29.5-26.7l0,0l0.5-0.2c5.3-2.2,11.2-4.2,17.6-6.1c0.2,0,0.3-0.1,0.5-0.2l0,0
		c5.1-1.5,10.6-2.9,16.3-4.3c0.2,0,0.4-0.1,0.5-0.1c2.2-0.5,4.5-1,6.8-1.5l0,0l0.9-0.2c18.8-3.8,37.7-6.5,56.8-8.2h0
		c2.9-0.3,5.9-0.5,8.8-0.7c3.3-0.3,6.7-0.5,10-0.7c2.6-0.2,5.2-0.3,7.8-0.4c0,0,0,0,0.1,0c11.8-0.6,24.1-0.9,36.6-0.9
		c28.8-0.1,57.6,1.7,86.1,5.3c0,0,0,0,0.1,0c4,0.5,7.9,1.1,11.7,1.7c1.1,0.2,2.2,0.3,3.2,0.5c4.3,0.7,8.5,1.4,12.6,2.2l0,0
		C-1005.8-795.5-974.6-780.8-974.6-764.1z"/>
	<path id="Path_768" class="st8" d="M-1053-934.1c0,0-4.3-1.7-18,4.5c-13.7,6.3-15.4,5.5-18.9,4.5c-3.5-0.9-5.5-1.2-9.3-6.4
		c0,0-2.7-14.5-5.3-16.7c-2.6-2.2-13.6,1.3-13.6,1.3s-13.2,3-15.7-14.6c0,0,1.8-13.3-0.6-17.4c0,0,4.9,2.1,13-1.3
		c8.1-3.4,14.6,3.7,14.6,3.7c1.1,2.7,1.7,5.5,1.8,8.4c-0.2,3.1,1.1,4.3,4.9,2.8c0,0,1.9-2.7-0.8-7.2c-2.7-4.5-4.6-7.8-3.9-11.2
		c1-5.1,4.8-9.2,9.8-10.7c6.9-2.4,16.3-2.8,20.8-4.7c2-0.7,3.9-1.7,5.6-3.1c0,0-2.8,2.8,3.8,14.6c6.5,11.8,2.4,16.9,2.4,16.9
		s-3.5,8.3-18.8,7.6c0,0-14.8,0.5-6.7,6.8c0,0,5.2-1.1,12.9-3.5c7.7-2.5,13.3,7.7,14.7,14.7C-1059.3-940.6-1056.7-936.8-1053-934.1z
		"/>
	<path id="Path_769" class="st9" d="M-1072.9-993.3L-1072.9-993.3c0.7,2.2-5.9,11.3-11.6,18.5l-0.1-0.1
		C-1076.6-985-1072.5-991.5-1072.9-993.3z"/>
	<path id="Path_770" class="st9" d="M-1084.5-975L-1084.5-975c-4.5,5.8-10.2,12.7-14.7,17.8c-0.4,0.5-0.9,1-1.3,1.5l-0.1-0.1
		c0.4-0.5,0.8-1,1.3-1.5C-1094.8-962.4-1089-969.2-1084.5-975z"/>
	<path id="Path_771" class="st9" d="M-1100.5-956l0.1,0.2c-8.3,10.3-8.8,26.4-8.8,26.5l-1.7-2C-1111-931.5-1108.8-945.6-1100.5-956z
		"/>
	<path id="Path_772" class="st10" d="M-1062.6-939.7c0,0-9.7-5.1-17.4-3.2s-24.7-6.5-24.7-6.5s-7.3-3-8.7-6.3c0,0-5-5.3-5.3-8
		c-0.3-2.7-5.1-9.6-8.3-9.8"/>
	<path id="Path_773" class="st10" d="M-1064.1-934.8c0,0-4.9-3.3-4.3-7.2"/>
	<path id="Path_774" class="st10" d="M-1071.6-930.6c0,0-7-2.5-7.7-12.5"/>
	<path id="Path_775" class="st10" d="M-1082.9-928c-4.2-3.9-5.9-9.8-4.5-15.3"/>
	<path id="Path_776" class="st10" d="M-1096.5-930.7c0,0-4.5-9.4-0.5-15.5"/>
	<path id="Path_777" class="st10" d="M-1062.5-945.9c0,0-5.1,1.6-4,4.3"/>
	<path id="Path_778" class="st10" d="M-1068.7-955.1c0,0-6.8,2.2-7,11.8"/>
	<path id="Path_779" class="st10" d="M-1078.1-957.3c0,0-6.2,7.6-5.7,14.6"/>
	<path id="Path_780" class="st10" d="M-1089-954.3c0,0-6.1,5.9-5.4,9.1"/>
	<path id="Path_781" class="st10" d="M-1092.7-956.4c0,0-5.8,1-6.6-0.9"/>
	<path id="Path_782" class="st10" d="M-1100.2-963.4c0,0,2.9,3.9,3.7,3"/>
	<path id="Path_783" class="st10" d="M-1071.3-965.8c0,0-14.5,1.1-17.8-3.3"/>
	<path id="Path_784" class="st10" d="M-1103.2-982.8c0,0,6.8,14.6,11.8,16.5"/>
	<path id="Path_785" class="st10" d="M-1096.1-989.8c0,0,4.2,13.5,9.4,17.7"/>
	<path id="Path_786" class="st11" d="M-1065.2-976.9c0,0-11,4.7-17.7-0.1"/>
	<path id="Path_787" class="st11" d="M-1086.2-992.6c0,0,2.5,9.9,5.9,12.3"/>
	<path id="Path_788" class="st11" d="M-1066.9-988c0,0-6.2,2.3-8.5,0.6"/>
	<path id="Path_789" class="st10" d="M-1105.5-960.1c0,0,0,8.6-2.3,9.2"/>
	<path id="Path_790" class="st10" d="M-1124.7-949c0,0,9.3,0.8,13.6-4"/>
	<path id="Path_791" class="st10" d="M-1107.9-970.3c0,0-2.3,8.7-8.5,11.1"/>
	<path id="Path_792" class="st10" d="M-1130.3-958.2c4.4,1.2,9.2-0.1,12.3-3.5"/>
	<path id="Path_793" class="st10" d="M-1115.2-977.9c0,0-0.6,7.4-4.7,10.9"/>
	<path id="Path_794" class="st10" d="M-1130-969.5c0,0,5.5,0,6.8-1.7"/>
	<rect id="Rectangle_40" x="-1246.3" y="-941.3" class="st12" width="155.9" height="78.7"/>
	<rect id="Rectangle_41" x="-1294.9" y="-838.7" class="st12" width="253.6" height="51.8"/>
	<path id="Path_795" class="st13" d="M-1234.4-825.7h130l25.9,87.2h-183.3L-1234.4-825.7z"/>
	<path id="Path_796" class="st14" d="M-1302.1-869.6v82.7h48.6v-47.8h170.9v47.8h48.6v-82.7H-1302.1z"/>
	<rect id="Rectangle_42" x="-1302.1" y="-869.6" class="st15" width="268" height="26.9"/>
	<circle id="Ellipse_16" class="st16" cx="-1048.6" cy="-856.1" r="4"/>
	<circle id="Ellipse_17" class="st17" cx="-1066.5" cy="-856.1" r="4"/>
	<rect id="Rectangle_43" x="-1240.6" y="-960.2" class="st13" width="144.5" height="85.7"/>
	<path id="Path_797" class="st18" d="M-1074.2-835.2c0.3,3.3-2.2,6.5-1.5,9.8c0.2,0.7,0.5,1.4,0.6,2c0,2-0.7,3.9-2,5.4l-9.4,13.9
		c-0.4,0.6-0.8,1.2-1.3,1.7c-1.8,1.6-4.5,1.4-6.9,1.9c-1.7,0.3-3.2,1-4.6,2c-0.1,0.1-0.2,0.3-0.1,0.4c0.8,1.1,2.1,1.7,3.4,1.6
		c0.2,0.3,0,0.8-0.3,1c-0.5,0.3-1.2,0.4-1.3,1.3c0,0.3,0,0.6,0.2,0.9c0.4,0.6,1,1,1.7,1.1c3.2,1,6.8-0.8,9.2-3.1s4.2-5.4,6.6-7.8
		c1.3-1.3,2.8-2.5,4.2-3.8c2.6-2.7,5-5.7,6.9-8.9c0.7-0.9,1.2-1.9,1.5-3c0.3-1.1,0.1-2.2,0.4-3.3c0.5-1.4,1.3-2.6,2.3-3.7
		c1.8-2.3,2.7-5.1,2.6-8c-0.2-2.9-2-5.5-4.7-6.6c-0.8-0.3-1.7-0.4-2.6-0.2c-1.1,0.4-2,1.2-2.7,2.1l-1.8,2.1c-0.4,0.5-0.8,1-1,1.6
		c-0.2,0.6-0.1,1.3,0.4,1.8"/>
	<path id="Path_798" class="st19" d="M-1074.2-835.2c0.3,3.3-2.2,6.5-1.5,9.8c0.2,0.7,0.5,1.4,0.6,2c0,2-0.7,3.9-2,5.4l-9.4,13.9
		c-0.4,0.6-0.8,1.2-1.3,1.7c-1.8,1.6-4.5,1.4-6.9,1.9c-1.7,0.3-3.2,1-4.6,2c-0.1,0.1-0.2,0.3-0.1,0.4c0.8,1.1,2.1,1.7,3.4,1.6
		c0.2,0.3,0,0.8-0.3,1c-0.5,0.3-1.2,0.4-1.3,1.3c0,0.3,0,0.6,0.2,0.9c0.4,0.6,1,1,1.7,1.1c3.2,1,6.8-0.8,9.2-3.1s4.2-5.4,6.6-7.8
		c1.3-1.3,2.8-2.5,4.2-3.8c2.6-2.7,5-5.7,6.9-8.9c0.7-0.9,1.2-1.9,1.5-3c0.3-1.1,0.1-2.2,0.4-3.3c0.5-1.4,1.3-2.6,2.3-3.7
		c1.8-2.3,2.7-5.1,2.6-8c-0.2-2.9-2-5.5-4.7-6.6c-0.8-0.3-1.7-0.4-2.6-0.2c-1.1,0.4-2,1.2-2.7,2.1l-1.8,2.1c-0.4,0.5-0.8,1-1,1.6
		c-0.2,0.6-0.1,1.3,0.4,1.8"/>
	<path id="Path_799" class="st20" d="M-1067-749.8c-2.2,1.1-4.6,1.5-7,1c-0.4,0-0.8-0.1-1.1,0.2c-0.4,0.4,0.1,1.1,0.5,1.4
		c1.4,1.1,3.1,1.7,4.8,2c1.6,0.2,3.1,0.3,4.7,0.3c4.3,0.2,8.6,0,12.9-0.5c0.2,0,0.5-0.1,0.7-0.2c0.3-0.2,0.5-0.5,0.5-0.8
		c0.2-1.1-0.2-2.3-1.1-3.1c-0.9-0.7-1.9-1.3-3-1.6l-3.7-1.5c-1-0.6-2.1-1-3.2-1.2C-1063.8-753.5-1065.5-750.7-1067-749.8z"/>
	<path id="Path_800" class="st19" d="M-1067-749.8c-2.2,1.1-4.6,1.5-7,1c-0.4,0-0.8-0.1-1.1,0.2c-0.4,0.4,0.1,1.1,0.5,1.4
		c1.4,1.1,3.1,1.7,4.8,2c1.6,0.2,3.1,0.3,4.7,0.3c4.3,0.2,8.6,0,12.9-0.5c0.2,0,0.5-0.1,0.7-0.2c0.3-0.2,0.5-0.5,0.5-0.8
		c0.2-1.1-0.2-2.3-1.1-3.1c-0.9-0.7-1.9-1.3-3-1.6l-3.7-1.5c-1-0.6-2.1-1-3.2-1.2C-1063.8-753.5-1065.5-750.7-1067-749.8z"/>
	<path id="Path_801" class="st21" d="M-1064.4-799.5c-1.6,2.1-3.2,4.5-2.8,7c0.3,1.4,0.9,2.7,1.6,3.9c0.7,1.8,1.2,3.6,1.6,5.5
		c0.6,2.7,1.2,5.4,1.5,8.2c0.4,3.1-1.5,12.1-1.7,15.3c0,0.8-0.2,1.5-0.7,2.1c-0.2,0.2-0.5,0.4-0.6,0.7c-0.1,0.3,0,0.5,0.1,0.8
		c1,2,2.6,3.5,4.7,4.3c2.9,1.2,5.9,2,9,2.4c0.3,0,0.6,0,0.8-0.1c0.3-0.2,0.5-0.4,0.7-0.8c1.6-3,0.1-13.6,0.1-17
		c0-2.8,0.7-5.6,0.6-8.4c-0.1-2.3-0.7-4.5-0.9-6.7c-0.2-3.7,0.1-7.4,1-11.1c0.5-2.8,1-5.6,1.7-8.4c0.3-1.7,0.9-3.4,1.8-4.9
		c0.7-1.2,1.7-2.1,2.6-3.2c2.3-3.1,3.4-6.9,2.9-10.7c-2,0.3-4,0.8-5.9,1.6c-1.9,0.8-3.7,2-5.2,3.4c-1.2,1.3-2.3,2.7-3.3,4.1
		c-1.5,1.9-3,3.7-4.5,5.6C-1061.1-803.9-1062.8-801.7-1064.4-799.5z"/>
	<path id="Path_802" class="st19" d="M-1064.4-799.7c-1.6,2.1-3.2,4.5-2.8,7c0.3,1.4,0.9,2.7,1.6,3.9c0.7,1.8,1.2,3.6,1.6,5.5
		c0.6,2.7,1.2,5.4,1.5,8.2c0.4,3.1-1.5,12.1-1.7,15.3c0,0.8-0.2,1.5-0.7,2.1c-0.2,0.2-0.5,0.4-0.6,0.7c-0.1,0.3,0,0.6,0.1,0.8
		c1,2,2.6,3.5,4.7,4.3c2.9,0.9,6,1.5,9,1.7c0.3,0,0.6,0,0.8-0.1c0.3-0.2,0.5-0.4,0.7-0.8c1.6-3,0.1-13,0.1-16.3
		c0-2.8,0.7-5.6,0.6-8.4c-0.1-2.3-0.7-4.5-0.9-6.7c-0.2-3.7,0.1-7.4,1-11.1c0.5-2.8,1-5.6,1.7-8.4c0.3-1.7,0.9-3.4,1.8-4.9
		c0.7-1.2,1.7-2.1,2.6-3.2c2.3-3.1,3.4-6.9,2.9-10.7c-2,0.3-4,0.8-5.9,1.6c-1.9,0.8-3.7,2-5.2,3.4c-1.2,1.3-2.3,2.6-3.3,4.1
		c-1.5,1.9-3,3.8-4.5,5.6C-1061.1-804-1062.8-801.8-1064.4-799.7z"/>
	<circle id="Ellipse_18" class="st18" cx="-1081.7" cy="-853.9" r="8.7"/>
	<path id="Path_803" class="st18" d="M-1073.9-854.3c1.6,2.6,4.2,4.4,7.3,5.1l-0.7,2.4c-1.1,4.1-2.4,8.5-5.6,11.3
		c0.3-1.4,0-2.9-0.9-4.1c-0.8-1.2-1.8-2.2-3-3.1l-5-4.4c-0.2-0.1-0.3-0.2-0.4-0.4c-0.1-0.3-0.1-0.7,0-1c0.9-1.8,2.3-3.4,4-4.6
		c0.7-0.7,1.4-1.5,2-2.3C-1075.2-856.8-1074.5-855.4-1073.9-854.3z"/>
	<path id="Path_804" class="st21" d="M-1093.3-862.7l-0.2-1.6c1.4,0.4,2.7-0.8,3.6-2c0.9-1.2,1.7-2.6,3-3.1c1.7-0.3,3.5,0.1,4.9,1.2
		c1.7,1,3.7,1.6,5.6,1.8c0.3,0,0.6,0.1,0.9,0.2c1,0.6,1.6,1.6,1.6,2.8c0,1.2,0.2,2.3,0.6,3.4c0.4,0.8,1,1.4,1.4,2.1
		c1.1,2.1,0,4.9,1.2,6.9l-2.8-2.6c-0.3-0.2-0.6-0.5-0.9-0.3c-0.3,0.2-0.2,0.5-0.3,0.8c-0.3,0.7-1.2,1.1-1.9,0.8c0,0,0,0-0.1,0
		c-0.7-0.4-1.3-1-1.8-1.6c-1.2-1.5-2.7-2.7-4.5-3.4c-1.5-0.6-3.2-0.5-4.7,0.3c-1.3,0.7-2.3,2.5-3.9,2.5c-2.2,0.1-3.1-4-4.1-5.6
		c0.8-0.6,1-1.6,0.6-2.5C-1094.7-862.8-1093.3-863-1093.3-862.7z"/>
	<path id="Path_805" class="st20" d="M-1056.8-749.9c-1.7,1.5-4,2.4-6.3,2.3c-0.6,0-1.4,0.1-1.4,0.7c0,0.2,0.1,0.3,0.2,0.5
		c0.7,1.2,1.9,2.1,3.2,2.5c1.3,0.3,2.6,0.4,3.9,0.3l3.8-0.2c0.7,0,1.4-0.1,2.2-0.2c0.7-0.1,1.5-0.2,2.3-0.3c1.8-0.3,3.7-0.4,5.6-0.3
		c0.5,0.1,1-0.1,1.4-0.4c0.3-0.4,0.1-1,0-1.6c-0.2-1.1,0-2.3-0.2-3.4c-0.5-2-2-3.5-3.9-4.2c-1.7-0.7-4.8-1.4-6.4-0.3
		C-1054-753-1055.5-751.5-1056.8-749.9z"/>
	<path id="Path_806" class="st21" d="M-1053-815.5c0.3,1.6,1.9,2.8,1.9,4.5c-0.2,1.3-0.7,2.5-1.6,3.6c-0.6,1.2-1.2,2.4-1.6,3.7
		c-1.3,3.3-2.9,6.4-4.7,9.4c-1.1,1.3-1.7,3-1.7,4.7c0.1,0.8,0.4,1.5,0.8,2.2l2.7,5.4c0.6,1.1,1.1,2.2,1.4,3.4c0.2,1,0.3,2.1,0.4,3.1
		c0.4,3.3,2,6.6,1.1,9.8c-0.1,0.3-0.4,0.6-0.6,0.4c1,1.6,1.5,3.4,1.5,5.2c-0.2,1-0.2,2,0,2.9c0.2,0.4,0.3,0.8,0.4,1.2
		c0,0.3-0.1,0.5-0.2,0.8c0,0.8,0.6,1.4,1.3,1.6c0.7,0.2,1.5,0.2,2.2,0.4c1.3,0.6,2.6,1.5,3.6,2.5c1.2,0.8,2.7,1.3,4.1,1.4
		c0.2,0,0.4,0,0.6-0.1c0.2-0.2,0.3-0.5,0.3-0.7c0.1-1.4-0.4-2.7-1.5-3.6c-0.2-0.1-0.4-0.3-0.5-0.6c-0.1-0.2-0.1-0.4-0.1-0.6
		c0.2-3,0.2-5.9-0.2-8.9c-0.1-0.9-0.2-1.9-0.1-2.8c0.2-0.8,0.2-1.6,0.2-2.3c-0.2-0.8-0.4-1.5-0.7-2.2c-0.3-1.4-0.4-2.8-0.3-4.2
		c-0.2-2.4-0.6-4.8-1.2-7.2c-0.1-1-0.5-1.8-1.1-2.6c-0.6-0.6-1.5-1.1-1.3-1.9c0.1-0.3,0.3-0.5,0.5-0.8c0.5-0.7,0.8-1.5,0.6-2.3
		c0.5,0.1,1-0.1,1.2-0.6c4.5-2.2,7.9-6.1,9.5-10.8c0.1-0.3,0.2-0.7,0.4-1c0.5-0.5,1.1-0.9,1.7-1.1c1.9-1.1,3.5-2.7,4.6-4.7
		c0.8-1,1.4-2.2,1.8-3.4c0.2-0.8,0.3-1.6,0.2-2.4l0.1-4.2c0-0.3,0-0.5-0.1-0.8c-0.1-0.3-0.3-0.5-0.5-0.7c-1.2-1.3-2.8-2.1-4.5-2.4
		c-1.2-0.2-2.3-0.2-3.5-0.3c-2.2-0.4-4.5-0.7-6.8-0.7c-3.6,0.4-6.8,2.6-8.4,5.9C-1051.2-816.5-1051.8-815.5-1053-815.5z"/>
	<path id="Path_807" class="st8" d="M-1072.8-843c0.1,0.7,0,1.3-0.3,1.9c-0.2,0.6-0.9,1-1.6,0.8c0.2-0.4-0.3-0.9-0.8-0.8
		c-0.5,0.1-0.8,0.4-1,0.8c-0.3,0.6-0.4,1.3-0.3,2c0.3,0.8,0.5,1.6,0.5,2.4c-0.1,0.7-0.6,1.4-0.3,2c0.2,0.3,0.4,0.6,0.6,0.8
		c0.7,0.9,0.6,2.2-0.2,3l6.8,0.1c-0.1,1.2,0.2,2.4,0.8,3.3c3.3,5.6,9.1,9.4,15.6,10.1c-0.6,0.4-0.9,1.2-0.5,1.9
		c0,0.1,0.1,0.1,0.1,0.2c0.6,0.5,1.5,0.5,2.2,0.1c0.7-0.4,1.3-0.9,1.9-1.4c1.1-0.8,2.5-1.2,3.8-1c0.9,0.1,1.7,0.4,2.5,0.4
		c2.5,0.1,4.7-1.7,7.1-2.4c1.8-0.3,3.6-0.8,5.3-1.6c0.7-0.4,1.1-1.2,1-2c-0.2-0.4-0.4-0.9-0.7-1.2c-0.8-1.2-1.4-2.4-2-3.7
		c-1.2-2.5-2.9-4.7-4.9-6.6c-1.5-1.3-3.2-2.6-4.9-3.7c-0.4-0.3-0.9-0.6-1.3-0.8c-0.6-0.2-1.2-0.4-1.8-0.7c-0.7-0.6-1.4-1.3-1.9-2.1
		c-1.6-1.4-3.3-2.5-5.1-3.5c-1-1-2.2-1.7-3.4-2.3c-0.6-0.2-1.3-0.2-2-0.4c-1.5-0.4-2.5-1.8-4-2.3c-1.2-0.3-2.4-0.4-3.6-0.5
		c-1.3-0.2-2.6-0.6-3.7-1.4c-0.4-0.3-0.8-0.5-1.2-0.7c-1.8-0.6-2,2.8-2.1,4C-1072.4-846.6-1072.7-844.8-1072.8-843z"/>
	<path id="Path_808" class="st18" d="M-1071-831.6c0.3,3.3-2.2,6.5-1.5,9.8c0.2,0.7,0.5,1.4,0.6,2c0,2-0.7,3.9-2,5.4l-9.4,13.8
		c-0.4,0.6-0.8,1.2-1.3,1.7c-1.8,1.6-4.5,1.4-6.9,1.9c-1.7,0.3-3.2,1-4.6,2c-0.1,0.1-0.2,0.3-0.1,0.4c0.8,1.1,2.1,1.7,3.4,1.6
		c0.2,0.3,0,0.8-0.3,1c-0.5,0.4-1.2,0.4-1.3,1.3c0,0.3,0,0.6,0.2,0.9c0.4,0.6,1,1,1.7,1.1c3.2,1,6.8-0.8,9.2-3.1s4.2-5.4,6.6-7.8
		c1.3-1.3,2.8-2.5,4.2-3.8c2.6-2.7,5-5.7,6.9-8.9c0.7-0.9,1.2-1.9,1.5-3c0.3-1.1,0.1-2.2,0.4-3.3c0.5-1.4,1.3-2.6,2.3-3.7
		c1.8-2.3,2.7-5.1,2.6-8c-0.2-2.9-2-5.5-4.7-6.6c-0.8-0.3-1.7-0.4-2.6-0.2c-1.1,0.4-2,1.2-2.7,2.1l-1.8,2.1c-0.4,0.5-0.8,1-1,1.6
		c-0.2,0.6-0.1,1.3,0.4,1.8"/>
	<path id="Path_809" class="st8" d="M-1066.2-845.2c-1.3-0.1-2.5,0.3-3.5,1.1c-0.4,0.4-0.7,0.9-0.9,1.4c-1,1.7-1.6,3.5-1.7,5.5
		c0.1,1.5,0.3,3.1,0.6,4.6c0,1.3-0.1,2.6-0.4,3.8c1.7-0.5,3.4-1.1,5-1.9c0.9-0.6,1.9-1.1,2.9-1.5c1.9-0.2,3.7,0.1,5.4,1
		c0.1-1-0.7-2.7-0.6-3.7c0-0.4,0.1-0.8,0.2-1.2c0.2-0.4,0.5-0.8,0.7-1.2c1.1-1.8,0.9-4.1-0.4-5.7c-1.4-1.3-3.2-2.1-5.1-2.1
		c-1.2-0.1-2.4-0.2-3.5-0.1"/>
	
		<linearGradient id="Path_810_1_" gradientUnits="userSpaceOnUse" x1="-1457.162" y1="-612.5983" x2="-1457.162" y2="-610.6437" gradientTransform="matrix(33.3114 0 0 -39.6388 47257.5391 -25143.0215)">
		<stop  offset="0" style="stop-color:#808080;stop-opacity:0.251"/>
		<stop  offset="0.54" style="stop-color:#808080;stop-opacity:0.122"/>
		<stop  offset="1" style="stop-color:#808080;stop-opacity:0.102"/>
	</linearGradient>
	<path id="Path_810" class="st22" d="M-1250.1-873.6l-8-11.6c0-1.2-0.3-2.4-0.7-3.5c-0.5-0.7-0.1-2.2-0.1-2.2s0.6-0.8,0.1-0.9
		s-0.1-1.9-0.1-1.9l0-2.9c0.2-1.1,0.2-2.3,0.1-3.5c-0.2-0.4-0.2-0.8,0-1.2c0,0,0.4-1.6,0-2c-0.4-1.6-0.5-3.3-0.2-4.9
		c0-1.2-0.3-2.3-0.8-3.4c0-0.3-3-3.2-3-3.5c-0.9-0.8-1.9-1.3-3-1.6c-1.1-0.3-1.7-0.5-1.6-0.7s-1.8-0.7-1.8-0.7
		c-0.8,0-1.6-0.4-2.2-0.9c-0.6-0.8-2.4-1-2.5-1l0-0.2c0-0.1,0-0.1,0-0.2c0.1-0.2,0.3-0.5,0.4-0.7l0.1-0.2c0.7,0,1.3-0.2,1.8-0.6
		c0.5-0.4,0.9-1.1,0.9-1.8c0-0.7-0.1-1.4-0.4-2c-0.4-0.6-0.7-1.3-0.6-2.1c0.1-0.3,0.3-0.6,0.4-0.9c0.1-0.6,0-1.2-0.3-1.8
		c-0.3-0.5-0.7-1-1-1.5c-0.4-0.7-0.7-1.4-0.8-2.2c0-0.4-0.1-0.8-0.3-1.2c-0.2-0.3-0.4-0.5-0.7-0.7c-1.2-0.8-2.6-1.3-4-1.2
		c-1,0.1-2,0.2-3,0.2c-0.6-0.1-1.2-0.3-1.8-0.5c-1.2-0.5-2.6-0.4-3.8,0.2c-1.1,0.7-1.5,2.1-2.3,3.2c-0.8,0.9-1.5,1.8-2.1,2.8v-0.1
		c-0.1,0.2-0.2,0.5-0.3,0.8c-0.1,0.8-0.1,1.7,0.2,2.5c0.1,0.4,0.3,0.8,0.6,1.1c0.4,0.2,0.9,0.3,1.3,0.3l0,0.2
		c-0.9,4.3,1.7,8.7,5.9,9.9v0.2c0,0.2,0,0.4,0,0.6l0,0c-1.6-0.4-3.2-0.5-4.8-0.3c-1,0.5-3,0.9-3.3,1.2s-1,0.1-1.7,1.8
		c-0.7,1.8-0.7,3.5-1.6,4.4c-0.9,0.8-1.3,1.4-1.3,2s0.1,0.7-0.2,0.9c-0.3,0.2-0.8,1-0.7,1.3c0.1,0.4-0.1,0.9-0.4,1.1
		c-0.4,0.3-0.6,0.7-0.5,1.1c0,0-0.2,0.8-0.8,1c-0.5,0.2-0.9,1.4-0.9,1.4l-1.7,2l-3.4-3.7c-0.5-0.6-1.4-0.6-2-0.1l-1.7,1.5
		c-0.6,0.2-1.2,0.5-1.7,1c-0.4,0.4-0.6,0.8-0.9,1.3l-0.9,0.8c-0.6,0.7-0.7,1.7-0.2,2.5l2.2,2.4v0c-0.8,0.1-1.5,0.4-2.1,0.8
		c-3.2,2.8-3.2,5.5-2.8,6.6c1.4,2,2.9,4,4.6,5.8c1.6,2,3.6,3.6,5.8,4.7l0,0l0,0c-0.1,0.1-0.1,0.2-0.2,0.2l-0.1,0.1l-0.1,0.1
		l-0.1,0.1c0,0,0,0,0,0.1l-0.1,0.1c0,0,0,0,0,0.1c0,0-0.1,0.1-0.1,0.1c0,0,0,0,0,0c0,0.1-0.1,0.1-0.1,0.2l0,0.1c0,0,0,0.1-0.1,0.2
		c0,0,0,0.1,0,0.1l0,0.1c0,0,0,0.1,0,0.1c0,0.1,0,0.1,0,0.2c0,0.1,0,0.1,0,0.1c0,0,0,0.2-0.1,0.3c0,0,0,0.1,0,0.1c0,0.1,0,0.1,0,0.2
		c0,0,0,0.1,0,0.1l0,0.2v0.1c0,0.1,0,0.1,0,0.2c0,0.1,0,0.1,0,0.1v0.4c-0.1,1.7-0.1,3.3,0.2,5c0.3,0.8,1.1,1.4,2,1.5
		c0.2,0,0.4,0,0.6,0c2.7-0.6,5.4-0.8,8.1-0.8c1.4,0.1,2.7,0,4-0.3l0.3-0.1l0.2,0.7l0.7-0.2l0.6,0.4l0.4,0.2c0.7,2.5,3.7,1.6,3.7,1.6
		l0.7,0.4l7.2,0.2c0.8,0.5,1.7,0.9,2.6,1.2c0.1,0,0.2,0.1,0.4,0.1c0.7,0.1,1.4,0.1,2,0c0.6,0,1,0,1,0s-0.1-2-0.2-4.2
		c2.2-0.1,4.5-0.2,6.7-0.5c3-0.7,5.3-3.1,6.1-6.1c0.2,0.8,0.3,1.5,0.4,2.3c0.2,0.7,0.4,1.4,0.6,2c0.2,0.5,0.5,1,0.8,1.5
		c2.8-1,1.1-2.4,0.5-3.1c-0.6-0.6,0.4-1.2,0.4-1.2s0.8-0.5,0.7-1s-0.1-1,2.4-1S-1250.1-873.6-1250.1-873.6z M-1289.6-897.4
		c0.1,1.1,0.4,2.1,0.7,3.1c0.1,0.4,0.1,0.8,0.1,1.2c-1.5-0.1-3.1-0.2-3.1-0.2c0,0.1,0.1,0.1,0.1,0.2l-0.2-0.1l-0.3-0.1
		L-1289.6-897.4L-1289.6-897.4z M-1295.1-888.7l2.6,0.4l0.2,0c-0.1,0.4-0.1,0.8-0.1,1.2c0,0,0.1,0.1,0.1,0.1c0,0.2-0.1,0.4,0,0.6
		c0.8,0.5,1.7,0.9,2.7,1c0,0.1,0,0.2-0.1,0.2l0,0c-1.2-0.6-3.2-1-3.4-1.4c-2.2-1.1-4.5-2-6.8-2.8l-0.7-0.3l1.7,0.3l0.5,0
		C-1297.3-889-1296.2-888.8-1295.1-888.7L-1295.1-888.7z"/>
	<path id="Path_811" class="st23" d="M-1258.6-872c0,0-1,6.3-6.3,7.2c-5.3,0.9-22.8,0.7-22.8,0.7s-10-1.4-13.7-9.9
		c-3.6-8.5-6-11.9-2.8-12c3.1-0.1,19.9,5.7,20.9,5.7C-1282.4-880.2-1257.7-893.1-1258.6-872z"/>
	<path id="Path_812" class="st19" d="M-1258.6-872c0,0-1,6.3-6.3,7.2c-5.3,0.9-22.8,0.7-22.8,0.7s-10-1.4-13.7-9.9
		c-3.6-8.5-6-11.9-2.8-12c3.1-0.1,19.9,5.7,20.9,5.7C-1282.4-880.2-1257.7-893.1-1258.6-872z"/>
	<path id="Path_813" class="st20" d="M-1305.7-865c0.3,0.8,1.1,1.4,2,1.5c0.2,0,0.4,0,0.6,0c2.6-0.6,5.3-0.8,8-0.8
		c1.3,0.1,2.7,0,4-0.3c0.8-0.2,1.5-0.3,1.5-0.3s-1.5-4.9-1.7-5.1c-0.2-0.2-6.7-4.1-6.7-4.1l-5.1-0.4l0,0c-0.7,0.1-1.3,0.5-1.7,1
		c-0.7,1-1.1,2.2-1,3.5C-1306-868.3-1306-866.7-1305.7-865z"/>
	<path id="Path_814" class="st19" d="M-1305.7-865c0.3,0.8,1.1,1.4,2,1.5c-0.5-0.6-1-1.3-1.4-2l0-3.6c-0.2-2,0.5-4,2-5.3l0,0
		c0,0-2.7,0.2-2.8,4.5C-1306-868.3-1306-866.6-1305.7-865z"/>
	<path id="Path_815" class="st24" d="M-1283.4-872.9l4.8-3.7l7.5-7.4l-2-0.1c-0.3,0.2-1.2,0.8-1.2,1.5c0,0.9-2,0.1-3.1,0.6
		c-1,0.5-6.1,7-7,7c-0.9,0-1.6-0.4-2,0.2l0,0L-1283.4-872.9z"/>
	<path id="Path_816" class="st24" d="M-1304.9-873.5c0.2,0.1,0.3,0.2,0.5,0.2c3.1,1.4,5.9,3.2,8.5,5.4c1.5,1.2,3.1,2.2,4.8,3.1
		c0.8-0.2,1.5-0.3,1.5-0.3s-1.5-4.9-1.7-5.1c-0.2-0.2-6.7-4.1-6.7-4.1l-5.1-0.4l0,0C-1303.8-874.4-1304.4-874-1304.9-873.5
		L-1304.9-873.5z"/>
	<path id="Path_817" class="st23" d="M-1314.9-884.1c1.4,2,2.9,3.9,4.5,5.7c1.7,2.1,3.8,3.7,6.2,4.9c3.1,1.4,5.9,3.2,8.4,5.4
		c1.6,1.2,3.3,2.4,5.2,3.3l0.5,0.3l1,0.6l0.5,0.3c0,0,1.2-1,2.5-2c1.2-1,2.4-2,2.4-2c0,0,0.5-1.4,0.4-1.4c-0.1-0.1-0.3-0.6-0.8-1.1
		c-0.5-0.7-1.1-1.2-1.9-1.6c-1.1-0.6-1.9-1.5-2.4-2.6c0,0-0.2-0.1-0.4-0.3c-0.5-0.3-1.1-0.6-1.7-0.7c-0.8-0.1-2.3-1.8-2.3-1.8
		c-0.6-0.4-1.1-0.9-1.4-1.5c-2.1-1.9-4.3-3.6-6.7-5.1l13.9,9l3.3,2.2l4.8-3.7l7.5-7.4l-2.5-0.1c-3.7-0.2-10.1-0.4-11-0.2
		c-0.7,0.2-1.3,0.2-2,0.1c-1.1,0-2.1-0.2-3.1-0.6c-1.2-0.6-3.2-0.9-3.4-1.4c-2.2-1.1-4.5-2-6.8-2.8c0,0-8.9-4.7-12.1-1.9
		C-1315.4-887.9-1315.4-885.3-1314.9-884.1z"/>
	<path id="Path_818" class="st25" d="M-1286.1-911.3l1.1,3.8l1.5,8.6l5.5,0.4l1.6-2.6l1.6-2.6c0,0,1-3.5,1.7-6.8
		c0.6-3,1-5.9,0.4-6.2c-0.6-0.3-1-1.3-1.3-2.4c0-0.1-0.1-0.3-0.1-0.4c-0.2-0.9-0.3-1.8-0.4-2.8c0,0-11.4-0.6-9.8,4.1
		c0.3,0.8,0.4,1.7,0.4,2.5c0,0.2,0,0.4,0,0.6C-1284.2-913.5-1284.9-912.2-1286.1-911.3z"/>
	<path id="Path_819" class="st26" d="M-1288.5-911.9l0.4,6.5l0.9,5.5l1,2.6l0.9,14c0,0,8.9,1,11.1,0c0.2-0.1,0.3-0.2,0.4-0.3
		c2.6-4,1.8-15.4,1.8-15.4l1-7.4l-0.7-3.8l-1.6-0.2l-1.2-0.1c0,0-0.3,0.3-0.7,0.9c-1.1,1.4-3.1,4.3-3,5.5c0.2,1.6-0.2,3.3-0.9,3.6
		c-0.6,0.3-1.1,0.7-1.3,0.3c-0.2-0.4-0.2-0.8-0.1-1.2c0-0.9-0.2-1.7-0.5-2.6c-0.5-1-0.8-2.1-0.9-3.2c0.1-0.8,0-1.6-0.4-2.3
		c-0.3-0.3-0.7-0.5-0.4-1.7s-1.5-3.5-1.5-3.5L-1288.5-911.9z"/>
	<path id="Path_820" class="st24" d="M-1276.7-895.7l0.4,11.1l2.1,1.2c0.2-0.1,0.3-0.2,0.4-0.3c2.6-4,1.8-15.4,1.8-15.4l1-7.4
		l-0.7-3.8l-1.6-0.2c0.6-3,1-5.9,0.4-6.2c-0.6-0.3-1-1.3-1.3-2.3l0,0l-1.2,7.8c0,0,0.1,0.7,0.1,1.4c0,0.5,0,0.9-0.1,1.4
		c-0.1,0.6-0.2,1.2-0.1,1.9c-0.7,1.7-1.1,3.6-1.2,5.5C-1276.8-898.4-1276.7-895.7-1276.7-895.7z"/>
	<path id="Path_821" class="st20" d="M-1274.2-919.4c0,0,1.9,0.2,2.5,1c0.6,0.5,1.4,0.8,2.2,0.9c0,0,1.8,0.6,1.7,0.7
		c0,0.2,0.5,0.4,1.6,0.7c1.1,0.3,2.1,0.9,3,1.6c0,0.3,2.9,3.1,2.9,3.4c0.5,1,0.8,2.2,0.8,3.4c-0.3,1.6-0.2,3.3,0.2,4.9
		c0.4,0.4,0,2,0,2c-0.2,0.4-0.3,0.8,0,1.2c0.2,1.1,0.1,2.3-0.1,3.4l0,2.9c0,0-0.4,1.8,0.1,1.9s-0.1,0.9-0.1,0.9s-0.4,1.5,0.1,2.2
		c0.4,1.1,0.6,2.3,0.7,3.5l7.9,11.5c0,0,0.1,2.1-2.4,2.1s-2.5,0.5-2.4,1c0.1,0.5-0.7,1-0.7,1s-1,0.5-0.4,1.1c0.6,0.6,2.3,2.1-0.5,3
		c-0.3-0.5-0.6-1-0.8-1.5c-0.2-0.7-0.4-1.3-0.6-2c0,0-0.3-2.8-0.8-3.2c-0.5-0.4-0.4-2.2-0.4-2.2s0.7-1.4-0.3-2
		c-1-0.6-16.1-8.9-16.1-8.9l-0.4-11.1c0,0-0.3-8.2,1.3-10.9c-0.1-0.6-0.1-1.2,0.1-1.9c0.1-0.9,0.1-1.9,0-2.8L-1274.2-919.4z"/>
	<path id="Path_822" class="st24" d="M-1283.9-914.9c-1.5-0.4-3.2-0.5-4.7-0.2c-1,0.5-3,0.9-3.2,1.2s-1,0.1-1.7,1.8
		c-0.7,1.7-0.7,3.5-1.6,4.3c-0.9,0.8-1.3,1.4-1.3,2c0,0.6,0.1,0.7-0.2,0.9c-0.3,0.2-0.8,1-0.7,1.3c0.1,0.3,7.7,6.8,7.7,6.8
		c0.1,1.1,0.4,2.1,0.7,3.1c0.3,0.6-0.4,9.3-1.1,9.9c-0.7,0.6,5,0.5,5,0.5s0.3-5.7,0.5-6c0.1-2.1,0-4.3-0.2-6.4
		c-0.1-2.2,0.1-4.4,0.4-6.6c0.3-2,0.5-3.9,0.4-5.9c0.2-1.2,0.5-2.3,0.9-3.4C-1282.5-912.1-1283.9-914.9-1283.9-914.9z"/>
	<path id="Path_823" class="st20" d="M-1284-915c-1.5-0.4-3.2-0.5-4.7-0.3c-1,0.5-3,0.9-3.2,1.2c-0.3,0.3-1,0.1-1.7,1.8
		c-0.7,1.7-0.7,3.5-1.6,4.3c-0.9,0.8-1.3,1.4-1.3,2c0,0.6,0.1,0.7-0.2,0.9c-0.3,0.2-0.8,1-0.7,1.3c0.1,0.3,7.7,6.8,7.7,6.8
		c0.1,1.1,0.4,2.1,0.7,3.1c0.3,0.6-0.4,9.3-1.1,9.9c-0.7,0.6,5,0.5,5,0.5s0.3-5.7,0.5-6c0.1-2.1,0-4.3-0.1-6.4
		c-0.1-2.2,0.1-4.4,0.4-6.6c0.3-2,0.5-3.9,0.4-5.9c0.2-1.2,0.5-2.3,0.9-3.4C-1282.5-912.3-1284-915-1284-915z"/>
	<path id="Path_824" class="st24" d="M-1284.4-918.2c0.3,0.8,0.4,1.7,0.4,2.5c3.7,1.1,7.8-0.5,9.7-3.9c-0.2-0.9-0.3-1.8-0.4-2.8
		C-1274.6-922.3-1286-922.9-1284.4-918.2z"/>
	<path id="Path_825" class="st25" d="M-1290-924c0,4.7,3.7,8.5,8.4,8.5c4.7,0,8.5-3.7,8.5-8.4c0-4.7-3.7-8.5-8.4-8.5
		c-4,0-7.5,2.8-8.4,6.7C-1290-925.2-1290-924.6-1290-924z"/>
	<path id="Path_826" class="st20" d="M-1295.5-904.4l-2,0.6c0.1,0.4-0.1,0.9-0.4,1.1c-0.4,0.3-0.6,0.7-0.5,1.1c0,0-0.2,0.8-0.7,1
		s-0.9,1.4-0.9,1.4l-1.7,2c0,0-0.6,0.5-0.5,0.8s-0.7,0.3-0.7,0.3l0.4,6.6l3.5,0.7l2.2-0.2l1.8-0.7l1.6-0.9l0.7-1.8l3.1-4.7
		L-1295.5-904.4z"/>
	<path id="Path_827" class="st25" d="M-1302.4-895.5c0,0-4.5-6.5-7.9-3c-3.4,3.5,1.4,9.2,2.5,9c1.1-0.2,6.4-0.5,6.4-0.5
		L-1302.4-895.5z"/>
	<path id="Rectangle_44" class="st20" d="M-1309.6-907.5l15.7,8c1.5,0.8,2.1,2.6,1.3,4l-5.6,11c-0.8,1.5-2.6,2.1-4,1.3l-15.7-8
		c-1.5-0.8-2.1-2.6-1.3-4l5.6-11C-1312.9-907.6-1311.1-908.2-1309.6-907.5z"/>
	
		<rect id="Rectangle_45" x="-1313.4" y="-905.2" transform="matrix(0.4546 -0.8907 0.8907 0.4546 85.2 -1651.42)" class="st8" width="15" height="19.9"/>
	<circle id="Ellipse_19" class="st27" cx="-1315.4" cy="-900.2" r="0.3"/>
	<circle id="Ellipse_20" class="st27" cx="-1296.3" cy="-890.3" r="0.5"/>
	<path id="Path_828" class="st25" d="M-1305.3-894.1c0,4.9,10.1,5.9,10.1,5.9l2.6,0.4l1.2,0.2l0.5-4.8c0,0-0.5-0.1-1.2-0.2
		c-1-0.2-2.3-0.6-2.5-1.2C-1295.2-894.7-1305.3-899-1305.3-894.1z"/>
	<path id="Path_829" class="st24" d="M-1289.8-925.8c0.2,0,0.5,0.1,0.6,0.3c0.3,0.3,0.3,0.8,0.7,1c0.1,0.1,0.3,0.1,0.4,0
		c1-0.1,1.6-1.3,2.5-1.6c0.6-0.1,1.1-0.1,1.7,0.1c0.2,0.1,0.4,0.2,0.6,0.4c0.3,0.4,0.1,1,0.2,1.5c0.2,0.7,1,1,1.7,1.1
		c0.7,0,1.4,0.2,2,0.7c0.3,0.4,0.4,0.9,0.4,1.4c0,0.2,0,0.4,0,0.5c0.2,0.6,1.2,0.5,1.4,0c0.2-0.3,0.1-0.6,0.6-0.7
		c0.3,0,0.6,0,0.9,0.2c0.8,0.3,1.5,0.4,2.3,0.4c2-4.2,0.2-9.3-4.1-11.3c-4.2-2-9.3-0.2-11.3,4.1
		C-1289.5-927-1289.7-926.4-1289.8-925.8L-1289.8-925.8z"/>
	<path id="Path_830" class="st20" d="M-1279.1-920.5c0-0.2,0-0.4,0-0.5c0.1-0.5,0-1-0.4-1.4c-0.6-0.5-1.3-0.7-2-0.7
		c-0.7-0.1-1.5-0.4-1.7-1.1c-0.1-0.5,0.1-1.1-0.2-1.5c-0.1-0.2-0.3-0.3-0.6-0.4c-0.5-0.2-1.1-0.3-1.7-0.1c-0.9,0.3-1.5,1.4-2.5,1.6
		c-0.1,0-0.3,0-0.4,0c-0.4-0.2-0.4-0.7-0.7-1c-0.4-0.5-1.3-0.2-1.9-0.5c-0.3-0.3-0.5-0.7-0.6-1.1c-0.2-0.8-0.3-1.6-0.2-2.5
		c0.3-1.4,1.6-2.3,2.3-3.5c0.7-1.1,1.1-2.5,2.2-3.2c1.2-0.6,2.5-0.7,3.8-0.2c0.6,0.2,1.2,0.4,1.8,0.5c1,0,2,0,3-0.2
		c1.4,0,2.8,0.4,4,1.2c0.3,0.2,0.5,0.4,0.6,0.7c0.2,0.4,0.3,0.8,0.3,1.2c0.1,0.8,0.4,1.5,0.8,2.2c0.3,0.5,0.7,1,1,1.5
		c0.3,0.5,0.4,1.2,0.3,1.8c-0.1,0.3-0.3,0.6-0.4,0.9c0,0.7,0.2,1.5,0.6,2.1c0.3,0.6,0.5,1.3,0.4,2c0,0.7-0.4,1.3-0.9,1.8
		c-0.6,0.4-1.2,0.6-1.9,0.6c-0.8,0-1.6-0.1-2.4-0.4c-0.3-0.1-0.6-0.2-0.9-0.2c-0.4,0.1-0.4,0.4-0.6,0.7
		C-1277.9-920-1278.9-920-1279.1-920.5z"/>
	<path id="Path_831" class="st24" d="M-1283.7-872.6l4.8-3.7l7.5-7.4l-2.5-0.1c-0.3,0.3-0.5,0.6-0.5,1c0,0.9-2,0.1-3.1,0.6
		c-1,0.5-6.1,7-7,7c-0.9,0-1.6-0.4-2,0.2l0,0c-0.1,0.2-0.3,0.3-0.6,0.3L-1283.7-872.6z"/>
	<path id="Path_832" class="st23" d="M-1293.3-872.9l2.4,7.7l0.4,1.2l1.1-0.3l2.5-0.7l11.2-3.1c1.4-0.1,2.8-0.4,4.1-1.1
		c2.1-1.2,4.6-1.7,7-1.5c1.5,0.1,3.1-0.5,4.5-3c0,0,3.1-9.2-4.7-11.8c-7.9-2.6-8.2,1.4-8.2,1.4l-0.1,0.1c-0.3,0.2-1.2,0.8-1.2,1.5
		c0,0.9-2,0.1-3.1,0.6s-6.1,7-7,7s-1.6-0.4-2,0.2l0,0c-0.3,0.4-1.1,0.5-1.6,0.5c-0.2,0-0.3,0-0.5,0l-0.1,0l-0.6,0.2L-1293.3-872.9z"
		/>
	<path id="Path_833" class="st24" d="M-1292.7-887.8l1.2,0.2l0.5-4.8c0,0-0.5-0.1-1.2-0.2C-1292.2-891-1292.4-889.4-1292.7-887.8z"
		/>
	<path id="Path_834" class="st24" d="M-1262.4-910.2c0,0,3.4-1,2.6,8.8c-0.6,6-3.1,11.6-7.2,16c0,0-7.3,3.2-10.6,2.7
		c-3.3-0.5-5.7-0.6-5.7-0.6c-1-0.5-2.2-0.8-3.3-0.9c-2-0.1-4-0.7-5.8-1.6c-0.1-0.4,1-5.8,0.5-6.2c1.9,0,3.8,0.2,5.7,0.6
		c0.5,0.4,1.3,0.1,1.8,0c1.7-1,3.8-1.1,5.6-0.3c0.5,0.1,1.1,0,1.6-0.2c0.4-0.2,0.8-0.2,1.2-0.1c0.3-0.1,0.6-0.2,0.8-0.4
		c0.1-0.1,1,0,1,0c0.2,0.1,0.4,0,0.5-0.2c0,0,0,0,0-0.1c0.1-0.3,0.3-0.6,0.5-0.8c0,0,1-5.6,2.9-7.7c0.3-0.3,0.5-0.7,0.4-1.1
		C-1270-902.9-1266.8-911.3-1262.4-910.2z"/>
	<path id="Path_835" class="st20" d="M-1262.5-910.9c0,0,3.4-1,2.6,8.8c-0.6,6-3.1,11.6-7.2,16c0,0-7.3,3.2-10.6,2.7
		s-5.7-0.6-5.7-0.6c-1-0.5-2.2-0.8-3.3-0.9c-2-0.1-4-0.7-5.8-1.6c-0.1-0.4,1-5.8,0.5-6.2c1.9,0,3.8,0.2,5.7,0.6
		c0.5,0.4,1.3,0.1,1.8,0c1.7-1,3.8-1.1,5.6-0.3c0.5,0.1,1.1,0,1.6-0.2c0.4-0.2,0.8-0.2,1.2-0.1c0.3-0.1,0.6-0.2,0.8-0.4
		c0.1-0.2,1,0,1,0c0.2,0.1,0.4,0,0.5-0.2c0,0,0,0,0-0.1c0.1-0.3,0.3-0.6,0.5-0.8c0,0,1-5.6,2.9-7.7c0.3-0.3,0.5-0.7,0.4-1.1
		C-1270.1-903.6-1266.9-912.1-1262.5-910.9z"/>
	<path id="Path_836" class="st24" d="M-1289.2-874.1l4.9,5.9l0,0c0-0.1,0.5-1.4,0.4-1.4c-0.6-1.1-1.5-2.1-2.7-2.7
		c-0.9-0.4-1.6-1.1-2.1-1.9L-1289.2-874.1z"/>
	<path id="Path_837" class="st24" d="M-1289.2-863.9l0.5,0.3c0,0,1.2-1,2.5-2c1.2-1,2.4-2,2.4-2s0.5-1.4,0.4-1.4
		c-0.1-0.1-0.3-0.6-0.8-1.1c-3.3-0.9-1.2,1.4-0.9,1.5c-1.8-0.5-3.7,0.6-4.1,2.4c-0.1,0.4-0.1,0.7-0.1,1.1
		C-1289.3-864.8-1289.3-864.3-1289.2-863.9z"/>
	<path id="Path_838" class="st20" d="M-1285.1-862l0.7,0.4l7.2,0.2c0.8,0.5,1.7,0.9,2.5,1.2c0.1,0,0.2,0.1,0.4,0.1
		c0.7,0.1,1.3,0.1,2,0c0.5,0,1,0,1,0s-0.3-9-0.6-10c-0.1-0.5-0.7-0.4-1.3-0.1c-0.4,0.2-0.9,0.4-1.3,0.6c-1.2,0.1-2.4,0.3-3.5,0.6
		c-0.5,0.3-1.9-0.2-2.7,0s-2.4-1-2.4-1c-4.2-1.4-1.8,1.2-1.5,1.3c-1.8-0.5-3.7,0.6-4.2,2.4c-0.1,0.4-0.1,0.7-0.1,1.1
		c-0.3,1.6,0.7,3.1,2.3,3.4C-1286.1-861.8-1285.6-861.8-1285.1-862z"/>
	<path id="Path_839" class="st28" d="M-1274.7-865.5c0.3,2,1.2,3.8,2.4,5.4c0.5,0,1,0,1,0s-0.3-9-0.6-10c-0.1-0.5-0.7-0.4-1.3-0.1
		C-1274.1-868.8-1274.6-867.2-1274.7-865.5z"/>
	<path id="Path_840" class="st24" d="M-1274.7-865.5c0.3,2,1.2,3.8,2.4,5.4c0.5,0,1,0,1,0s-0.3-9-0.6-10c-0.1-0.5-0.7-0.4-1.3-0.1
		C-1274.1-868.8-1274.6-867.2-1274.7-865.5z"/>
	<path id="Path_841" class="st19" d="M-1275.9-865.2c0.2,1.7,0.6,3.4,1.3,5c0.1,0,0.2,0.1,0.4,0.1c0.7,0.1,1.3,0.1,2,0
		c0.5,0,1,0,1,0s-0.3-9-0.6-10c-0.1-0.5-0.7-0.4-1.3-0.1c-0.4,0.2-0.9,0.4-1.3,0.6C-1275.7-868.4-1276.2-866.8-1275.9-865.2z"/>
	<path id="Path_842" class="st24" d="M-1300.6-883.5c2.7,1.1,4.9,2.9,6.6,5.3L-1300.6-883.5z"/>
	<g id="Group_348" transform="translate(58.72 52.346)" class="st29">
		<path id="Path_843" d="M-1330.5-980.4C-1330.5-980.3-1330.5-980.3-1330.5-980.4c-0.1,0.2-0.1,0.3-0.1,0.4
			C-1330.6-980.1-1330.5-980.2-1330.5-980.4z"/>
		<path id="Path_844" d="M-1350.6-982.2c0.1-0.3,0.2-0.5,0.3-0.7c0,0.1,0,0.1-0.1,0.2c-0.1,0.8-0.1,1.7,0.2,2.5
			c0.1,0.4,0.3,0.8,0.6,1.1c0.6,0.4,1.4,0,1.9,0.5c0.3,0.3,0.3,0.8,0.7,1c0.1,0.1,0.3,0.1,0.4,0c1-0.1,1.6-1.3,2.5-1.6
			c0.6-0.1,1.1-0.1,1.7,0.1c0.2,0.1,0.4,0.2,0.6,0.4c0.3,0.4,0.1,1,0.2,1.5c0.2,0.7,1,1,1.7,1.1c0.7,0,1.4,0.2,2,0.7
			c0.3,0.4,0.4,0.9,0.4,1.4c0,0.2,0,0.4,0,0.5c0.2,0.6,1.2,0.5,1.4,0c0.2-0.3,0.1-0.6,0.6-0.7c0.3,0,0.6,0,0.9,0.2
			c0.8,0.3,1.6,0.4,2.4,0.4c0.7,0,1.3-0.2,1.9-0.6c0.2-0.2,0.4-0.4,0.6-0.7c-0.1,0.5-0.4,0.9-0.8,1.3c-0.6,0.4-1.2,0.6-1.9,0.6
			c-0.8,0-1.6-0.1-2.4-0.4c-0.3-0.1-0.6-0.2-0.9-0.2c-0.4,0.1-0.4,0.4-0.6,0.7c-0.3,0.4-1.2,0.5-1.4,0c0-0.2,0-0.4,0-0.5
			c0.1-0.5,0-1-0.4-1.4c-0.6-0.5-1.3-0.7-2-0.7c-0.7-0.1-1.5-0.4-1.7-1.1c-0.1-0.5,0.1-1.1-0.2-1.5c-0.1-0.2-0.3-0.3-0.5-0.4
			c-0.5-0.2-1.1-0.3-1.7-0.1c-0.9,0.3-1.5,1.4-2.5,1.6c-0.1,0-0.3,0-0.4,0c-0.4-0.2-0.4-0.7-0.7-1c-0.4-0.5-1.3-0.2-1.9-0.5
			c-0.3-0.3-0.5-0.7-0.6-1.1C-1350.7-980.5-1350.7-981.3-1350.6-982.2z"/>
	</g>
	<path id="Path_845" class="st24" d="M-1271.2-900.1c-0.7,0.9-1.5,1.8-2.1,2.7c-0.7,1-1,2.1-0.9,3.2c0.6-0.7,1-1.5,1.3-2.3
		c0.7-1.3,1.6-2.6,2.5-3.7c0.2-0.2,1.2-1.6,0.7-1.7C-1270.1-902-1270.9-900.5-1271.2-900.1z"/>
	<path id="Path_846" class="st30" d="M-1267.5-813.3c0.5,1.6,1,3.2,1.6,4.7c1.1,2.7,2.5,5.2,4.1,7.6c1.1,1.6,2.2,3.1,3.4,4.5
		c1.7,1.6,3,3.7,3.8,5.9c0.2,1.3,0.3,2.7,0.3,4.1c0,1.4,0.6,2.7,1.7,3.6c0.8,0.5,1.8,0.8,2.7,0.9c0.7,0.1,1.6,0.1,1.9-0.4
		c0.1-0.2,0.2-0.5,0.2-0.8l0.2-2c0-0.4,0.2-1,0.6-1s0.6,0.6,1,0.8c0.5,0.3,1.2,0,1.5-0.5c0,0,0,0,0,0c0.2-0.6,0.2-1.2,0-1.7
		c-0.6-2.3-2.1-4.2-4.2-5.3c-0.7-0.3-1.4-0.7-2.1-1.1c-0.7-0.6-1.2-1.3-1.6-2.1c-3.9-6.1-7.4-12.5-10.2-19.2
		c-0.5-1.2-0.9-2.5-1.1-3.8c-0.1-1.3,0-2.7,0.2-4c0.2-2.4-0.1-4.8-0.7-7.1c-0.1-0.6-0.4-1.2-0.7-1.7c-1.3-1.6-3.6-2-5.3-0.8
		c-1.2,0.9-2,2.3-2.1,3.8c0.1,1.4,0.5,2.7,1.1,4C-1269.9-821-1268.7-817.2-1267.5-813.3z"/>
	<path id="Path_847" class="st19" d="M-1267.5-813.3c0.5,1.6,1,3.2,1.6,4.7c1.1,2.7,2.5,5.2,4.1,7.6c1.1,1.6,2.2,3.1,3.4,4.5
		c1.7,1.6,3,3.7,3.8,5.9c0.2,1.3,0.3,2.7,0.3,4.1c0,1.4,0.6,2.7,1.7,3.6c0.8,0.5,1.8,0.8,2.7,0.9c0.7,0.1,1.6,0.1,1.9-0.4
		c0.1-0.2,0.2-0.5,0.2-0.8l0.2-2c0-0.4,0.2-1,0.6-1s0.6,0.6,1,0.8c0.5,0.3,1.2,0,1.5-0.5c0,0,0,0,0,0c0.2-0.6,0.2-1.2,0-1.7
		c-0.6-2.3-2.1-4.2-4.2-5.3c-0.7-0.3-1.4-0.7-2.1-1.1c-0.7-0.6-1.2-1.3-1.6-2.1c-3.9-6.1-7.4-12.5-10.2-19.2
		c-0.5-1.2-0.9-2.5-1.1-3.8c-0.1-1.3,0-2.7,0.2-4c0.2-2.4-0.1-4.8-0.7-7.1c-0.1-0.6-0.4-1.2-0.7-1.7c-1.3-1.6-3.6-2-5.3-0.8
		c-1.2,0.9-2,2.3-2.1,3.8c0.1,1.4,0.5,2.7,1.1,4C-1269.9-821-1268.7-817.2-1267.5-813.3z"/>
	<path id="Path_848" class="st31" d="M-1291.2-747c0.7,0.3,1.5,0.3,2.3,0.3c0.1-0.6,0.9-0.8,1.5-0.7c0.3,0,0.6,0.1,0.9,0.2
		c0.2,0.1,0.3,0.2,0.4,0.4c0.3,0.2,0.6,0.2,0.9,0.2l3.3,0.3c1.5,0.2,3,0.1,4.4-0.3c0.3-0.1,0.5-0.3,0.7-0.5c0.4-0.5,0-1.3-0.5-1.7
		s-1.2-0.6-1.7-1c-1.1-0.9-1.3-2.5-1.9-3.8c-0.4-0.8-1-1.6-1.6-2.3c-0.5-0.6-1-1.1-1.6-1.6c-1.3-0.8-2.9-1.1-4.4-1.1
		c-1-0.3-2.2,0-2.9,0.8c-1,1.2-0.6,3.7-0.5,5.1C-1291.8-750.8-1291.6-748.9-1291.2-747z"/>
	<path id="Path_849" class="st19" d="M-1291.2-747c0.7,0.3,1.5,0.3,2.3,0.3c0.1-0.6,0.9-0.8,1.5-0.7c0.3,0,0.6,0.1,0.9,0.2
		c0.2,0.1,0.3,0.2,0.4,0.4c0.3,0.2,0.6,0.2,0.9,0.2l3.3,0.3c1.5,0.2,3,0.1,4.4-0.3c0.3-0.1,0.5-0.3,0.7-0.5c0.4-0.5,0-1.3-0.5-1.7
		s-1.2-0.6-1.7-1c-1.1-0.9-1.3-2.5-1.9-3.8c-0.4-0.8-1-1.6-1.6-2.3c-0.5-0.6-1-1.1-1.6-1.6c-1.3-0.8-2.9-1.1-4.4-1.1
		c-1-0.3-2.2,0-2.9,0.8c-1,1.2-0.6,3.7-0.5,5.1C-1291.8-750.8-1291.6-748.9-1291.2-747z"/>
	<path id="Path_850" class="st21" d="M-1289.9-811.1c-1,0.5-1.5,1.6-1.3,2.6c0.3,1,0.7,2,1.3,2.9c1.5,2.6,2.1,5.6,3.3,8.4
		c0.9,2,2.2,3.9,3.1,6c1,2,1.3,4.3,0.9,6.5c-0.3,1.1-0.8,2-1.1,3.1c-0.3,1.1-0.6,2.3-0.7,3.5c-0.4,4-0.5,8-0.2,12
		c0,0.5,0.1,1,0.3,1.4c0.2,0.4,0.6,0.8,0.4,1.2c-0.1,0.2-0.2,0.3-0.3,0.4c-0.2,0.5,0.2,0.9,0.6,1.3c-0.1,0.2-0.4,0.4-0.6,0.5
		c0.6,0.4,0.8,1.1,0.6,1.7c-0.3,0.1-0.4,0.6-0.1,0.9s0.6,0.4,0.7,0.8c0.2,0.5-0.1,1.1-0.6,1.3c-0.5,0.2-1.1,0.2-1.6,0.1
		c-0.9-0.1-1.8-0.3-2.7-0.6c-0.9-0.2-1.6-1-1.5-2c-0.2-1.7-0.3-3.3-0.2-5c0.1-8.1,0-16.1-0.3-24.2c-0.2-3.2-1-6.4-2.4-9.4
		c-0.7-1.5-1.5-3-2.3-4.5c-2.1-3.2-3.1-6.9-3-10.7c0-0.4,0.2-0.9,0.6-1c0.2,0,0.3,0,0.5,0.1c0.8,0.4,1.6,0.8,2.4,1.3
		C-1292.8-811.6-1291.3-811.2-1289.9-811.1z"/>
	<path id="Path_851" class="st19" d="M-1289.9-811.1c-1,0.5-1.5,1.6-1.3,2.6c0.3,1,0.7,2,1.3,2.9c1.5,2.6,2.1,5.6,3.3,8.4
		c0.9,2,2.2,3.9,3.1,6c1,2,1.3,4.3,0.9,6.5c-0.3,1.1-0.8,2-1.1,3.1c-0.3,1.1-0.6,2.3-0.7,3.5c-0.4,4-0.5,8-0.2,12
		c0,0.5,0.1,1,0.3,1.4c0.2,0.4,0.6,0.8,0.4,1.2c-0.1,0.2-0.2,0.3-0.3,0.4c-0.2,0.5,0.2,0.9,0.6,1.3c-0.1,0.2-0.4,0.4-0.6,0.5
		c0.6,0.4,0.8,1.1,0.6,1.7c-0.3,0.1-0.4,0.6-0.1,0.9s0.6,0.4,0.7,0.8c0.2,0.5-0.1,1.1-0.6,1.3c-0.5,0.2-1.1,0.2-1.6,0.1
		c-0.9-0.1-1.8-0.3-2.7-0.6c-0.9-0.2-1.6-1-1.5-2c-0.2-1.7-0.3-3.3-0.2-5c0.1-8.1,0-16.1-0.3-24.2c-0.2-3.2-1-6.4-2.4-9.4
		c-0.7-1.5-1.5-3-2.3-4.5c-2.1-3.2-3.1-6.9-3-10.7c0-0.4,0.2-0.9,0.6-1c0.2,0,0.3,0,0.5,0.1c0.8,0.4,1.6,0.8,2.4,1.3
		C-1292.8-811.6-1291.3-811.2-1289.9-811.1z"/>
	<path id="Path_852" class="st21" d="M-1303.5-820.9c-1.1-0.9-2.8-0.7-3.7,0.4c-0.7,0.5-1.3,1.1-1.9,1.7c-2.5,2.7-3.4,6.5-2.3,10
		c0.7,1.8,1.6,3.4,2.8,4.9l2.2,3.1c3.3,4.8,6.7,9.6,10.2,14.3c0,0.2,0.2,0.4,0.4,0.5c0.1,0,0.3,0,0.4,0.1c0,0.1,0.1,0.1,0,0.2
		c0,0.3-0.1,0.7-0.2,1c-0.1,0.1-0.1,0.2,0,0.3c0.1,0.3,0.6,0.1,0.7,0.4c0.1,0.2,0,0.4-0.2,0.5c-0.1,0.1-0.3,0.3-0.3,0.5
		c0,0.2,0.4,0.4,0.3,0.6c0,0.1-0.1,0.2-0.2,0.4c-0.2,0.4-0.2,0.8,0.1,1.2c0.2,2.3-1,4.5-1.3,6.7c-0.4,3.6,1.2,7.1,1.4,10.7
		c0,0.4,0.1,0.8,0.2,1.2c0.3,0.6,1.2,1,1.2,1.7c-0.1,0.3-0.1,0.6-0.2,0.9c0,0.4,0.1,0.8,0.1,1.2c0,0.4-0.4,0.9-0.7,0.7
		c0.3,1,0.5,1.9,0.8,2.9l7.7,0.6c0.1-0.7,0.1-1.4-0.1-2.1c-0.2-0.7-0.5-1.4-0.7-2.2c-0.2-0.7-0.1-1.5,0.3-2.2
		c-0.4,0-0.8-0.3-0.8-0.7c-0.1-0.4-0.1-0.8,0-1.2c0.2-2-0.6-4-0.6-6c0.2-1.6,0.4-3.1,0.9-4.7c0.6-3.3,0-6.9,1.5-10
		c0.9-1.8,2.1-3.9,1.1-5.6c-0.5-0.9-1.4-1.5-1.9-2.3c-0.5-0.8-0.8-1.6-1-2.5c-1.3-3.6-2.9-7.1-4.8-10.5c-0.5-0.9-0.8-1.8-1-2.8
		c-0.1-0.8-0.2-1.7-0.1-2.6c0-1.5-0.1-3.1-0.3-4.6c0-0.7-0.2-1.3-0.6-1.9c-0.3-0.4-0.7-0.8-1.2-1.1
		C-1297.9-818.3-1300.6-819.7-1303.5-820.9z"/>
	<path id="Path_853" class="st31" d="M-1294.3-744.2c0.7,0.3,1.5,0.3,2.3,0.3c0.1-0.6,0.9-0.8,1.5-0.7c0.3,0,0.6,0.1,0.9,0.2
		c0.2,0.1,0.3,0.3,0.4,0.4c0.3,0.2,0.6,0.2,0.9,0.2l3.3,0.3c1.5,0.2,3,0.1,4.4-0.3c0.3-0.1,0.5-0.2,0.7-0.5c0.4-0.5,0-1.3-0.5-1.7
		s-1.2-0.6-1.7-1c-1.1-0.9-1.3-2.5-1.9-3.8c-0.4-0.8-1-1.6-1.6-2.3c-0.5-0.6-1-1.1-1.6-1.6c-1.3-0.8-2.9-1.1-4.4-1.1
		c-1-0.3-2.2,0-2.9,0.8c-1,1.2-0.6,3.7-0.5,5.1C-1294.9-748-1294.6-746.1-1294.3-744.2z"/>
	<circle id="Ellipse_21" class="st30" cx="-1260.3" cy="-841.8" r="7.6"/>
	<path id="Path_854" class="st30" d="M-1267.4-839.5c-1.2,0.8-2.6,1.2-4.1,1.2c-3.1,0.3-6,1.2-8.8,2.5c-0.4,0.2-0.7,0.4-1,0.7
		c-0.2,0.3-0.4,0.7-0.5,1.1c-0.3,0.9-0.4,1.8-0.3,2.6c0.1,0.9,0.3,1.7,0.7,2.5c1.1,2.2,2.7,4,4.7,5.4c0.4,0.3,0.8,0.5,1.2,0.6
		c1,0,2-0.2,3-0.6c0.9-0.2,1.8-0.2,2.7,0.1c0.8,0.3,1.7,0.8,2.5,0.4c0.5-0.3,0.9-0.7,1.1-1.3c0.8-1.5,1.5-3,2.1-4.5
		c0.2-0.6,0.5-1.2,0.8-1.8c0.9-1.7,2.4-3,3.2-4.7c0.2-0.3,0.2-0.6,0.1-0.9c-0.1-0.2-0.3-0.3-0.6-0.4c-1.1-0.6-2.1-1.4-3-2.4
		c-0.5-0.5-1.4-1.8-2.1-1.9C-1266.6-841.1-1266.9-840-1267.4-839.5z"/>
	<path id="Path_855" class="st8" d="M-1267.3-824.1c-0.9,0.3-1.9,0.3-2.9,0c-2.5-0.4-4.9-1.1-7.2-2.1c-0.7-0.3-1.3-0.7-1.8-1.4
		c-0.3-0.5-0.4-1.1-0.5-1.7l-0.4-2.8c0-1,0-1.9,0.1-2.9c0-0.2,0-0.5-0.2-0.6c-0.1-0.1-0.3-0.2-0.5-0.2c-1.1,0-1.8,1.2-2.6,2
		c-0.5,0.5-1,0.8-1.6,1.1c-0.7,0.3-1.6,0.5-1.9,1.2c-0.1,0.3-0.1,0.6-0.2,1c-0.5,1.2-2.7,0.8-3.2,2c-0.2,0.3-0.1,0.8-0.4,1
		c-0.3,0.3-0.7,0.3-1.1,0.3c-1.6,0.3-2.3,2.1-3.7,3c-1.2,0.5-2.5,0.9-3.8,1.3c-0.6,0.4-1.3,0.7-2,1c-0.8,0.1-1.5,0.2-2.3,0.1
		c-0.2,0-0.3,0-0.5,0.2c-0.1,0.1-0.1,0.3-0.1,0.5c0.8,4.9,4,9,8.6,10.8c0.3,0.1,0.5,0.2,0.7,0.4c0.7,0.5,0.8,1.6,1.6,2
		c0.6,0.2,1.2,0.1,1.7-0.4c0.4-0.4,0.8-0.9,1.2-1.3c0.7-0.7,1.7-1.2,2.7-1.4c1,0,1.9-0.2,2.8-0.6c0.3-0.3,0.6-0.6,0.9-0.9
		c0.6-0.5,1.2-0.9,2-1.2c2-0.8,4.1-1.2,6.3-1.4c2,0.1,4-0.1,5.9-0.6c0.5-0.2,0.9-0.4,1.3-0.8c0.4-0.4,0.7-1,0.9-1.5
		C-1267-819.9-1266.8-822-1267.3-824.1z"/>
	<path id="Path_856" class="st8" d="M-1277.1-835.3c0.6-0.1,1.1,0,1.7,0c0.7,0,1.3-0.2,2-0.2c2.1,0,4,1.5,4.6,3.5
		c0.1,0.2,0.1,0.3,0,0.5c0,0.2-0.2,0.3-0.4,0.3c-0.2-0.6-0.5-1.2-0.9-1.7c-0.6-0.9-1.5-1.5-2.5-1.8c-1-0.3-2.1-0.3-3.1-0.1
		c-0.4,0.1-0.9,0.2-1.3,0.3l-2,0.6c-0.4,0.1-0.8,0.2-1.1,0.3c-0.3,0.1-0.8,0.5-1,0.5c-0.4,0-0.1-0.3,0.1-0.5c0.3-0.5,0.8-0.8,1.3-1
		C-1278.8-834.9-1277.9-835.1-1277.1-835.3z"/>
	<path id="Path_857" class="st30" d="M-1271.9-812.5c0.5,1.6,1,3.2,1.6,4.7c1.1,2.7,2.5,5.2,4.1,7.6c1.1,1.6,2.2,3.1,3.4,4.5
		c1.7,1.6,3,3.7,3.8,5.9c0.2,1.3,0.3,2.7,0.3,4.1c0,1.4,0.6,2.7,1.7,3.6c0.8,0.5,1.8,0.8,2.8,0.9c0.7,0.1,1.5,0.1,1.9-0.4
		c0.1-0.2,0.2-0.5,0.2-0.8l0.2-2c0-0.4,0.2-1,0.6-1c0.4,0,0.6,0.6,1,0.8c0.5,0.3,1.2,0,1.5-0.5c0,0,0,0,0,0c0.2-0.6,0.2-1.2,0-1.7
		c-0.6-2.3-2.1-4.2-4.2-5.3c-0.7-0.3-1.4-0.7-2.1-1.1c-0.7-0.6-1.2-1.3-1.6-2.1c-3.9-6.1-7.4-12.5-10.2-19.2
		c-0.5-1.2-0.9-2.5-1.1-3.8c-0.1-1.3,0-2.7,0.2-4c0.2-2.4-0.1-4.8-0.7-7.1c-0.1-0.6-0.4-1.2-0.7-1.7c-1.3-1.6-3.6-2-5.3-0.8
		c-1.2,0.9-2,2.3-2.1,3.8c0.1,1.4,0.5,2.7,1.1,4C-1274.3-820.2-1273.1-816.3-1271.9-812.5z"/>
	<path id="Path_858" class="st21" d="M-1249.2-847.1c0.1-0.6-0.5-1.2-1.2-1.6c-0.7-0.3-1.3-0.7-2-1.2c-0.6-0.5-0.9-1.1-1.5-1.6
		c-0.7-0.5-1.4-0.9-2.2-1.1c-1.7-0.6-3.5-0.9-5.2-0.9c-1.8-0.1-3.5,0.4-5,1.3c-0.3,0.2-0.6,0.5-0.9,0.8c-0.2,0.4-0.4,0.8-0.4,1.3
		c-0.3,1.4-0.8,2.7-1.3,4c-0.5,1.5-1.3,2.9-2.5,4c-1.4,1.2-3.6,1.9-4.5,3.3c-0.2,0.3-0.3,0.6-0.2,0.9c0.1,0.4,0.6,0.6,1,0.8
		c2.2,1.1,4.1,2.9,5.3,5.1c1.1,2,0.9,4.5-0.5,6.4c-0.5,0.7-1.3,1.5-0.8,2.2c0.8,1.1,3.5,0.5,4.2,1.6c0.1,0.4,0.2,0.8,0.1,1.2
		c0,1.2,1.1,2.2,2.5,2.8c1.5,0.5,3,0.7,4.5,0.7c0.4-0.9,0.5-2,0.1-2.9c-0.1-0.2-0.1-0.4-0.1-0.7c0.1-0.3,0.3-0.5,0.5-0.6
		c1.4-1.6,1.6-4,0.3-5.8c-1.2-1.7-2.3-3.6-3.1-5.5c-0.4-1-0.2-2.1,0.5-2.9c0.4-0.4,0.9-0.7,1.4-1c0.9-0.6,1.6-1.5,2-2.5
		c0.5-1.3,0.4-2.8,1.8-3.7c1.3-0.8,3.1-0.6,4.6-1.1C-1250.5-844.7-1249.6-845.8-1249.2-847.1z"/>
</g>
</svg>
