<?xml version="1.0" encoding="utf-8"?>
<!-- Generator: Adobe Illustrator 23.0.1, SVG Export Plug-In . SVG Version: 6.00 Build 0)  -->
<svg version="1.1" id="Warstwa_1" xmlns="http://www.w3.org/2000/svg" xmlns:xlink="http://www.w3.org/1999/xlink" x="0px" y="0px"
	 viewBox="0 0 500 500" style="enable-background:new 0 0 500 500;" xml:space="preserve">
<style type="text/css">
	.st0{clip-path:url(#SVGID_2_);}
	.st1{fill:#0E0E0E;}
	.st2{fill:#E1D8E0;}
	.st3{fill:#F2F2F2;}
	.st4{opacity:0.3;fill:#71456E;enable-background:new    ;}
	.st5{fill:#E6E6E6;}
	.st6{fill:#FEC2BE;}
	.st7{opacity:0.1;enable-background:new    ;}
	.st8{fill:#4C4981;}
	.st9{fill:#192534;}
	.st10{fill:#3F3D56;}
	.st11{fill:#FFFFFF;}
	.st12{opacity:0.1;}
	.st13{fill:#71456E;}
	.st14{fill:none;stroke:#3F3D56;stroke-width:4;stroke-miterlimit:10;}
	.st15{fill:#57B894;}
	.st16{fill:#656380;}
	.st17{opacity:0.2;enable-background:new    ;}
</style>
<g>
	<defs>
		<path id="SVGID_1_" d="M405.4,368.2c-0.3-0.3-0.7-0.6-1.1-0.8l4,2.2c0.4,0.2,0.8,0.5,1.1,0.8l-2-1.1l-0.3-0.1l-1-0.6l-0.2-0.1
			C405.7,368.3,405.5,368.3,405.4,368.2z"/>
	</defs>
	<clipPath id="SVGID_2_">
		<use xlink:href="#SVGID_1_"  style="overflow:visible;"/>
	</clipPath>
	<g id="Group_6" transform="translate(461.298 1283.734)" class="st0">
		<g id="Group_5">
			<path id="Path_26" class="st1" d="M-50.5-905.8l-4-2.2c0.3-0.9,0.5-1.8,0.5-2.8c0.1-2.3-1.1-4.4-3.1-5.6l4,2.2
				c2,1.2,3.2,3.3,3.1,5.6C-50-907.7-50.2-906.7-50.5-905.8"/>
		</g>
	</g>
</g>
<path id="Path_968" class="st2" d="M397.4,118.2c-58.1-30.5-148.8-32.3-180.3,72s-161.4,32.1-126,111.4s119.1,152.1,192,39.9
	s136.2,0.4,186.8-67.6S455.5,148.6,397.4,118.2z"/>
<g id="undraw_personal_site_xyd1" transform="translate(856.724 1157.722)">
	<path id="Path_859" class="st3" d="M-422.1-995.6v163.8c0,8.4-6.8,15.2-15.2,15.2c0,0,0,0,0,0h-345.8c-8.4,0-15.2-6.8-15.2-15.2
		l0,0v-163.8c0.1-8.3,6.9-15,15.2-15h345.8C-429-1010.6-422.2-1003.9-422.1-995.6z"/>
	<path id="Path_860" class="st4" d="M-710.4-975h-59.1c-3.6,0-6.5,2.9-6.5,6.5v80.2c0,3.6,2.9,6.5,6.5,6.5h59.1
		c3.6,0,6.5-2.9,6.5-6.5v-80.2C-703.9-972-706.8-975-710.4-975C-710.4-975-710.4-975-710.4-975z"/>
	<path id="Path_861" class="st5" d="M-422.1-995.6h-376.2c0.1-8.3,6.9-15,15.2-15h345.8C-429-1010.6-422.2-1003.9-422.1-995.6z"/>
	<circle id="Ellipse_22" class="st3" cx="-783.8" cy="-1003.1" r="3.3"/>
	<circle id="Ellipse_23" class="st3" cx="-773.9" cy="-1003.1" r="3.3"/>
	<circle id="Ellipse_24" class="st3" cx="-764.1" cy="-1003.1" r="3.3"/>
	<path id="Rectangle_46" class="st5" d="M-669.7-980.1h61.8c4.3,0,7.7,3.5,7.7,7.7l0,0c0,4.3-3.5,7.7-7.7,7.7h-61.8
		c-4.3,0-7.7-3.5-7.7-7.7l0,0C-677.4-976.6-674-980.1-669.7-980.1z"/>
	<path id="Rectangle_47" class="st5" d="M-515.1-980.1h61.8c4.3,0,7.7,3.5,7.7,7.7l0,0c0,4.3-3.5,7.7-7.7,7.7h-61.8
		c-4.3,0-7.7-3.5-7.7-7.7l0,0C-522.8-976.6-519.4-980.1-515.1-980.1z"/>
	<path id="Rectangle_48" class="st5" d="M-663.3-949.2h203.6c7.8,0,14.1,6.3,14.1,14.1v72c0,7.8-6.3,14.1-14.1,14.1h-203.6
		c-7.8,0-14.1-6.3-14.1-14.1v-72C-677.4-942.9-671.1-949.2-663.3-949.2z"/>
	<path id="Rectangle_49" class="st3" d="M-656.1-937.5h189.3c1.3,0,2.3,1,2.3,2.3v0c0,1.3-1,2.3-2.3,2.3h-189.3
		c-1.3,0-2.3-1-2.3-2.3v0C-658.4-936.4-657.4-937.5-656.1-937.5z"/>
	<path id="Rectangle_50" class="st3" d="M-656.1-924.4h189.3c1.3,0,2.3,1,2.3,2.3v0c0,1.3-1,2.3-2.3,2.3h-189.3
		c-1.3,0-2.3-1-2.3-2.3v0C-658.4-923.3-657.4-924.4-656.1-924.4z"/>
	<path id="Rectangle_51" class="st3" d="M-656.1-911.2h189.3c1.3,0,2.3,1,2.3,2.3v0c0,1.3-1,2.3-2.3,2.3h-189.3
		c-1.3,0-2.3-1-2.3-2.3v0C-658.4-910.2-657.4-911.2-656.1-911.2z"/>
	<path id="Rectangle_52" class="st3" d="M-656.1-898.1h189.3c1.3,0,2.3,1,2.3,2.3v0c0,1.3-1,2.3-2.3,2.3h-189.3
		c-1.3,0-2.3-1-2.3-2.3v0C-658.4-897.1-657.4-898.1-656.1-898.1z"/>
	<path id="Rectangle_53" class="st3" d="M-656.1-885h189.3c1.3,0,2.3,1,2.3,2.3v0c0,1.3-1,2.3-2.3,2.3h-189.3c-1.3,0-2.3-1-2.3-2.3
		v0C-658.4-884-657.4-885-656.1-885z"/>
	<path id="Rectangle_54" class="st3" d="M-656.1-871.9h189.3c1.3,0,2.3,1,2.3,2.3v0c0,1.3-1,2.3-2.3,2.3h-189.3
		c-1.3,0-2.3-1-2.3-2.3v0C-658.4-870.8-657.4-871.9-656.1-871.9z"/>
	<path id="Path_862" class="st6" d="M-771.4-914.8c-3.4,0.8-6.9,1.1-10.5,1h-1.2l-1.6-3.2l1.6-2.7c0,0,1.5-0.4,3.4-0.7
		c2.9-0.5,6.8-0.9,8.6,0.2C-768-918.3-768.3-916-771.4-914.8z"/>
	<path id="Path_863" class="st7" d="M-781.9-913.8h-1.2l-1.6-3.2l1.6-2.7c0,0,1.5-0.4,3.4-0.7C-781.3-919.3-785.1-916.8-781.9-913.8
		z"/>
	<path id="Path_864" class="st8" d="M-808.2-953.5l0.7-0.8c1.6,2.5,3,5.1,4,7.9c0.4,2.2,0.9,4.6,0.9,4.6s0.9,2.8,1.5,4
		c0.5,0.9,0.9,1.9,1.2,3c-0.2,0.9,0.2,1.9,0.9,2.5c0.8,0.7,1.3,1.7,1.4,2.8c0,0,4.1,4,6.2,4.1s8.4,1.2,8.1,2.3
		c-0.2,1.1,2.6,1.7,3.7,2c1.1,0.3-7.3,3.5-2.4,7.7c0,0-3.1,0.6-3.4,1.4c-0.3,0.8-3.6-0.4-3.6-0.4c-0.6-1.1-1.8-1.8-3.1-1.8
		c-1.4,0.1-2.7-0.4-3.7-1.3c-1.2-0.8-2.4-1.4-3.8-1.9c-1.3-0.4-3.1-0.5-3.2-0.9c-0.1-0.4-8.1-35-8.1-35L-808.2-953.5z"/>
	<path id="Path_865" class="st9" d="M-808.2-953.5l0.7-0.8c1.6,2.5,3,5.1,4,7.9c0.4,2.2,0.9,4.6,0.9,4.6s0.9,2.8,1.5,4
		c0.5,0.9,0.9,1.9,1.2,3c-0.2,0.9,0.2,1.9,0.9,2.5c0.8,0.7,1.3,1.7,1.4,2.8c0,0,4.1,4,6.2,4.1s8.4,1.2,8.1,2.3
		c-0.2,1.1,2.6,1.7,3.7,2c1.1,0.3-7.3,3.5-2.4,7.7c0,0-3.1,0.6-3.4,1.4c-0.3,0.8-3.6-0.4-3.6-0.4c-0.6-1.1-1.8-1.8-3.1-1.8
		c-1.4,0.1-2.7-0.4-3.7-1.3c-1.2-0.8-2.4-1.4-3.8-1.9c-1.3-0.4-3.1-0.5-3.2-0.9c-0.1-0.4-8.1-35-8.1-35L-808.2-953.5z"/>
	<path id="Path_866" class="st10" d="M-816.6-803.9c-7.1,1.3-8.4-4.1-8.4-4.1c-0.3-1.8-0.7-3.5-1.2-5.2c-0.1-0.1-0.1-0.3-0.1-0.5
		l0,0c0.2-0.8,0.5-1.6,1-2.3c0.4-0.5,0.1-2.7,0.1-2.7l8.2-2.1c0.3,0.8,0.6,1.6,0.8,2.4c0.1,0.8,1.3,4.2,1.2,4.7
		c0.1,0.9,0.3,1.8,0.6,2.8c0.1,0.8,1.1,1.9,1.2,2.3c0.1,0.4,0.3,0.7,0.5,1.1c0.2,0.5,0.4,1.1,0.5,1.6
		C-811.8-804.2-816.6-803.9-816.6-803.9z"/>
	<path id="Path_867" class="st7" d="M-816.6-803.9c-7.1,1.3-8.4-4.1-8.4-4.1c-0.3-1.8-0.7-3.5-1.2-5.2c-0.1-0.1-0.1-0.3-0.1-0.5
		l1.7,4.9c0,0,1.4,3,6.7,2.5c1.8,0,3.6-0.5,5.2-1.2c0.2,0.5,0.4,1.1,0.5,1.6C-811.8-804.2-816.6-803.9-816.6-803.9z"/>
	<path id="Path_868" class="st7" d="M-822.1-811.6c0,0,1.8,0,1.9-1.4L-822.1-811.6z"/>
	<path id="Path_869" class="st9" d="M-791.2-859.4c-0.9,2.3-1.5,4.7-1.9,7.2c-0.4,0.8-0.6,1.6-0.6,2.5c-0.1,1.1-0.3,2.2-0.6,3.2
		l-2.2,8.4c0.1,1.3-0.1,2.6-0.6,3.8c-0.8,1.6-0.8,1.1-0.4,3.8c0.6,2.2-0.2,4.6-1.9,6.1c-1.5,0.8,0.6,2.7,0.6,2.7s-9.3,2.5-11.2,1
		c-1.9-1.5,1-9.1,1-9.1c-0.2-2.4-0.3-4.9-0.2-7.3c0.3-0.9,1.7-8.9,1.7-8.9c0.4-1.4,0.5-2.8,0.5-4.2c-0.3-0.6,0.2-2.3,0.2-2.3
		s1.4-1.9,1.3-2.5c0-0.6,0.1-1.2,0.4-1.7c0,0-4.1-6.3-3.7-7.5c0.2-1,0.1-2.1-0.2-3.1c0,0-0.5-0.9-1.1-2c-0.8-1.3-1.7-2.9-2-3.4
		c-0.7-1.6-1.4-3.2-1.9-4.8c-0.2-0.7-0.4-1.1-0.4-1.1c-0.2,4.4-0.6,8.8-1.2,13.1c-0.7,3.6-1.1,7.2-1.4,10.8
		c-0.3,0.9-0.5,1.8-0.4,2.7c-0.3,2.7-0.7,5.4-1.3,8c-0.3,1.9-0.4,3.9-0.2,5.8c0.2,3.4,0.3,6.8,0.1,10.1c1.1,0.8,2.1,1.9,2.8,3.1
		c0.3,1.6,0.3,3.3-0.1,5c0,0-6.5,3.2-9.3,2.4c-2.9-0.8-1.7-5.7-1.7-5.7c-0.9-1.4-1.5-2.9-1.9-4.5c-0.1-1.7-0.4-3.4-0.7-5.1
		c-2.5-4.5-1.5-15.5-1.9-16.4c-0.4-0.9,0.8-4.2,1.9-5.7c0.8-2.2,0.8-4.6,0-6.7c-0.6-1.2,0.6-5.2,0.6-5.2s-1.2-7.8-1.1-9.1
		c-0.2-1.6-0.5-3.2-1-4.8c0,0-1.1-1.9-0.8-2.4c0.2-0.5-0.8-2-0.5-2.7c0.1-1.3-0.2-2.6-0.8-3.8c-0.4-1.2-0.7-2.5-0.9-3.7
		c-0.2-1.4-0.4-2.6-0.4-2.6l6.7-5.4l16.5-4.3l6.3-2l6.1,9.6c0,0,0.6,1,1.2,2.2c0.5,0.9,0.8,1.8,0.8,2.8c-0.1,0.9,0.1,1.8,0.6,2.5
		c0,0,3.6,11.5,3.6,14.8c0.2,3.6,0.6,7.1,1.3,10.6C-791.8-865.4-790.3-860.7-791.2-859.4z"/>
	<path id="Path_870" class="st6" d="M-815.8-953.1c-0.3-0.1-17.8-7.4-15.4-8.8c1.4-0.9,3.2-4.5,4.4-7.3c0.8-2,1.4-3.6,1.4-3.6
		s14.1-2.5,9.1,6.1c-0.8,1.3-1.4,2.8-1.8,4.3C-819.1-959.1-818.2-955.6-815.8-953.1z"/>
	<path id="Path_871" class="st7" d="M-816.3-966.7c-0.8,1.3-1.4,2.8-1.8,4.3c-3.7-0.3-6.9-2.5-8.3-5.9c-0.1-0.3-0.3-0.6-0.4-1
		c0.8-2,1.4-3.6,1.4-3.6S-811.3-975.3-816.3-966.7z"/>
	<path id="Path_872" class="st6" d="M-807.6-972.6c0,5.4-4.4,9.9-9.9,9.9c-3.9,0-7.4-2.3-9-5.9c-0.6-1.3-0.8-2.6-0.8-4
		c0-5.4,4.4-9.9,9.8-9.9c4.4,0,8.3,2.9,9.5,7.2C-807.7-974.4-807.6-973.5-807.6-972.6z"/>
	<path id="Path_873" class="st7" d="M-798-896.2c-0.7,0.8-1.2,1.7-1.4,2.7c0,0-4.8,3.3-4.5,1.2c0.3-2.1-2.5-10.6-2.5-10.6l0.3,11.6
		c0,0-15.5-0.7-16.7-1.9s-7.8-3.3-7.8-3.3s-2,1.6-3.9,2.9c-0.2-1.4-0.4-2.6-0.4-2.6l6.7-5.4l16.6-4.3l6.3-2l6.1,9.6
		C-799.3-898.3-798.6-897.3-798-896.2z"/>
	<path id="Path_874" class="st11" d="M-797.5-897.1c-0.9,0.8-1.5,1.8-1.8,3c0,0-4.8,3.3-4.5,1.2c0.3-2.1-2.5-10.6-2.5-10.6l0.3,11.6
		c0,0-15.5-0.7-16.7-1.9c-1.1-1.1-7.8-3.3-7.8-3.3s-5.7,4.6-6.8,4.2s1.9-8.2,1.9-8.2l3-45.9c0,0-0.8-13.7,0.4-14.1
		c0.2-0.1,0.4-0.2,0.5-0.3c0.8-1,1.2-2.2,1.1-3.4c0.1-1.5,2-0.7,2-0.7l-1.1,1.5l10,6.1l0.1,0.1c0.4-0.2,0.8-0.4,1.2-0.5
		c0.9-0.4,1.9-0.6,2.8-0.3c0.4,0.2,0.8,0.5,1.1,0.9c0.6,0.9,1,1.8,1.4,2.8l3.6,6.2c0,0,1.9,8.2,1.9,8.5s0.6,7.8,1.2,8.6
		c0.8,1.9,1.2,4,1,6.1c0,1.9,0.1,3.8,0.4,5.7c2.7,2.2,4,9.6,4,9.6s4.2,8.3,4.5,9.3C-795.9-899.7-796.4-898.1-797.5-897.1z"/>
	<path id="Path_875" class="st7" d="M-819.5-957.7c-1.1,1.3-2.4,2.5-3.8,3.5l-8.2-6.9c0.8-1,1.2-2.2,1.1-3.4c0.1-1.5,2-0.7,2-0.7
		l-0.2,0.3c-0.4,0.6-0.3,1.4,0.2,1.8c0,0,0.1,0.1,0.1,0.1L-819.5-957.7z"/>
	<path id="Path_876" class="st11" d="M-819.5-958.1c-1.1,1.3-2.4,2.5-3.8,3.5l-8.2-6.9c0.8-1,1.2-2.2,1.1-3.4c0.1-1.5,2-0.7,2-0.7
		l-0.2,0.3c-0.4,0.6-0.3,1.4,0.2,1.8c0,0,0.1,0.1,0.1,0.1L-819.5-958.1z"/>
	<path id="Path_877" class="st7" d="M-815.7-957c-1.1,1.3-2.6,2.7-2.5,2c-0.2-1.1-0.7-2.2-1.5-3c1-0.3,2-0.3,2.9,0.1
		C-816.3-957.7-815.9-957.4-815.7-957z"/>
	<path id="Path_878" class="st11" d="M-815.5-957.5c-1.1,1.3-2.6,2.7-2.5,2c0.1-0.7-0.8-1.9-1.4-2.6c0.9-0.4,1.9-0.6,2.8-0.3
		C-816.1-958.2-815.8-957.9-815.5-957.5z"/>
	<circle id="Ellipse_25" class="st9" cx="-818.2" cy="-951.4" r="0.6"/>
	<circle id="Ellipse_26" class="st9" cx="-813.3" cy="-933.9" r="0.6"/>
	<circle id="Ellipse_27" class="st9" cx="-807.7" cy="-916.3" r="0.6"/>
	<circle id="Ellipse_28" class="st9" cx="-807.5" cy="-897" r="0.6"/>
	<circle id="Ellipse_29" class="st9" cx="-815.3" cy="-943.2" r="0.6"/>
	<circle id="Ellipse_30" class="st9" cx="-810.9" cy="-925.2" r="0.6"/>
	<circle id="Ellipse_31" class="st9" cx="-806.7" cy="-907.6" r="0.6"/>
	<circle id="Ellipse_32" class="st9" cx="-807.6" cy="-894.9" r="0.6"/>
	<path id="Path_879" class="st7" d="M-831.5-961.1c0,0,0.1-1-1.3,0.7c-1.2,1.2-2.5,2.3-4,3.1c0,0-6,4.2-6.3,6.1
		c-0.3,1.9-2.3,10.3-1.2,13.2s8.8,16.2,8.8,16.2c-1.2,1.5-1.8,3.4-1.6,5.3c0.6,2.5,0.8,5.1,0.8,7.7c-0.3,0.9,0.3,3-0.6,3.8
		c-0.9,0.7-1.9,2,1,3.8c0,0,0.5,1.5,0.1,1.8c-0.5,0.3,7.2,3.7,10.2,1.9c3-1.8,8.5-16,8.6-19.2c-0.3-5.5-1.2-10.9-2.6-16.2
		c-1-2.5-3.9-12.1-5.1-14.3C-826.1-949.4-831.5-961.1-831.5-961.1z"/>
	<path id="Path_880" class="st9" d="M-831.8-961.1c0,0,0.1-1-1.3,0.7c-1.2,1.2-2.5,2.3-4,3.1c0,0-6,4.2-6.3,6.1
		c-0.3,1.9-2.3,10.3-1.2,13.2s8.8,16.2,8.8,16.2c-1.2,1.5-1.8,3.4-1.6,5.3c0.5,2.5,0.8,5.1,0.8,7.7c-0.3,0.9,0.3,3-0.6,3.8
		s-1.9,2,1,3.8c0,0,0.5,1.5,0.1,1.8c-0.5,0.3,7.2,3.7,10.2,1.9c3-1.8,8.5-16,8.6-19.2c-0.3-5.5-1.2-10.9-2.6-16.2
		c-1-2.5-3.9-12.1-5.1-14.3C-826.4-949.4-831.8-961.1-831.8-961.1z"/>
	<path id="Path_881" class="st7" d="M-833.9-951.9c0,0,4.6,5.1,4.5,8.5C-829.6-946.8-831.2-949.9-833.9-951.9z"/>
	<path id="Path_882" class="st7" d="M-827.6-943.5c0,0.2,3.1,11.8,3,13.3c0.1,1.9,0.4,3.9,0.9,5.8l1.5-0.4c0,0-1.1-6-1.3-8.2
		C-824.6-936.7-825.9-940.2-827.6-943.5z"/>
	<path id="Path_883" class="st7" d="M-826.3-910.3c-0.1,0.2-7.4,8.4-5.3,9C-829.6-900.7-826.3-910.3-826.3-910.3z"/>
	<path id="Path_884" class="st7" d="M-832.3-912.4c-0.2,0.1-2.9,5.9-3.2,4.4s2.4,4.3,2.8-0.1L-832.3-912.4z"/>
	<path id="Path_885" class="st7" d="M-818.3-959.3c0,0,3-1.8,6.8,2.9c0,0,2.7,1.6,3.6,1.9c0.8,0.4,1.7,10.4,1.7,10.4
		c0.9,2.1,1.4,4.5,1.3,6.8c-0.5,2.5,1.4,11,1.4,11s3.1,15.3,3,15.7c-1.7-2.1-2.8-4.7-3.1-7.4c-0.5-3.8-1.5-7.6-3-11.2
		c-0.4-0.5-3-14.3-3-14.3c-0.9-2.7-2.1-5.3-3.4-7.8c-1.3-1.9-3-5.6-3.7-6.2c-0.5-0.4-1.1-0.8-1.7-1.1L-818.3-959.3z"/>
	<path id="Path_886" class="st9" d="M-818.3-959.3c0,0,3.4-1.8,7.1,2.9c0,0,2.7,1.6,3.6,1.9c0.8,0.4,1.7,10.4,1.7,10.4
		c0.9,2.1,1.4,4.5,1.3,6.8c-0.5,2.5,1.4,11,1.4,11s3.1,15.3,3,15.7c-1.7-2.1-2.8-4.7-3.1-7.4c-0.5-3.8-1.5-7.6-3-11.2
		c-0.4-0.5-3-14.3-3-14.3c-0.9-2.7-2.1-5.3-3.4-7.8c-1.3-1.9-3-5.6-3.7-6.2c-0.6-0.5-1.3-0.8-2-1.1L-818.3-959.3z"/>
	<path id="Path_887" class="st7" d="M-808-885c-0.9,2.1-1.7,12.4-2.3,15.6c-0.8-1.3-1.7-2.9-2-3.4c-0.7-1.6-1.4-3.2-1.9-4.8
		c1-2.3,1.8-4.8,2.3-7.3c0-1.9,3.1-4.3,3.1-4.3C-807.7-888.1-807.4-886.4-808-885z"/>
	<path id="Path_888" class="st7" d="M-828.6-853.4c0,0,7.1-3,9.2-0.9S-828.6-853.4-828.6-853.4z"/>
	<path id="Path_889" class="st7" d="M-824.6-852.2c0,0-7.2,4-4.7,4.7C-826.9-846.7-824.6-852.2-824.6-852.2z"/>
	<path id="Path_890" class="st7" d="M-803.1-855.7c0,0-3.1,0.2-1.9,0.8C-803.9-854.3-803.1-855.7-803.1-855.7z"/>
	<path id="Path_891" class="st7" d="M-799.3-854.7c0,0.2-8.9,3.1-7.2,4.4C-804.7-849.1-799.3-854.7-799.3-854.7z"/>
	<path id="Path_892" class="st7" d="M-827.6-830c1.3-0.2,8.8-3.6,5.9-1.2C-823.3-829.7-825.5-829.3-827.6-830z"/>
	<path id="Path_893" class="st7" d="M-823.9-827.3c0.3,1.4,1.7,2.3,3.1,2.2C-818.3-825.4-823.9-827.3-823.9-827.3z"/>
	<path id="Path_894" class="st7" d="M-826-822.2c0.4-0.1,5.7-2.5,5.9-1.4s-5.1,3.1-5.5,2.5C-825.8-821.4-825.9-821.8-826-822.2
		L-826-822.2z"/>
	<path id="Path_895" class="st7" d="M-808.8-825.1c0.6,0,6.7-2,7.9-0.2L-808.8-825.1z"/>
	<path id="Path_896" class="st7" d="M-803.3-824c0.6-0.5,1.4-0.7,2.1-0.5C-800.2-824-803.3-824-803.3-824z"/>
	<path id="Path_897" class="st7" d="M-816.7-814c0.1,0.7,0.7,1.3,1.4,1.4L-816.7-814z"/>
	<path id="Path_898" class="st10" d="M-785.9-810.2c-0.4,1.7-6.1,1.8-8.8,1.4s-8.3-2.1-8.3-2.1c-2.6-0.2-5.1-0.6-7.6-1.3
		c-1.7-0.7-0.4-2.6-0.4-2.6v-0.2c-0.1-1.3-0.1-2.6,0.3-3.8c0.3-1.1,0.4-2.2,0.2-3.3c0,0,8.4,1.6,8.5,0.8c0.4-0.9,1.1-1.7,2.1-2.1
		c0.6-0.2,1.1,2,1.1,2s3.8,3.2,4,4.4s2.9,1.8,2.9,1.8c1.7,0.5,3.4,1,5.1,1.7c0.6,0.3,1,0.9,1.1,1.6
		C-785.7-811.2-785.7-810.7-785.9-810.2z"/>
	<path id="Path_899" class="st7" d="M-785.9-810.2c-0.4,1.7-6.1,1.8-8.8,1.4s-8.3-2.1-8.3-2.1c-2.6-0.2-5.1-0.6-7.6-1.3
		c-1.7-0.7-0.4-2.6-0.4-2.6v-0.2l8.5,1.9c2.2,0.9,4.5,1.5,6.8,1.8c2.3,0,7.5,0.9,10-0.5C-785.7-811.2-785.8-810.7-785.9-810.2z"/>
	<path id="Path_900" class="st7" d="M-797.3-816.5c-0.2,1.4-0.9,2.7-2,3.6L-797.3-816.5z"/>
	<path id="Path_901" class="st7" d="M-808-975.3c-0.1,0.1-0.3,0.1-0.5,0.2c-0.8,0.1-1.6-0.2-2.2-0.7c-0.7-0.4-1.6-0.7-2.2-0.2
		c-0.8,0.7-0.2,2.2-1,2.8c-0.5,0.4-1.3,0.3-1.8,0.6c-0.5,0.5-0.8,1.1-0.9,1.8c-0.1,0.7-0.4,1.4-1.1,1.6s-1.2-0.2-1.9-0.2
		c-0.1,0-0.3,0-0.4-0.1c-0.1-0.1-0.1-0.2-0.1-0.3c0.1-0.8,0-1.6-0.2-2.3c-0.2-0.8-0.9-1.4-1.6-1.5c-1.1-0.2-2.1,0.8-2.8,1.8
		c-0.7,1-1.3,2-1.9,3.1c0,0.1-0.1,0.1-0.1,0.2c-0.6-1.3-0.8-2.6-0.8-4c0-5.4,4.4-9.9,9.8-9.9C-813-982.5-809.1-979.6-808-975.3
		L-808-975.3z"/>
	<path id="Path_902" class="st9" d="M-824.4-972c0.7-0.9,1.6-1.9,2.8-1.8c0.8,0.2,1.4,0.8,1.6,1.5c0.2,0.8,0.3,1.6,0.2,2.3
		c0,0.1,0,0.2,0.1,0.3c0.1,0.1,0.2,0.1,0.4,0.1c0.6,0,1.3,0.4,1.9,0.2s0.9-0.9,1.1-1.6c0-0.7,0.3-1.3,0.9-1.8
		c0.6-0.4,1.3-0.2,1.8-0.6c0.8-0.7,0.2-2.1,1-2.8c0.6-0.5,1.5-0.2,2.2,0.2s1.4,0.9,2.2,0.7c0.3-0.1,0.5-0.2,0.7-0.3
		c1.2-0.5,2.8,0.3,3.7-0.5c0.4-0.4,0.6-0.8,0.7-1.3c0.3-0.7,0.5-1.4,0.5-2.1c0.1-0.7-0.1-1.4-0.5-2c-0.6-0.8-1.7-0.9-2.5-1.5
		c-0.7-0.5-1.2-1.2-1.6-1.9c-0.4-0.7-0.9-1.4-1.6-2c-0.7-0.6-1.6-0.7-2.4-0.4c-0.2,0.2-0.5,0.3-0.8,0.4c-0.3,0-0.6-0.1-0.9-0.2
		c-2.9-1.1-6.1-1.3-9.1-0.7c-1.2,0.1-2.5,0.4-3.6,0.9c-1.2,0.5-2,1.5-2.4,2.7c-0.3,0.9-0.1,2-0.4,2.9c-0.2,0.6-0.6,1.2-0.9,1.8
		c-0.3,1.8-0.2,3.7,0.5,5.4c0.1,2,0.4,4,1,5.9c0.2,0.4,0.3,1,0.8,0.8c0.3-0.2,0.6-1.2,0.8-1.5C-825.8-970-825.1-971.1-824.4-972z"/>
	<path id="Path_903" class="st7" d="M-842.2-940.5l-1.5,4.2c0,0,3.4,12.8,5.1,15.5c1.6,2.7,4,6.1,4,6.1c2.7,1.2,5.7,1.6,8.6,1.1
		c4.6-0.9,18.2-3.3,18.2-3.3c0.7,0.1,1.3-0.1,1.7-0.6c0.6-0.9,3.7-1.3,3.7-1.3s3.6-5.2-0.8-7.3c0,0-0.5,1.2-2.9,0.4s-3,0.6-3,0.6
		c-1.9,0.4-3.9,0.6-5.9,0.5c-2.6-0.1-5.3-0.4-7.9-0.8c-0.3-0.2-0.7-0.2-1,0.1c0,0,0,0,0,0c-0.6-0.2-1.2-0.6-1.7-1
		c-0.4-0.5-1,0.5-1,0.5s-0.8-0.4-0.5-1c0.2-0.5-0.7-2.6-0.7-2.6c-0.2-0.8-0.3-1.6-0.2-2.4c-0.2-1.7-0.6-3.4-1.3-5
		c0-0.7,0.1-1.3,0.2-1.9c0.3-1-2-2.9-2-2.9s-2.3-11-7.1-7.4C-841-947.1-842.5-943.8-842.2-940.5z"/>
	<path id="Path_904" class="st7" d="M-807.5-923.1c-0.1,0.4-1.2,1.9-0.8,2.2c0.4,0.3,1.1,0.1,0.5,1c-0.7,0.9-0.6,2.2-0.2,2
		c0.7-0.8,1.1-1.8,1.1-2.9C-807-921.6-807.2-922.4-807.5-923.1z"/>
	<g id="Group_349" transform="translate(7.655 15.068)" class="st12">
		<path id="Path_905" d="M-827.7-988.3c-0.2-0.8-0.9-1.4-1.6-1.5c-1.1-0.2-2.1,0.8-2.8,1.8c-0.7,1-1.3,2-1.9,3.1
			c-0.2,0.3-0.5,1.4-0.8,1.5c-0.4,0.2-0.6-0.4-0.8-0.8c-0.6-1.9-0.9-3.9-1-5.9c-0.3-1.1-0.5-2.3-0.7-3.5c0,1.5,0.3,2.9,0.7,4.3
			c0.1,2,0.4,4,1,5.9c0.2,0.4,0.3,1,0.8,0.8c0.3-0.2,0.6-1.2,0.8-1.5c0.6-1.1,1.2-2.1,1.9-3.1c0.7-0.9,1.6-1.9,2.8-1.8
			c0.8,0.2,1.4,0.8,1.6,1.5c0.1,0.4,0.2,0.8,0.2,1.2C-827.4-986.9-827.5-987.6-827.7-988.3z"/>
		<path id="Path_906" d="M-810.8-993.4c-0.1,0.5-0.4,0.9-0.7,1.3c-1,0.8-2.5,0-3.7,0.5c-0.2,0.1-0.5,0.2-0.7,0.3
			c-0.8,0.1-1.6-0.2-2.2-0.7c-0.7-0.4-1.6-0.7-2.2-0.2c-0.8,0.7-0.2,2.2-1,2.8c-0.5,0.4-1.3,0.3-1.8,0.6c-0.5,0.5-0.8,1.1-0.9,1.8
			c-0.1,0.7-0.4,1.4-1.1,1.6s-1.2-0.2-1.9-0.2c-0.1,0-0.3,0-0.4-0.1c0,0,0-0.1,0-0.1v0.7c0,0.1,0,0.2,0.1,0.3
			c0.1,0.1,0.2,0.1,0.4,0.1c0.6,0,1.3,0.4,1.9,0.2c0.6-0.2,0.9-0.9,1.1-1.6c0-0.7,0.3-1.3,0.9-1.8c0.6-0.4,1.3-0.2,1.8-0.6
			c0.8-0.7,0.2-2.1,1-2.8c0.6-0.5,1.5-0.2,2.2,0.2c0.7,0.4,1.4,0.9,2.2,0.7c0.3-0.1,0.5-0.2,0.7-0.3c1.2-0.5,2.8,0.3,3.7-0.5
			c0.4-0.4,0.6-0.8,0.7-1.3c0.3-0.7,0.5-1.4,0.5-2.1c0-0.2,0-0.5,0-0.7C-810.4-994.6-810.6-994-810.8-993.4z"/>
	</g>
	<path id="Rectangle_55" class="st13" d="M-766.9-981.5h16c15.5,0,28.1,12.6,28.1,28.1v37.1c0,15.5-12.6,28.1-28.1,28.1h-16
		c-15.5,0-28.1-12.6-28.1-28.1v-37.1C-795-969-782.4-981.5-766.9-981.5z"/>
	<circle id="Ellipse_33" class="st3" cx="-758.9" cy="-925.8" r="17.3"/>
	<path id="Path_907" class="st3" d="M-733.2-888.3h-51.5c0.4-8.1,7.1-14.5,15.2-14.5h21.1C-740.2-902.8-733.5-896.4-733.2-888.3
		L-733.2-888.3z"/>
	<path id="Path_908" class="st6" d="M-803.6-925.6c0,0,6.4-4.2,9.5-2.1c3.1,2.1,8.2,5,3.2,7.1c-3.8,1.3-7.8,1.9-11.9,1.7
		L-803.6-925.6z"/>
	<path id="Path_909" class="st9" d="M-842.5-940.5l-1.4,4.2c0,0,3.4,12.8,5.1,15.5c1.6,2.7,4,6.1,4,6.1c2.7,1.2,5.7,1.6,8.6,1.1
		c4.6-0.9,18.2-3.3,18.2-3.3c0.7,0.1,1.3-0.1,1.7-0.6c0.6-0.9,3.7-1.3,3.7-1.3s3.6-5.2-0.8-7.3c0,0-0.5,1.2-2.9,0.4
		c-2.3-0.8-3,0.6-3,0.6c-1.9,0.4-3.9,0.6-5.9,0.5c-2.6-0.1-5.3-0.4-7.9-0.8c-0.3-0.3-0.7-0.2-1,0.1c-0.6-0.2-1.2-0.6-1.7-1
		c-0.4-0.5-1,0.5-1,0.5s-0.8-0.4-0.5-1c0.2-0.5-0.7-2.6-0.7-2.6c-0.2-0.8-0.3-1.6-0.2-2.4c-0.2-1.7-0.6-3.4-1.3-5
		c0-0.7,0.1-1.3,0.2-1.9c0.3-1-2-2.9-2-2.9s-2.3-11-7.1-7.4C-841.3-947.1-842.8-943.8-842.5-940.5z"/>
	<path id="Path_910" class="st14" d="M-434.6-813.5c1.4-2.6-0.2-5.7-2-8c-1.8-2.3-4-4.7-4-7.6c0.1-4.2,4.5-6.7,8.1-8.9
		c2.7-1.7,5.1-3.6,7.3-5.9c0.9-0.9,1.7-1.9,2.2-3c0.6-1.7,0.8-3.5,0.7-5.3c-0.2-6-0.5-12-0.9-18"/>
	<path id="Path_911" class="st15" d="M-416.4-870.7c-0.1-2.2-1.3-4.3-3.3-5.4l-1.5,2.9l0-3.5c-0.7-0.2-1.4-0.3-2.2-0.3
		c-3.6,0.2-6.4,3.3-6.2,6.9c0.2,3.6,3.3,6.4,6.9,6.2C-419-864-416.2-867.1-416.4-870.7L-416.4-870.7z"/>
	<path id="Path_912" class="st15" d="M-428.1-826.2c-1.7,3.2-5.6,4.5-8.9,2.9c-3.2-1.7-4.5-5.6-2.9-8.9c1.7-3.2,5.6-4.5,8.9-2.9
		c1.5,0.8,2.6,2,3.2,3.6l-4.1,3.3l4.5-1C-427.4-828.1-427.6-827.1-428.1-826.2z"/>
	<path id="Path_913" class="st15" d="M-431.3-838.9c-3.6,0.3-6.8-2.4-7-6.1c-0.2-3.2,1.8-6.1,4.9-6.8l0,2.7l1.5-2.9l0,0
		c3.6-0.1,6.7,2.7,6.8,6.3C-425-842.2-427.8-839.1-431.3-838.9L-431.3-838.9z"/>
	<path id="Path_914" class="st15" d="M-415.4-849.5c-3.6,0.2-6.7-2.6-6.9-6.2c-0.2-3.6,2.6-6.7,6.2-6.9c1.2-0.1,2.5,0.2,3.5,0.8
		l-1.2,3.2l2.4-2.3c1.3,1.2,2,2.8,2.1,4.5c0,0.6,0,1.2-0.2,1.8C-410-851.7-412.5-849.7-415.4-849.5L-415.4-849.5z"/>
	<path id="Path_915" class="st7" d="M-417.3-868.9c-1.5,0.2-3,0.6-4.5,0.7c-1.5,0.2-3.1-0.3-4.2-1.5c-0.4-0.7-0.9-1.4-1.2-2.1
		c-0.4-0.6-1-1.2-1.7-1.6c-1.6,3.3-0.2,7.2,3.1,8.7c3.3,1.6,7.2,0.2,8.7-3.1c0.2-0.4,0.4-0.8,0.5-1.3
		C-416.8-869-417-868.9-417.3-868.9z"/>
	<path id="Path_916" class="st7" d="M-415.4-849.6c-3.6,0.2-6.7-2.6-6.9-6.2c-0.1-1.1,0.2-2.2,0.6-3.1c0.5,0.4,1,0.8,1.3,1.3
		c0.4,0.7,0.8,1.5,1.3,2.2c1.1,1.1,2.8,1.7,4.4,1.5c1.6-0.1,3.1-0.5,4.7-0.7c0.2,0,0.4,0,0.7,0C-410-851.7-412.5-849.7-415.4-849.6z
		"/>
	<path id="Path_917" class="st7" d="M-431.3-838.9c-3.6,0.2-6.7-2.6-6.9-6.2c-0.1-1,0.1-2.1,0.6-3c0.5,0.4,1,0.8,1.4,1.3
		c0.5,0.7,0.8,1.6,1.4,2.2c1.3,1.2,2.9,1.8,4.7,1.6c1.7,0,3.2-0.4,4.8-0.6C-426.2-840.9-428.6-839.1-431.3-838.9z"/>
	<path id="Path_918" class="st7" d="M-428.1-826.2c10.3,0.6,19.1-7.2,19.7-17.5c0.6-10.3-7.2-19.1-17.5-19.7
		c-10.3-0.6-19.1,7.2-19.7,17.5c-0.4,6,2.2,11.9,6.9,15.7c0.5,0.8,1.1,1.6,1.8,2.3c1.5,1.3,3.5,2,5.4,1.9
		C-430.3-826-429.2-826-428.1-826.2z"/>
	<path id="Path_919" class="st16" d="M-444.5-816.5c0,0,5.2-0.2,6.8-1.3s8-2.4,8.4-0.7c0.4,1.8,7.8,8.9,1.9,8.9
		c-5.9,0-13.6-0.9-15.2-1.9S-444.5-816.5-444.5-816.5z"/>
	<path id="Path_920" class="st17" d="M-427.4-810.1c-5.9,0-13.6-0.9-15.2-1.9c-1.2-0.7-1.7-3.3-1.8-4.5h-0.2c0,0,0.3,4.2,1.9,5.2
		c1.5,1,9.3,1.9,15.2,1.9c1.7,0,2.3-0.6,2.2-1.5C-425.5-810.4-426.1-810.1-427.4-810.1z"/>
</g>
</svg>
