<?xml version="1.0" encoding="utf-8"?>
<!-- Generator: Adobe Illustrator 23.0.1, SVG Export Plug-In . SVG Version: 6.00 Build 0)  -->
<svg version="1.1" id="Warstwa_1" xmlns="http://www.w3.org/2000/svg" xmlns:xlink="http://www.w3.org/1999/xlink" x="0px" y="0px"
	 viewBox="0 0 200 200" style="enable-background:new 0 0 200 200;" xml:space="preserve">
<style type="text/css">
	.st0{fill:url(#ic_contacts_24px_1_);}
</style>
<linearGradient id="ic_contacts_24px_1_" gradientUnits="userSpaceOnUse" x1="-874.3552" y1="1171.6035" x2="-864.1219" y2="1162.8118" gradientTransform="matrix(20 0 0 -24 17489 28117)">
	<stop  offset="0" style="stop-color:#71456E"/>
	<stop  offset="1" style="stop-color:#F73F7F"/>
</linearGradient>
<path id="ic_contacts_24px" class="st0" d="M167,0H33.7v16.7H167V0z M33.7,200H167v-16.7H33.7V200z M167,33.3H33.7
	C24.5,33.4,17,40.8,17,50v100c0,9.2,7.5,16.6,16.7,16.7H167c9.2,0,16.6-7.5,16.7-16.7V50C183.6,40.8,176.2,33.4,167,33.3z
	 M100.3,56.3c10.4,0,18.8,8.4,18.8,18.8s-8.4,18.8-18.8,18.8S81.6,85.4,81.6,75C81.6,64.7,90,56.3,100.3,56.3z M142,141.7H58.7
	v-12.5c0-13.9,27.7-20.8,41.7-20.8s41.7,6.9,41.7,20.8V141.7z"/>
</svg>
