<?xml version="1.0" encoding="utf-8"?>
<!-- Generator: Adobe Illustrator 23.0.1, SVG Export Plug-In . SVG Version: 6.00 Build 0)  -->
<svg version="1.1" id="Warstwa_1" xmlns="http://www.w3.org/2000/svg" xmlns:xlink="http://www.w3.org/1999/xlink" x="0px" y="0px"
	 viewBox="0 0 200 200" style="enable-background:new 0 0 200 200;" xml:space="preserve">
<style type="text/css">
	.st0{fill:url(#Union_3_1_);}
</style>
<linearGradient id="Union_3_1_" gradientUnits="userSpaceOnUse" x1="-867.864" y1="1120.7701" x2="-851.5767" y2="1113.2946" gradientTransform="matrix(63.0204 0 0 -63.0216 54275.4766 70495.5234)">
	<stop  offset="0" style="stop-color:#71456E"/>
	<stop  offset="1" style="stop-color:#F73F7F"/>
</linearGradient>
<path id="Union_3" class="st0" d="M60.9,192.2c-50.8-21.5-74.5-80-53-130.8C18,37.5,37,18.5,60.9,8.4c50.7-21.5,109.3,2.3,130.7,53
	c15.8,37.4,7.4,80.7-21.4,109.4c-0.7,0.7-1.3,1.3-2,2c-0.1-0.1-0.2-0.3-0.3-0.4c-0.8-1.2-1.7-2.3-2.7-3.2
	c37.8-36.1,39.1-96.1,3-133.9s-96.1-39.1-133.9-3s-39.1,96.1-3,133.9c26.9,28.2,68.4,37,104.4,22.1c0.5,1.3,1.1,2.6,1.8,3.7
	c0.1,0.1,0.2,0.3,0.3,0.4C113.3,202.6,85.5,202.5,60.9,192.2L60.9,192.2z M141.7,182.2c0-6.1,5-11.1,11.1-11.1
	c6.1,0,11.1,5,11.1,11.1c0,6.1-5,11.1-11.1,11.1C146.7,193.3,141.7,188.3,141.7,182.2C141.7,182.2,141.7,182.2,141.7,182.2z
	 M89.1,138.2v-35.8h-8.4V88.5h8.4v-8.3c0-11.2,4.7-17.9,18.2-17.9h11.2v13.8h-7c-5.3,0-5.6,1.9-5.6,5.5l0,6.9h12.7l-1.5,13.8h-11.2
	l0,35.8L89.1,138.2z"/>
</svg>
