<?xml version="1.0" standalone="no"?>
<!DOCTYPE svg PUBLIC "-//W3C//DTD SVG 20010904//EN"
 "http://www.w3.org/TR/2001/REC-SVG-20010904/DTD/svg10.dtd">
<svg version="1.0" xmlns="http://www.w3.org/2000/svg"
 width="700.000000pt" height="700.000000pt" viewBox="0 0 700.000000 700.000000"
 preserveAspectRatio="xMidYMid meet">
<metadata>
Created by potrace 1.11, written by Peter Selinger 2001-2013
</metadata>
<g transform="translate(0.000000,700.000000) scale(0.100000,-0.100000)"
fill="#000000" stroke="none">
<path d="M1254 4753 l1 -1718 65 3 c128 6 329 49 429 93 261 114 440 257 593
470 61 85 158 268 158 298 0 9 4 21 9 27 5 5 19 45 30 89 46 174 49 231 50
810 1 413 5 551 14 557 13 8 377 3 477 -7 585 -58 972 -342 1162 -855 24 -65
84 -280 92 -330 48 -308 51 -347 51 -665 -1 -236 -5 -342 -21 -460 -6 -53 -14
-108 -19 -134 -2 -14 -7 -44 -11 -66 -10 -64 -62 -257 -90 -337 -28 -78 -122
-280 -134 -288 -4 -3 -14 -19 -23 -36 -24 -47 -138 -184 -202 -242 -165 -151
-388 -262 -620 -308 -108 -21 -116 -23 -180 -30 -87 -10 -134 -11 -495 -14
-202 -2 -355 -8 -405 -16 -497 -80 -874 -491 -909 -991 -5 -64 -3 -73 12 -73
77 -3 1914 2 1937 4 17 2 75 7 130 11 55 4 102 8 105 10 3 2 30 6 60 10 30 3
62 8 70 10 8 2 33 7 55 10 75 10 230 47 323 76 132 42 158 51 237 82 584 230
1033 674 1295 1282 44 102 117 315 135 395 1 8 8 35 15 60 7 25 14 53 16 63 2
10 5 26 8 35 4 14 20 99 50 277 3 17 8 55 12 85 3 30 7 69 9 85 27 224 27 782
0 1000 -2 17 -6 55 -10 85 -20 173 -60 369 -115 568 -35 125 -99 291 -169 437
-213 444 -545 790 -971 1014 -323 169 -668 269 -1090 316 -30 3 -73 8 -95 11
-22 3 -490 8 -1041 11 l-1001 4 1 -1718z"/>
<path d="M1845 2473 c-125 -65 -145 -214 -41 -305 77 -68 206 -49 266 39 20
30 25 49 25 103 0 58 -4 72 -29 104 -51 68 -153 95 -221 59z"/>
</g>
</svg>
