<?xml version="1.0" encoding="utf-8"?>
<!-- Generator: Adobe Illustrator 23.0.1, SVG Export Plug-In . SVG Version: 6.00 Build 0)  -->
<svg version="1.1" id="Warstwa_1" xmlns="http://www.w3.org/2000/svg" xmlns:xlink="http://www.w3.org/1999/xlink" x="0px" y="0px"
	 viewBox="0 0 300 300" style="enable-background:new 0 0 300 300;" xml:space="preserve">
<style type="text/css">
	.st0{fill:#FFFFFF;}
	.st1{fill:url(#SVGID_1_);}
</style>
<g>
	<circle class="st0" cx="149.8" cy="149.8" r="142"/>
</g>
<linearGradient id="SVGID_1_" gradientUnits="userSpaceOnUse" x1="94.5639" y1="205.0211" x2="205.106" y2="94.4789">
	<stop  offset="0.1577" style="stop-color:#F73F7F"/>
	<stop  offset="0.778" style="stop-color:#C43397"/>
	<stop  offset="1" style="stop-color:#B12FA0"/>
</linearGradient>
<path class="st1" d="M166.1,149.8l39-39c4.5-4.5,4.5-11.8,0-16.3h0c-4.5-4.5-11.8-4.5-16.3,0l-39,39l-39-39
	c-4.5-4.5-11.8-4.5-16.3,0h0c-4.5,4.5-4.5,11.8,0,16.3l39,39l-39,39c-4.5,4.5-4.5,11.8,0,16.3h0c4.5,4.5,11.8,4.5,16.3,0l39-39
	l39,39c4.5,4.5,11.8,4.5,16.3,0h0c4.5-4.5,4.5-11.8,0-16.3L166.1,149.8z"/>
</svg>
