<?xml version="1.0" encoding="utf-8"?>
<!-- Generator: Adobe Illustrator 23.0.1, SVG Export Plug-In . SVG Version: 6.00 Build 0)  -->
<svg version="1.1" id="Warstwa_1" xmlns="http://www.w3.org/2000/svg" xmlns:xlink="http://www.w3.org/1999/xlink" x="0px" y="0px"
	 viewBox="0 0 300 300" style="enable-background:new 0 0 300 300;" xml:space="preserve">
<style type="text/css">
	.st0{fill:#FFFFFF;}
	.st1{fill:url(#SVGID_1_);}
</style>
<g>
	<circle class="st0" cx="150.2" cy="150" r="142"/>
</g>
<linearGradient id="SVGID_1_" gradientUnits="userSpaceOnUse" x1="107.5039" y1="190.4635" x2="188.1598" y2="109.8075" gradientTransform="matrix(-1 0 0 -1 300.3397 300)">
	<stop  offset="0.1577" style="stop-color:#F73F7F"/>
	<stop  offset="0.778" style="stop-color:#C43397"/>
	<stop  offset="1" style="stop-color:#B12FA0"/>
</linearGradient>
<path class="st1" d="M72.1,150.1l56.5,56.3c4.5,4.5,11.8,4.5,16.3,0c4.5-4.5,4.5-11.8,0-16.3l-28.9-28.9h100.9
	c6.3,0,11.5-5.1,11.5-11.5c0-6.3-5.1-11.5-11.5-11.5H116.4l28.4-28.4c4.5-4.5,4.5-11.8,0-16.3c-4.5-4.5-11.8-4.5-16.3,0l-56.5,56.3
	V150.1L72.1,150.1z"/>
</svg>
