<?xml version="1.0" encoding="utf-8"?>
<!-- Generator: Adobe Illustrator 23.1.0, SVG Export Plug-In . SVG Version: 6.00 Build 0)  -->
<svg version="1.1" id="Warstwa_1" xmlns="http://www.w3.org/2000/svg" xmlns:xlink="http://www.w3.org/1999/xlink" x="0px" y="0px"
	 viewBox="0 0 1148 1000" style="enable-background:new 0 0 1148 1000;" xml:space="preserve">
<style type="text/css">
	.st0{opacity:0.1;fill:url(#SVGID_1_);enable-background:new    ;}
	.st1{opacity:0.1;fill:url(#SVGID_2_);enable-background:new    ;}
	.st2{opacity:0.1;fill:url(#SVGID_3_);enable-background:new    ;}
	.st3{opacity:0.1;fill:url(#SVGID_4_);enable-background:new    ;}
	.st4{fill:url(#SVGID_5_);}
	.st5{fill:url(#SVGID_6_);}
	.st6{opacity:0.2;fill:url(#SVGID_7_);enable-background:new    ;}
	.st7{opacity:0.5;}
	.st8{fill:url(#SVGID_8_);}
	.st9{fill:url(#SVGID_9_);}
	.st10{fill:url(#SVGID_10_);}
	.st11{fill:url(#SVGID_11_);}
	.st12{fill:url(#SVGID_12_);}
	.st13{fill:url(#SVGID_13_);}
	.st14{fill:url(#SVGID_14_);}
	.st15{opacity:0.1;fill:url(#SVGID_15_);enable-background:new    ;}
	.st16{opacity:0.1;fill:url(#SVGID_16_);enable-background:new    ;}
	.st17{opacity:0.1;fill:url(#SVGID_17_);enable-background:new    ;}
	.st18{fill:url(#SVGID_18_);}
	.st19{fill:url(#SVGID_19_);}
	.st20{fill:url(#SVGID_20_);}
	.st21{fill:url(#SVGID_21_);}
	.st22{fill:url(#SVGID_22_);}
	.st23{opacity:0.1;fill:url(#SVGID_23_);enable-background:new    ;}
	.st24{fill:url(#SVGID_24_);}
	.st25{fill:url(#SVGID_25_);}
	.st26{fill:url(#SVGID_26_);}
	.st27{opacity:0.32;fill:url(#SVGID_27_);enable-background:new    ;}
	.st28{fill:url(#SVGID_28_);}
	.st29{fill:url(#SVGID_29_);}
	.st30{opacity:0.71;}
	.st31{fill:url(#SVGID_30_);}
	.st32{fill:url(#SVGID_31_);}
	.st33{fill:url(#SVGID_32_);}
	.st34{fill:url(#SVGID_33_);}
	.st35{fill:url(#SVGID_34_);}
	.st36{fill:url(#SVGID_35_);}
	.st37{fill:url(#SVGID_36_);}
	.st38{fill:url(#SVGID_37_);}
	.st39{opacity:0.1;fill:url(#SVGID_38_);enable-background:new    ;}
	.st40{opacity:0.1;fill:url(#SVGID_39_);enable-background:new    ;}
	.st41{fill:url(#SVGID_40_);}
	.st42{fill:url(#SVGID_41_);}
	.st43{fill:url(#SVGID_42_);}
	.st44{fill:url(#SVGID_43_);}
	.st45{opacity:0.56;}
	.st46{fill:url(#SVGID_44_);}
	.st47{fill:url(#SVGID_45_);}
	.st48{opacity:0.1;fill:url(#SVGID_46_);enable-background:new    ;}
	.st49{opacity:0.1;fill:url(#SVGID_47_);enable-background:new    ;}
	.st50{opacity:0.1;fill:url(#SVGID_48_);enable-background:new    ;}
	.st51{opacity:0.1;fill:url(#SVGID_49_);enable-background:new    ;}
</style>
<linearGradient id="SVGID_1_" gradientUnits="userSpaceOnUse" x1="690.992" y1="308.5771" x2="663.0292" y2="425.2913" gradientTransform="matrix(1 0 0 -1 0 1002)">
	<stop  offset="0" style="stop-color:#000000;stop-opacity:0"/>
	<stop  offset="1" style="stop-color:#000000"/>
</linearGradient>
<polygon class="st0" points="694.9,566.7 657.7,697.5 689.5,690.6 "/>
<linearGradient id="SVGID_2_" gradientUnits="userSpaceOnUse" x1="640.6359" y1="780.8489" x2="687.2833" y2="720.9037" gradientTransform="matrix(1 0 0 -1 0 1002)">
	<stop  offset="0" style="stop-color:#000000;stop-opacity:0"/>
	<stop  offset="1" style="stop-color:#000000"/>
</linearGradient>
<polygon class="st1" points="694.7,206.2 646.1,312.6 673.8,200.8 "/>
<linearGradient id="SVGID_3_" gradientUnits="userSpaceOnUse" x1="531.3816" y1="326.4554" x2="479.0734" y2="373.6095" gradientTransform="matrix(1 0 0 -1 0 1002)">
	<stop  offset="0" style="stop-color:#000000;stop-opacity:0"/>
	<stop  offset="1" style="stop-color:#000000"/>
</linearGradient>
<polygon class="st2" points="509.8,700.3 513.4,587.9 479.6,700.3 "/>
<linearGradient id="SVGID_4_" gradientUnits="userSpaceOnUse" x1="549.5555" y1="749.9307" x2="485.6559" y2="807.5343" gradientTransform="matrix(1 0 0 -1 0 1002)">
	<stop  offset="0" style="stop-color:#000000;stop-opacity:0"/>
	<stop  offset="1" style="stop-color:#000000"/>
</linearGradient>
<polygon class="st3" points="482.6,194.9 503.2,194.9 542.4,261 "/>
<linearGradient id="SVGID_5_" gradientUnits="userSpaceOnUse" x1="337.0828" y1="873.5891" x2="669.8264" y2="627.7253" gradientTransform="matrix(1 0 0 -1 0 1002)">
	<stop  offset="0" style="stop-color:#B12FA0"/>
	<stop  offset="1" style="stop-color:#FF6197"/>
</linearGradient>
<polygon class="st4" points="440.1,194.9 482.6,194.9 695.8,434.5 406,194.9 "/>
<linearGradient id="SVGID_6_" gradientUnits="userSpaceOnUse" x1="395.1845" y1="800.4266" x2="636.3203" y2="614.0587" gradientTransform="matrix(1 0 0 -1 0 1002)">
	<stop  offset="0" style="stop-color:#B12FA0"/>
	<stop  offset="1" style="stop-color:#FF6197"/>
</linearGradient>
<polygon class="st5" points="367.1,194.9 694.7,432.2 406,194.9 "/>
<linearGradient id="SVGID_7_" gradientUnits="userSpaceOnUse" x1="619.3737" y1="602.9149" x2="644.9044" y2="656.6436" gradientTransform="matrix(1 0 0 -1 0 1002)">
	<stop  offset="0" style="stop-color:#000000;stop-opacity:0"/>
	<stop  offset="1" style="stop-color:#000000"/>
</linearGradient>
<polygon class="st6" points="632.3,363.2 627.5,383.6 637.7,369.2 "/>
<g class="st7">
	
		<linearGradient id="SVGID_8_" gradientUnits="userSpaceOnUse" x1="403.2" y1="687.4" x2="696.6" y2="687.4" gradientTransform="matrix(1 0 0 -1 0 1002)">
		<stop  offset="0" style="stop-color:#FFFFFF"/>
		<stop  offset="1" style="stop-color:#FFFFFF;stop-opacity:0"/>
	</linearGradient>
	<path class="st8" d="M482.6,194.9l213.3,239.6L406,194.9h34.2H482.6 M483,193.9h-0.4h-42.5H406h-2.8l2.1,1.8l289.9,239.6l1.4-1.4
		L483.3,194.3L483,193.9L483,193.9z"/>
</g>
<linearGradient id="SVGID_9_" gradientUnits="userSpaceOnUse" x1="639.063" y1="820.7806" x2="610.4839" y2="536.7045" gradientTransform="matrix(1 0 0 -1 0 1002)">
	<stop  offset="0" style="stop-color:#B12FA0"/>
	<stop  offset="1" style="stop-color:#FF6197"/>
</linearGradient>
<path class="st9" d="M663,198.6c4.1,0.7,7.9,1.4,10.9,2.1L609.1,462l-8.2-267.2h16.4C632.5,194.9,647.8,196.1,663,198.6z"/>
<linearGradient id="SVGID_10_" gradientUnits="userSpaceOnUse" x1="559.675" y1="815.0267" x2="585.9678" y2="601.2552" gradientTransform="matrix(1 0 0 -1 0 1002)">
	<stop  offset="0" style="stop-color:#B12FA0"/>
	<stop  offset="1" style="stop-color:#FF6197"/>
</linearGradient>
<polygon class="st10" points="520.5,194.9 609.1,461.4 600.8,194.9 "/>
<linearGradient id="SVGID_11_" gradientUnits="userSpaceOnUse" x1="324.757" y1="336.8351" x2="519.0947" y2="535.1741" gradientTransform="matrix(1 0 0 -1 0 1002)">
	<stop  offset="0" style="stop-color:#B12FA0"/>
	<stop  offset="1" style="stop-color:#FF6197"/>
</linearGradient>
<polygon class="st11" points="367.1,582.5 565,416.2 367.1,661.4 "/>
<linearGradient id="SVGID_12_" gradientUnits="userSpaceOnUse" x1="465.7" y1="301.7" x2="465.7" y2="648.7475" gradientTransform="matrix(1 0 0 -1 0 1002)">
	<stop  offset="0" style="stop-color:#B12FA0"/>
	<stop  offset="1" style="stop-color:#FF6197"/>
</linearGradient>
<polygon class="st12" points="479.6,700.3 565,416.2 367.1,660.9 366.4,699.6 "/>
<linearGradient id="SVGID_13_" gradientUnits="userSpaceOnUse" x1="319.8847" y1="449.636" x2="705.7025" y2="515.9395" gradientTransform="matrix(1 0 0 -1 0 1002)">
	<stop  offset="0" style="stop-color:#B12FA0"/>
	<stop  offset="1" style="stop-color:#FF6197"/>
</linearGradient>
<polygon class="st13" points="367.1,523.7 710.4,469.6 367.1,564.8 "/>
<linearGradient id="SVGID_14_" gradientUnits="userSpaceOnUse" x1="333.355" y1="381.5376" x2="579.7067" y2="505.5709" gradientTransform="matrix(1 0 0 -1 0 1002)">
	<stop  offset="0" style="stop-color:#B12FA0"/>
	<stop  offset="1" style="stop-color:#FF6197"/>
</linearGradient>
<polygon class="st14" points="367.1,625.9 710.4,469.6 367.1,564.5 "/>
<linearGradient id="SVGID_15_" gradientUnits="userSpaceOnUse" x1="545.8556" y1="432.43" x2="325.606" y2="353.5517" gradientTransform="matrix(1 0 0 -1 0 1002)">
	<stop  offset="0" style="stop-color:#000000;stop-opacity:0"/>
	<stop  offset="1" style="stop-color:#000000"/>
</linearGradient>
<polygon class="st15" points="523.4,554.7 518.7,570.3 367.1,656.5 367.1,625.9 "/>
<linearGradient id="SVGID_16_" gradientUnits="userSpaceOnUse" x1="583.1858" y1="514.3383" x2="352.5655" y2="488.6298" gradientTransform="matrix(1 0 0 -1 0 1002)">
	<stop  offset="0" style="stop-color:#000000;stop-opacity:0"/>
	<stop  offset="1" style="stop-color:#000000"/>
</linearGradient>
<polygon class="st16" points="367.1,499.8 541,496.3 367.1,523.7 "/>
<linearGradient id="SVGID_17_" gradientUnits="userSpaceOnUse" x1="553.3303" y1="652.8997" x2="516.1496" y2="808.089" gradientTransform="matrix(1 0 0 -1 0 1002)">
	<stop  offset="0" style="stop-color:#000000;stop-opacity:0"/>
	<stop  offset="1" style="stop-color:#000000"/>
</linearGradient>
<polygon class="st17" points="520.5,194.9 568.9,341.1 568.9,341.1 498.9,194.9 "/>
<linearGradient id="SVGID_18_" gradientUnits="userSpaceOnUse" x1="734.7" y1="302.0267" x2="734.7" y2="484.9243" gradientTransform="matrix(1 0 0 -1 0 1002)">
	<stop  offset="0" style="stop-color:#B12FA0"/>
	<stop  offset="1" style="stop-color:#FF6197"/>
</linearGradient>
<path class="st18" d="M779.8,643.2C779.8,643.2,779.8,643.3,779.8,643.2C779.7,643.3,779.7,643.3,779.8,643.2
	c-1.1,1-9.9,8.7-24.6,18c-0.1,0.1-0.2,0.1-0.3,0.2c-1.6,1-3.3,2-5,3.1c-14.5,8.7-33.7,18.2-56.3,24.9l0,0c-0.8,0.2-1.6,0.5-2.4,0.7
	c-0.2,0-0.3,0.1-0.5,0.1h-0.1c-0.3,0.1-0.7,0.2-1,0.3l5.4-123.9l0.9-19.8l10.4,11.9l34.3,39.3l8,9.1l0.2,0.2L779.8,643.2z"/>
<linearGradient id="SVGID_19_" gradientUnits="userSpaceOnUse" x1="757.95" y1="393.6785" x2="757.95" y2="475.0028" gradientTransform="matrix(1 0 0 -1 0 1002)">
	<stop  offset="0" style="stop-color:#B12FA0"/>
	<stop  offset="1" style="stop-color:#FF6197"/>
</linearGradient>
<path class="st19" d="M820.1,601.8c0,0.1-0.1,0.1-0.1,0.2c0,0.1,0,0.1-0.1,0.2c-2.1,3.9-7.5,9.9-13.5,16.2c-3.4,3.5-7,7.1-10.4,10.5
	c-8.3,8-15.4,14.5-15.4,14.5l-0.3-0.4l-31.8-36l-0.2-0.2l0,0l-7.9-9l-34.3-39L695.8,547l16.2,7.2l27.6,12.2l4.2,1.9l0,0l33,14.5
	l16.5,7.3l0,0l1.1,0.5l13.6,6L820.1,601.8L820.1,601.8z"/>
<g class="st7">
	
		<linearGradient id="SVGID_20_" gradientUnits="userSpaceOnUse" x1="688.4" y1="383.8" x2="781.1" y2="383.8" gradientTransform="matrix(1 0 0 -1 0 1002)">
		<stop  offset="0" style="stop-color:#FFFFFF"/>
		<stop  offset="1" style="stop-color:#FFFFFF;stop-opacity:0"/>
	</linearGradient>
	<path class="st20" d="M695.8,547l10.4,11.9l34.3,39.3l8,9.1l0.2,0.2l31.2,35.8c0,0,0,0-0.1,0.1l0,0c-1,0.9-9.8,8.6-24.5,17.9
		c-0.1,0.1-0.2,0.1-0.3,0.2c-1.6,1-3.3,2-5,3.1c-14.5,8.7-33.7,18.2-56.3,24.9l0,0c-0.8,0.2-1.6,0.5-2.4,0.7c-0.2,0-0.3,0.1-0.5,0.1
		h-0.1c-0.3,0.1-0.7,0.2-1,0.3l5.4-123.9L695.8,547 M694.9,544.4l-0.1,2.5l-0.9,19.8l-5.4,123.9l-0.1,1.4l1.3-0.4
		c0.2,0,0.3-0.1,0.4-0.1c0.2-0.1,0.4-0.1,0.6-0.2h0.1c0.2,0,0.3-0.1,0.5-0.1c0.8-0.2,1.6-0.5,2.4-0.7c19.4-5.8,38.4-14.2,56.5-25
		c1.6-1,3.3-2,5.1-3.1l0,0l0,0c0.1,0,0.1-0.1,0.2-0.1l0.1-0.1c14.8-9.4,23.7-17.1,24.7-18l0,0c0,0,0,0,0.1-0.1l0,0l0,0l0.7-0.7
		l-0.6-0.7l-31.2-35.8l-0.2-0.2l-8-9.1l-34.3-39.3l-10.4-11.9L694.9,544.4L694.9,544.4z"/>
</g>
<linearGradient id="SVGID_21_" gradientUnits="userSpaceOnUse" x1="767.15" y1="422.9698" x2="767.15" y2="614.5513" gradientTransform="matrix(1 0 0 -1 0 1002)">
	<stop  offset="0" style="stop-color:#B12FA0"/>
	<stop  offset="1" style="stop-color:#FF6197"/>
</linearGradient>
<path class="st21" d="M806.3,618.4c-3.4,3.5-7,7.1-10.4,10.5c-8.3,8-15.1,13.6-15.1,13.6l-0.7,0.5c-0.1,0.1-0.2,0.2-0.3,0.2
	c0,0,0,0-0.1,0.1l0,0c-1,0.9-9.8,8.6-24.5,17.9v0.2l-0.3,0.2v-0.2v-0.1l-6.4-54v-0.4l0,0l-3.9-33l-0.1-0.8l-0.6-4.9l-5.3-44.7
	L728,434.6l25,58.6l41.5,97.4l11.6,27.3L806.3,618.4L806.3,618.4z"/>
<linearGradient id="SVGID_22_" gradientUnits="userSpaceOnUse" x1="783.6" y1="372.2853" x2="783.6" y2="568.6405" gradientTransform="matrix(1 0 0 -1 0 1002)">
	<stop  offset="0" style="stop-color:#B12FA0"/>
	<stop  offset="1" style="stop-color:#FF6197"/>
</linearGradient>
<path class="st22" d="M839.3,572.8L727.9,434.5l77.4,184C805.3,618.5,828.1,595.8,839.3,572.8z"/>
<linearGradient id="SVGID_23_" gradientUnits="userSpaceOnUse" x1="700.0288" y1="457.6797" x2="778.0563" y2="357.4091" gradientTransform="matrix(1 0 0 -1 0 1002)">
	<stop  offset="0" style="stop-color:#000000;stop-opacity:0"/>
	<stop  offset="1" style="stop-color:#000000"/>
</linearGradient>
<polygon class="st23" points="755.2,661.4 754.9,661.6 749.8,664.5 742.5,668.7 742.5,668.6 740.5,598.2 740.5,597.8 739.5,566.3 
	738.3,523.7 743.8,568.1 744.4,573.1 744.5,573.8 748.5,607 748.6,607.5 755.2,661 755.2,661.2 "/>
<g class="st7">
	
		<linearGradient id="SVGID_24_" gradientUnits="userSpaceOnUse" x1="366.1" y1="484.6" x2="710.7" y2="484.6" gradientTransform="matrix(1 0 0 -1 0 1002)">
		<stop  offset="0" style="stop-color:#FFFFFF"/>
		<stop  offset="1" style="stop-color:#FFFFFF;stop-opacity:0"/>
	</linearGradient>
	<path class="st24" d="M710.4,469.6l-343.3,95.3v-41.2L710.4,469.6 M710.2,468.6l-343.3,54.1l-0.8,0.1v0.9v41.2v1.3l1.3-0.4
		l343.3-95.3L710.2,468.6L710.2,468.6z"/>
</g>
<g class="st7">
	
		<linearGradient id="SVGID_25_" gradientUnits="userSpaceOnUse" x1="599.8" y1="670.35" x2="675.0776" y2="670.35" gradientTransform="matrix(1 0 0 -1 0 1002)">
		<stop  offset="0" style="stop-color:#FFFFFF"/>
		<stop  offset="1" style="stop-color:#FFFFFF;stop-opacity:0"/>
	</linearGradient>
	<path class="st25" d="M617.2,194.9c15.3,0,30.7,1.2,45.8,3.7c4.1,0.7,7.9,1.4,10.9,2.1L609.1,462l-8.2-267.2h16.3 M617.2,193.9
		h-16.4h-1v1l8.2,267.2l0.2,7.3l1.7-7L674.8,201l0.2-1l-1-0.2c-2.7-0.7-6.4-1.4-10.9-2.2C648.4,195.2,632.9,193.9,617.2,193.9
		L617.2,193.9z"/>
</g>
<g class="st7">
	
		<linearGradient id="SVGID_26_" gradientUnits="userSpaceOnUse" x1="724.2" y1="477.75" x2="840.6" y2="477.75" gradientTransform="matrix(1 0 0 -1 0 1002)">
		<stop  offset="0" style="stop-color:#FFFFFF"/>
		<stop  offset="1" style="stop-color:#FFFFFF;stop-opacity:0"/>
	</linearGradient>
	<path class="st26" d="M727.9,434.5l111.5,138.3c-11.2,22.9-34,45.7-34,45.7L727.9,434.5 M724.2,428.3l2.8,6.5l77.4,184l0.6,1.4
		l1.1-1.1c0.2-0.2,23-23.1,34.2-46l0.3-0.6l-0.4-0.5L728.7,433.9L724.2,428.3L724.2,428.3z"/>
</g>
<linearGradient id="SVGID_27_" gradientUnits="userSpaceOnUse" x1="329.1" y1="183.3" x2="834.5" y2="183.3" gradientTransform="matrix(1 0 0 -1 0 1002)">
	<stop  offset="0" style="stop-color:#E1D8E0"/>
	<stop  offset="1" style="stop-color:#E1D8E0;stop-opacity:0"/>
</linearGradient>
<ellipse class="st27" cx="581.8" cy="818.7" rx="252.7" ry="23.4"/>
<g>
	
		<linearGradient id="SVGID_28_" gradientUnits="userSpaceOnUse" x1="861.9387" y1="388.6601" x2="891.4882" y2="427.3127" gradientTransform="matrix(0.1562 0.9877 0.9877 -0.1562 -16.0018 -453.858)">
		<stop  offset="0" style="stop-color:#B12FA0"/>
		<stop  offset="1" style="stop-color:#FF6197"/>
	</linearGradient>
	<polygon class="st28" points="549.9,350.9 500.1,335.4 549.7,373.8 	"/>
	
		<linearGradient id="SVGID_29_" gradientUnits="userSpaceOnUse" x1="903.0325" y1="394.9609" x2="887.2074" y2="433.1935" gradientTransform="matrix(0.1562 0.9877 0.9877 -0.1562 -16.0018 -453.858)">
		<stop  offset="0" style="stop-color:#B12FA0"/>
		<stop  offset="1" style="stop-color:#FF6197"/>
	</linearGradient>
	<polygon class="st29" points="500.1,335.4 520.1,372.5 572.6,391.4 	"/>
	<g class="st30">
		
			<linearGradient id="SVGID_30_" gradientUnits="userSpaceOnUse" x1="529.9863" y1="624.5515" x2="522.6493" y2="670.9551" gradientTransform="matrix(1 0 0 -1 0 1002)">
			<stop  offset="0" style="stop-color:#FFFFFF"/>
			<stop  offset="1" style="stop-color:#FFFFFF;stop-opacity:0"/>
		</linearGradient>
		<path class="st31" d="M500.1,335.4l49.7,15.5l-0.2,22.9L500.1,335.4 M498.9,334.8l1.1,0.8l49.5,38.4l0.4,0.3v-0.5l0.2-22.9v-0.2
			l-0.2-0.1l-49.7-15.5L498.9,334.8L498.9,334.8z"/>
	</g>
	<g class="st30">
		
			<linearGradient id="SVGID_31_" gradientUnits="userSpaceOnUse" x1="556.0088" y1="653.0133" x2="563.2093" y2="607.4729" gradientTransform="matrix(1 0 0 -1 0 1002)">
			<stop  offset="0" style="stop-color:#FFFFFF"/>
			<stop  offset="1" style="stop-color:#FFFFFF;stop-opacity:0"/>
		</linearGradient>
		<path class="st32" d="M549.9,350.9l22.8,41l-23-18.1L549.9,350.9 M549.6,350v0.9l-0.2,22.9v0.1l0.1,0.1l23,18.1l1,0.8l-0.6-1.1
			l-22.8-41L549.6,350L549.6,350z"/>
	</g>
	
		<linearGradient id="SVGID_32_" gradientUnits="userSpaceOnUse" x1="900.1311" y1="455.332" x2="909.3741" y2="430.4039" gradientTransform="matrix(0.1562 0.9877 0.9877 -0.1562 -16.0018 -453.858)">
		<stop  offset="0" style="stop-color:#B12FA0"/>
		<stop  offset="1" style="stop-color:#FF6197"/>
	</linearGradient>
	<polygon class="st33" points="572.7,391.9 549.7,373.8 549.9,350.9 	"/>
</g>
<g>
	
		<linearGradient id="SVGID_33_" gradientUnits="userSpaceOnUse" x1="934.4371" y1="448.5908" x2="949.901" y2="468.8184" gradientTransform="matrix(-1.8081 0.1297 0.1204 1.6788 2315.2227 -362.662)">
		<stop  offset="0" style="stop-color:#B12FA0"/>
		<stop  offset="1" style="stop-color:#FF6197"/>
	</linearGradient>
	<polygon class="st34" points="662.2,552.3 681.1,509.7 640.7,550.5 	"/>
	
		<linearGradient id="SVGID_34_" gradientUnits="userSpaceOnUse" x1="955.9801" y1="451.8834" x2="947.6985" y2="471.8911" gradientTransform="matrix(-1.8081 0.1297 0.1204 1.6788 2315.2227 -362.662)">
		<stop  offset="0" style="stop-color:#B12FA0"/>
		<stop  offset="1" style="stop-color:#FF6197"/>
	</linearGradient>
	<polygon class="st35" points="681.1,509.7 644.4,524.6 622.1,569.4 	"/>
	<g class="st30">
		
			<linearGradient id="SVGID_35_" gradientUnits="userSpaceOnUse" x1="638.83" y1="469.1139" x2="683.4319" y2="472.3127" gradientTransform="matrix(1 0 0 -1 0 1002)">
			<stop  offset="0" style="stop-color:#FFFFFF"/>
			<stop  offset="1" style="stop-color:#FFFFFF;stop-opacity:0"/>
		</linearGradient>
		<path class="st36" d="M681.1,509.7l-18.9,42.6l-21.6-1.8L681.1,509.7 M681.9,508.5l-1,1l-40.5,40.8l-0.4,0.4h0.5l21.6,1.8h0.2
			l0.1-0.2l18.9-42.6L681.9,508.5L681.9,508.5z"/>
	</g>
	<g class="st30">
		
			<linearGradient id="SVGID_36_" gradientUnits="userSpaceOnUse" x1="663.707" y1="444.2243" x2="619.8706" y2="441.0805" gradientTransform="matrix(1 0 0 -1 0 1002)">
			<stop  offset="0" style="stop-color:#FFFFFF"/>
			<stop  offset="1" style="stop-color:#FFFFFF;stop-opacity:0"/>
		</linearGradient>
		<path class="st37" d="M640.7,550.5l21.6,1.8l-40.6,17.1L640.7,550.5 M640.6,550.2L640.6,550.2l-19.1,19l-0.9,0.9l1.2-0.5
			l40.6-17.1l0.9-0.4l-1-0.1l-21.6-1.8L640.6,550.2L640.6,550.2z"/>
	</g>
	
		<linearGradient id="SVGID_37_" gradientUnits="userSpaceOnUse" x1="954.4525" y1="483.4722" x2="959.2895" y2="470.4268" gradientTransform="matrix(-1.8081 0.1297 0.1204 1.6788 2315.2227 -362.662)">
		<stop  offset="0" style="stop-color:#B12FA0"/>
		<stop  offset="1" style="stop-color:#FF6197"/>
	</linearGradient>
	<polygon class="st38" points="621.6,569.4 640.7,550.5 662.2,552.3 	"/>
</g>
<linearGradient id="SVGID_38_" gradientUnits="userSpaceOnUse" x1="512.2626" y1="678.1926" x2="371.3046" y2="805.2615" gradientTransform="matrix(1 0 0 -1 0 1002)">
	<stop  offset="0" style="stop-color:#000000;stop-opacity:0"/>
	<stop  offset="1" style="stop-color:#000000"/>
</linearGradient>
<polygon class="st39" points="367.1,219.2 526.4,310.3 367.1,194.9 "/>
<linearGradient id="SVGID_39_" gradientUnits="userSpaceOnUse" x1="765.1607" y1="545.8672" x2="850.1996" y2="436.5865" gradientTransform="matrix(1 0 0 -1 0 1002)">
	<stop  offset="0" style="stop-color:#000000;stop-opacity:0"/>
	<stop  offset="1" style="stop-color:#000000"/>
</linearGradient>
<polygon class="st40" points="853.3,544.4 757.9,471.8 839.3,572.8 "/>
<linearGradient id="SVGID_40_" gradientUnits="userSpaceOnUse" x1="817.5752" y1="731.2001" x2="735.0591" y2="653.0063" gradientTransform="matrix(1 0 0 -1 0 1002)">
	<stop  offset="0" style="stop-color:#B12FA0"/>
	<stop  offset="1" style="stop-color:#FF6197"/>
</linearGradient>
<path class="st41" d="M823.8,298.5L823.8,298.5l-96,61.7l-17.5,11.2l12.5-16.8l45.5-61.4l0.7-1l22.3-30.1l0,0
	c0.6,0.6,1.2,1.2,1.9,1.7c1,0.9,1.9,1.8,2.8,2.7c0.1,0.1,0.1,0.1,0.2,0.2c0.9,0.8,1.7,1.7,2.6,2.6c0.9,0.9,1.9,1.9,2.8,2.8
	c1.8,1.9,3.6,3.8,5.4,5.8c0.9,1,1.8,2,2.6,3c1.7,2,3.4,4,5.1,6l0,0c0.8,1,1.7,2,2.5,3.1c0.8,0.9,1.5,1.9,2.2,2.8
	c0.1,0.1,0.2,0.3,0.3,0.4c1,1.3,2,2.6,3,3.9C823.2,297.6,823.5,298.1,823.8,298.5z"/>
<linearGradient id="SVGID_41_" gradientUnits="userSpaceOnUse" x1="823.3917" y1="691.6083" x2="664.1005" y2="590.2413" gradientTransform="matrix(1 0 0 -1 0 1002)">
	<stop  offset="0" style="stop-color:#B12FA0"/>
	<stop  offset="1" style="stop-color:#FF6197"/>
</linearGradient>
<path class="st42" d="M834.8,314.7L834.8,314.7l-105,47.9l-19.4,8.8l17.5-11.2l96-61.7l0,0c0.2,0.3,0.5,0.6,0.7,1
	c0.8,1.1,1.5,2.1,2.3,3.2s1.5,2.2,2.3,3.3c0.7,1.1,1.5,2.2,2.2,3.3C832.4,311,833.6,312.9,834.8,314.7z"/>
<linearGradient id="SVGID_42_" gradientUnits="userSpaceOnUse" x1="864.6395" y1="645.5756" x2="831.7629" y2="606.4368" gradientTransform="matrix(1 0 0 -1 0 1002)">
	<stop  offset="0" style="stop-color:#B12FA0"/>
	<stop  offset="1" style="stop-color:#FF6197"/>
</linearGradient>
<path class="st43" d="M866.3,391.9L866.3,391.9l-67.2,8.9l48.8-61.9l0,0c0.3,0.5,0.5,1.1,0.8,1.6c0.6,1.2,1.1,2.4,1.7,3.6
	c0.5,1.2,1.1,2.4,1.6,3.7c0.4,1,0.9,2,1.3,3c0.7,1.6,1.3,3.1,1.9,4.7c0.5,1.2,0.9,2.3,1.3,3.5c0.5,1.3,0.9,2.5,1.4,3.8
	c0.4,1.2,0.8,2.4,1.2,3.5c0.5,1.6,1,3.1,1.5,4.7c0.3,1.1,0.7,2.2,1,3.3c0.3,1.1,0.6,2.2,1,3.3c0.1,0.4,0.2,0.8,0.4,1.2
	c0.3,1.1,0.6,2.2,0.9,3.3c0.3,1.3,0.7,2.6,1,3.9c0.3,1.1,0.6,2.2,0.8,3.4c0.1,0.4,0.2,0.9,0.3,1.3
	C866.1,391,866.2,391.5,866.3,391.9z"/>
<linearGradient id="SVGID_43_" gradientUnits="userSpaceOnUse" x1="884.4148" y1="596.736" x2="776.0183" y2="605.3451" gradientTransform="matrix(1 0 0 -1 0 1002)">
	<stop  offset="0" style="stop-color:#B12FA0"/>
	<stop  offset="1" style="stop-color:#FF6197"/>
</linearGradient>
<path class="st44" d="M870.6,416.2l-71.4-15.5l67.2-8.9l0,0c0.1,0.4,0.2,0.8,0.3,1.2c0.1,0.4,0.2,0.8,0.3,1.2
	c0.3,1.2,0.5,2.3,0.7,3.5c0,0.1,0,0.2,0,0.2c0.2,1.1,0.4,2.1,0.6,3.2c0.3,1.7,0.6,3.4,0.9,5.1c0.2,1.2,0.4,2.4,0.6,3.6
	c0,0.1,0,0.2,0,0.3c0.2,1.1,0.3,2.2,0.5,3.2c0.1,0.4,0.1,0.8,0.2,1.2C870.4,415.2,870.5,415.7,870.6,416.2z"/>
<g class="st45">
	
		<linearGradient id="SVGID_44_" gradientUnits="userSpaceOnUse" x1="706.2" y1="684.15" x2="825.0999" y2="684.15" gradientTransform="matrix(1 0 0 -1 0 1002)">
		<stop  offset="0" style="stop-color:#FFFFFF"/>
		<stop  offset="1" style="stop-color:#FFFFFF;stop-opacity:0"/>
	</linearGradient>
	<path class="st46" d="M791.4,262.2c0.6,0.6,1.2,1.2,1.9,1.7c1,0.9,1.9,1.8,2.8,2.7c0.1,0.1,0.1,0.1,0.2,0.2
		c0.9,0.8,1.7,1.7,2.6,2.6c0.9,0.9,1.9,1.9,2.8,2.8c1.8,1.9,3.6,3.8,5.4,5.8c0.9,1,1.8,2,2.6,3c1.7,2,3.4,4,5.1,6l0,0
		c0.8,1,1.7,2,2.5,3.1c0.8,0.9,1.5,1.9,2.2,2.8c0.1,0.1,0.2,0.3,0.3,0.4c1,1.3,2,2.6,3,3.9c0.3,0.4,0.6,0.8,1,1.3l0,0l-96,61.7
		l-17.5,11.2l12.5-16.8l45.5-61.4l0.7-1L791.4,262.2L791.4,262.2 M791.1,260.5l-0.6,1.1l-22.2,30l-0.7,1L722,354l-12.5,16.8
		l-3.3,4.4l4.6-3l17.5-11.2l96-61.7l0.1-0.1l0.1-0.1l0.6-0.6l-0.5-0.7c-0.2-0.2-0.4-0.5-0.5-0.7s-0.3-0.4-0.4-0.6
		c-1-1.4-2-2.7-3-3.9c-0.1-0.1-0.2-0.3-0.4-0.5c-0.7-0.9-1.5-1.9-2.2-2.8c-0.8-1-1.6-2-2.5-3l0,0l-0.1-0.1c-1.6-2-3.3-4-5.1-6
		c-0.9-1-1.7-2-2.6-2.9c-1.8-2-3.6-3.9-5.4-5.8c-0.9-0.9-1.8-1.9-2.8-2.8c-1-1-1.8-1.8-2.6-2.6c-0.1-0.1-0.1-0.1-0.2-0.2
		c-0.9-0.9-1.9-1.8-2.8-2.7c-0.6-0.6-1.2-1.2-1.9-1.7L791.1,260.5L791.1,260.5z"/>
</g>
<g class="st7">
	
		<linearGradient id="SVGID_45_" gradientUnits="userSpaceOnUse" x1="796.9" y1="632.5" x2="867.6" y2="632.5" gradientTransform="matrix(1 0 0 -1 0 1002)">
		<stop  offset="0" style="stop-color:#FFFFFF"/>
		<stop  offset="1" style="stop-color:#FFFFFF;stop-opacity:0"/>
	</linearGradient>
	<path class="st47" d="M847.9,338.8c0.3,0.5,0.5,1.1,0.8,1.6c0.6,1.2,1.1,2.4,1.7,3.6c0.5,1.2,1.1,2.4,1.6,3.7c0.4,1,0.9,2,1.3,3
		c0.7,1.6,1.3,3.1,1.9,4.7c0.5,1.2,0.9,2.3,1.3,3.5c0.5,1.3,0.9,2.5,1.4,3.8c0.4,1.2,0.8,2.4,1.2,3.5c0.5,1.6,1,3.1,1.5,4.7
		c0.3,1.1,0.7,2.2,1,3.3c0.3,1.1,0.6,2.2,1,3.3c0.1,0.4,0.2,0.8,0.4,1.2c0.3,1.1,0.6,2.2,0.9,3.3c0.3,1.3,0.7,2.6,1,3.9
		c0.3,1.1,0.6,2.2,0.8,3.4c0.1,0.4,0.2,0.9,0.3,1.3s0.2,0.9,0.3,1.3l0,0l-67.2,8.9L847.9,338.8L847.9,338.8 M848.2,337.1l-1,1l0,0
		l0,0l0,0L798.4,400l-1.5,1.9l2.4-0.3l67.1-8.9h1.2l-0.3-1.2l-0.3-1.3l-0.1-0.6l-0.2-0.7c-0.3-1.1-0.5-2.3-0.8-3.4
		c-0.3-1.3-0.7-2.6-1-3.9c-0.3-1.1-0.6-2.2-0.9-3.4c-0.1-0.4-0.2-0.8-0.4-1.2c-0.3-1.1-0.6-2.2-1-3.3c-0.3-1.1-0.7-2.2-1-3.3
		c-0.5-1.5-1-3-1.6-4.7c-0.4-1.1-0.8-2.2-1.2-3.6c-0.4-1.3-0.9-2.5-1.4-3.8c-0.4-1.2-0.9-2.3-1.3-3.5c-0.8-1.9-1.3-3.4-1.9-4.7
		c-0.4-1-0.8-2-1.3-3l-0.2-0.5c-0.5-1.1-0.9-2.1-1.4-3.2c-0.6-1.2-1.1-2.4-1.7-3.6c-0.2-0.4-0.4-0.8-0.5-1.2l-0.2-0.5L848.2,337.1
		L848.2,337.1z"/>
</g>
<linearGradient id="SVGID_46_" gradientUnits="userSpaceOnUse" x1="722.8" y1="696.75" x2="791.4" y2="696.75" gradientTransform="matrix(1 0 0 -1 0 1002)">
	<stop  offset="0" style="stop-color:#000000;stop-opacity:0"/>
	<stop  offset="1" style="stop-color:#000000"/>
</linearGradient>
<polygon class="st48" points="784.3,255.9 791.4,262.2 722.8,354.6 "/>
<linearGradient id="SVGID_47_" gradientUnits="userSpaceOnUse" x1="729.8" y1="663.35" x2="838.6" y2="663.35" gradientTransform="matrix(1 0 0 -1 0 1002)">
	<stop  offset="0" style="stop-color:#000000;stop-opacity:0"/>
	<stop  offset="1" style="stop-color:#000000"/>
</linearGradient>
<polygon class="st49" points="834.7,314.7 838.6,321.2 729.8,362.6 "/>
<linearGradient id="SVGID_48_" gradientUnits="userSpaceOnUse" x1="799.2" y1="635.65" x2="847.96" y2="635.65" gradientTransform="matrix(1 0 0 -1 0 1002)">
	<stop  offset="0" style="stop-color:#000000;stop-opacity:0"/>
	<stop  offset="1" style="stop-color:#000000"/>
</linearGradient>
<polygon class="st50" points="844.5,331.9 847.9,338.8 799.2,400.8 "/>
<linearGradient id="SVGID_49_" gradientUnits="userSpaceOnUse" x1="799.2" y1="588.1" x2="871.7" y2="588.1" gradientTransform="matrix(1 0 0 -1 0 1002)">
	<stop  offset="0" style="stop-color:#000000;stop-opacity:0"/>
	<stop  offset="1" style="stop-color:#000000"/>
</linearGradient>
<polygon class="st51" points="870.6,416.2 871.7,427 799.2,400.8 "/>
</svg>
